<svg version="1.1" xmlns="http://www.w3.org/2000/svg" xmlns:xlink="http://www.w3.org/1999/xlink" width="600" height="600"><defs><clipPath id="TfWbfmgLMTQW"><path fill="none" stroke="none" d=" M 50 32 L 570 32 L 570 550 L 50 550 L 50 32 Z"/></clipPath><clipPath id="fwTHVeudlMAs"><path fill="none" stroke="none" d=" M 50 32 L 570 32 L 570 550 L 50 550 L 50 32 Z"/></clipPath><clipPath id="vAiCAnrGJHlh"><path fill="none" stroke="none" d=" M 50 32 L 570 32 L 570 550 L 50 550 L 50 32 Z"/></clipPath></defs><g transform="scale(1,1) translate(0.5,0.5)"><rect fill="#ffffff" stroke="none" x="0" y="0" width="600" height="600"/><rect fill="#FFFFFF" stroke="none" x="50" y="32" width="520" height="518"/><rect fill="#ffffff" stroke="none" x="50" y="32" width="520" height="518"/><g><rect fill="none" stroke="#e5e5e5" x="50" y="32" width="520" height="518" stroke-linejoin="bevel" stroke-miterlimit="10"/></g><g clip-path="url(#TfWbfmgLMTQW)"><g><g><path fill="none" stroke="#e5e5e5" paint-order="fill stroke markers" d=" M 73 550 L 73 32" stroke-linejoin="bevel" stroke-miterlimit="10"/><path fill="none" stroke="#e5e5e5" paint-order="fill stroke markers" d=" M 155 550 L 155 32" stroke-linejoin="bevel" stroke-miterlimit="10"/><path fill="none" stroke="#e5e5e5" paint-order="fill stroke markers" d=" M 236 550 L 236 32" stroke-linejoin="bevel" stroke-miterlimit="10"/><path fill="none" stroke="#e5e5e5" paint-order="fill stroke markers" d=" M 318 550 L 318 32" stroke-linejoin="bevel" stroke-miterlimit="10"/><path fill="none" stroke="#e5e5e5" paint-order="fill stroke markers" d=" M 400 550 L 400 32" stroke-linejoin="bevel" stroke-miterlimit="10"/><path fill="none" stroke="#e5e5e5" paint-order="fill stroke markers" d=" M 482 550 L 482 32" stroke-linejoin="bevel" stroke-miterlimit="10"/><path fill="none" stroke="#e5e5e5" paint-order="fill stroke markers" d=" M 564 550 L 564 32" stroke-linejoin="bevel" stroke-miterlimit="10"/></g></g></g><g clip-path="url(#fwTHVeudlMAs)"><g><g><path fill="none" stroke="#e5e5e5" paint-order="fill stroke markers" d=" M 50 526 L 570 526" stroke-linejoin="bevel" stroke-miterlimit="10"/><path fill="none" stroke="#e5e5e5" paint-order="fill stroke markers" d=" M 50 396 L 570 396" stroke-linejoin="bevel" stroke-miterlimit="10"/><path fill="none" stroke="#e5e5e5" paint-order="fill stroke markers" d=" M 50 265 L 570 265" stroke-linejoin="bevel" stroke-miterlimit="10"/><path fill="none" stroke="#e5e5e5" paint-order="fill stroke markers" d=" M 50 134 L 570 134" stroke-linejoin="bevel" stroke-miterlimit="10"/></g></g></g><g clip-path="url(#vAiCAnrGJHlh)"><g><g><path fill="none" stroke="none"/><path fill="mediumslateblue" stroke="none" paint-order="stroke fill markers" d=" M 73.63636363636365 55.545454545454504 L 92.54545454545456 55.545454545454504 L 92.54545454545456 526.4545454545455 L 73.63636363636365 526.4545454545455 L 73.63636363636365 55.545454545454504 Z" fill-opacity="0.7"/><path fill="none" stroke="black" paint-order="fill stroke markers" d=" M 73.63636363636365 55.545454545454504 L 92.54545454545456 55.545454545454504 L 92.54545454545456 526.4545454545455 L 73.63636363636365 526.4545454545455 L 73.63636363636365 55.545454545454504 Z" stroke-linejoin="bevel" stroke-miterlimit="10"/><path fill="mediumslateblue" stroke="none" paint-order="stroke fill markers" d=" M 92.54545454545456 238.67676767676767 L 111.45454545454547 238.67676767676767 L 111.45454545454547 526.4545454545455 L 92.54545454545456 526.4545454545455 L 92.54545454545456 238.67676767676767 Z" fill-opacity="0.7"/><path fill="none" stroke="black" paint-order="fill stroke markers" d=" M 92.54545454545456 238.67676767676767 L 111.45454545454547 238.67676767676767 L 111.45454545454547 526.4545454545455 L 92.54545454545456 526.4545454545455 L 92.54545454545456 238.67676767676767 Z" stroke-linejoin="bevel" stroke-miterlimit="10"/><path fill="mediumslateblue" stroke="none" paint-order="stroke fill markers" d=" M 111.45454545454547 291 L 130.36363636363637 291 L 130.36363636363637 526.4545454545455 L 111.45454545454547 526.4545454545455 L 111.45454545454547 291 Z" fill-opacity="0.7"/><path fill="none" stroke="black" paint-order="fill stroke markers" d=" M 111.45454545454547 291 L 130.36363636363637 291 L 130.36363636363637 526.4545454545455 L 111.45454545454547 526.4545454545455 L 111.45454545454547 291 Z" stroke-linejoin="bevel" stroke-miterlimit="10"/><path fill="mediumslateblue" stroke="none" paint-order="stroke fill markers" d=" M 130.36363636363637 447.969696969697 L 149.27272727272728 447.969696969697 L 149.27272727272728 526.4545454545455 L 130.36363636363637 526.4545454545455 L 130.36363636363637 447.969696969697 Z" fill-opacity="0.7"/><path fill="none" stroke="black" paint-order="fill stroke markers" d=" M 130.36363636363637 447.969696969697 L 149.27272727272728 447.969696969697 L 149.27272727272728 526.4545454545455 L 130.36363636363637 526.4545454545455 L 130.36363636363637 447.969696969697 Z" stroke-linejoin="bevel" stroke-miterlimit="10"/><path fill="mediumslateblue" stroke="none" paint-order="stroke fill markers" d=" M 149.27272727272728 447.969696969697 L 168.1818181818182 447.969696969697 L 168.1818181818182 526.4545454545455 L 149.27272727272728 526.4545454545455 L 149.27272727272728 447.969696969697 Z" fill-opacity="0.7"/><path fill="none" stroke="black" paint-order="fill stroke markers" d=" M 149.27272727272728 447.969696969697 L 168.1818181818182 447.969696969697 L 168.1818181818182 526.4545454545455 L 149.27272727272728 526.4545454545455 L 149.27272727272728 447.969696969697 Z" stroke-linejoin="bevel" stroke-miterlimit="10"/><path fill="mediumslateblue" stroke="none" paint-order="stroke fill markers" d=" M 168.1818181818182 500.29292929292933 L 187.09090909090912 500.29292929292933 L 187.09090909090912 526.4545454545455 L 168.1818181818182 526.4545454545455 L 168.1818181818182 500.29292929292933 Z" fill-opacity="0.7"/><path fill="none" stroke="black" paint-order="fill stroke markers" d=" M 168.1818181818182 500.29292929292933 L 187.09090909090912 500.29292929292933 L 187.09090909090912 526.4545454545455 L 168.1818181818182 526.4545454545455 L 168.1818181818182 500.29292929292933 Z" stroke-linejoin="bevel" stroke-miterlimit="10"/><path fill="mediumslateblue" stroke="none" paint-order="stroke fill markers" d=" M 187.09090909090912 500.29292929292933 L 206 500.29292929292933 L 206 526.4545454545455 L 187.09090909090912 526.4545454545455 L 187.09090909090912 500.29292929292933 Z" fill-opacity="0.7"/><path fill="none" stroke="black" paint-order="fill stroke markers" d=" M 187.09090909090912 500.29292929292933 L 206 500.29292929292933 L 206 526.4545454545455 L 187.09090909090912 526.4545454545455 L 187.09090909090912 500.29292929292933 Z" stroke-linejoin="bevel" stroke-miterlimit="10"/><path fill="mediumslateblue" stroke="none" paint-order="stroke fill markers" d=" M 206 526.4545454545455 L 224.90909090909093 526.4545454545455 L 224.90909090909093 526.4545454545455 L 206 526.4545454545455 L 206 526.4545454545455 Z" fill-opacity="0.7"/><path fill="none" stroke="black" paint-order="fill stroke markers" d=" M 206 526.4545454545455 L 224.90909090909093 526.4545454545455 L 224.90909090909093 526.4545454545455 L 206 526.4545454545455 L 206 526.4545454545455 Z" stroke-linejoin="bevel" stroke-miterlimit="10"/><path fill="mediumslateblue" stroke="none" paint-order="stroke fill markers" d=" M 224.90909090909093 526.4545454545455 L 243.8181818181818 526.4545454545455 L 243.8181818181818 526.4545454545455 L 224.90909090909093 526.4545454545455 L 224.90909090909093 526.4545454545455 Z" fill-opacity="0.7"/><path fill="none" stroke="black" paint-order="fill stroke markers" d=" M 224.90909090909093 526.4545454545455 L 243.8181818181818 526.4545454545455 L 243.8181818181818 526.4545454545455 L 224.90909090909093 526.4545454545455 L 224.90909090909093 526.4545454545455 Z" stroke-linejoin="bevel" stroke-miterlimit="10"/><path fill="mediumslateblue" stroke="none" paint-order="stroke fill markers" d=" M 243.8181818181818 526.4545454545455 L 262.7272727272727 526.4545454545455 L 262.7272727272727 526.4545454545455 L 243.8181818181818 526.4545454545455 L 243.8181818181818 526.4545454545455 Z" fill-opacity="0.7"/><path fill="none" stroke="black" paint-order="fill stroke markers" d=" M 243.8181818181818 526.4545454545455 L 262.7272727272727 526.4545454545455 L 262.7272727272727 526.4545454545455 L 243.8181818181818 526.4545454545455 L 243.8181818181818 526.4545454545455 Z" stroke-linejoin="bevel" stroke-miterlimit="10"/><path fill="mediumslateblue" stroke="none" paint-order="stroke fill markers" d=" M 262.7272727272727 526.4545454545455 L 281.6363636363636 526.4545454545455 L 281.6363636363636 526.4545454545455 L 262.7272727272727 526.4545454545455 L 262.7272727272727 526.4545454545455 Z" fill-opacity="0.7"/><path fill="none" stroke="black" paint-order="fill stroke markers" d=" M 262.7272727272727 526.4545454545455 L 281.6363636363636 526.4545454545455 L 281.6363636363636 526.4545454545455 L 262.7272727272727 526.4545454545455 L 262.7272727272727 526.4545454545455 Z" stroke-linejoin="bevel" stroke-miterlimit="10"/><path fill="mediumslateblue" stroke="none" paint-order="stroke fill markers" d=" M 281.6363636363636 500.29292929292933 L 300.54545454545456 500.29292929292933 L 300.54545454545456 526.4545454545455 L 281.6363636363636 526.4545454545455 L 281.6363636363636 500.29292929292933 Z" fill-opacity="0.7"/><path fill="none" stroke="black" paint-order="fill stroke markers" d=" M 281.6363636363636 500.29292929292933 L 300.54545454545456 500.29292929292933 L 300.54545454545456 526.4545454545455 L 281.6363636363636 526.4545454545455 L 281.6363636363636 500.29292929292933 Z" stroke-linejoin="bevel" stroke-miterlimit="10"/><path fill="mediumslateblue" stroke="none" paint-order="stroke fill markers" d=" M 300.54545454545456 526.4545454545455 L 319.45454545454544 526.4545454545455 L 319.45454545454544 526.4545454545455 L 300.54545454545456 526.4545454545455 L 300.54545454545456 526.4545454545455 Z" fill-opacity="0.7"/><path fill="none" stroke="black" paint-order="fill stroke markers" d=" M 300.54545454545456 526.4545454545455 L 319.45454545454544 526.4545454545455 L 319.45454545454544 526.4545454545455 L 300.54545454545456 526.4545454545455 L 300.54545454545456 526.4545454545455 Z" stroke-linejoin="bevel" stroke-miterlimit="10"/><path fill="mediumslateblue" stroke="none" paint-order="stroke fill markers" d=" M 319.45454545454544 526.4545454545455 L 338.3636363636364 526.4545454545455 L 338.3636363636364 526.4545454545455 L 319.45454545454544 526.4545454545455 L 319.45454545454544 526.4545454545455 Z" fill-opacity="0.7"/><path fill="none" stroke="black" paint-order="fill stroke markers" d=" M 319.45454545454544 526.4545454545455 L 338.3636363636364 526.4545454545455 L 338.3636363636364 526.4545454545455 L 319.45454545454544 526.4545454545455 L 319.45454545454544 526.4545454545455 Z" stroke-linejoin="bevel" stroke-miterlimit="10"/><path fill="mediumslateblue" stroke="none" paint-order="stroke fill markers" d=" M 338.3636363636364 526.4545454545455 L 357.27272727272725 526.4545454545455 L 357.27272727272725 526.4545454545455 L 338.3636363636364 526.4545454545455 L 338.3636363636364 526.4545454545455 Z" fill-opacity="0.7"/><path fill="none" stroke="black" paint-order="fill stroke markers" d=" M 338.3636363636364 526.4545454545455 L 357.27272727272725 526.4545454545455 L 357.27272727272725 526.4545454545455 L 338.3636363636364 526.4545454545455 L 338.3636363636364 526.4545454545455 Z" stroke-linejoin="bevel" stroke-miterlimit="10"/><path fill="mediumslateblue" stroke="none" paint-order="stroke fill markers" d=" M 357.27272727272725 526.4545454545455 L 376.1818181818182 526.4545454545455 L 376.1818181818182 526.4545454545455 L 357.27272727272725 526.4545454545455 L 357.27272727272725 526.4545454545455 Z" fill-opacity="0.7"/><path fill="none" stroke="black" paint-order="fill stroke markers" d=" M 357.27272727272725 526.4545454545455 L 376.1818181818182 526.4545454545455 L 376.1818181818182 526.4545454545455 L 357.27272727272725 526.4545454545455 L 357.27272727272725 526.4545454545455 Z" stroke-linejoin="bevel" stroke-miterlimit="10"/><path fill="mediumslateblue" stroke="none" paint-order="stroke fill markers" d=" M 376.1818181818182 526.4545454545455 L 395.0909090909091 526.4545454545455 L 395.0909090909091 526.4545454545455 L 376.1818181818182 526.4545454545455 L 376.1818181818182 526.4545454545455 Z" fill-opacity="0.7"/><path fill="none" stroke="black" paint-order="fill stroke markers" d=" M 376.1818181818182 526.4545454545455 L 395.0909090909091 526.4545454545455 L 395.0909090909091 526.4545454545455 L 376.1818181818182 526.4545454545455 L 376.1818181818182 526.4545454545455 Z" stroke-linejoin="bevel" stroke-miterlimit="10"/><path fill="mediumslateblue" stroke="none" paint-order="stroke fill markers" d=" M 395.0909090909091 526.4545454545455 L 414 526.4545454545455 L 414 526.4545454545455 L 395.0909090909091 526.4545454545455 L 395.0909090909091 526.4545454545455 Z" fill-opacity="0.7"/><path fill="none" stroke="black" paint-order="fill stroke markers" d=" M 395.0909090909091 526.4545454545455 L 414 526.4545454545455 L 414 526.4545454545455 L 395.0909090909091 526.4545454545455 L 395.0909090909091 526.4545454545455 Z" stroke-linejoin="bevel" stroke-miterlimit="10"/><path fill="mediumslateblue" stroke="none" paint-order="stroke fill markers" d=" M 414 526.4545454545455 L 432.9090909090909 526.4545454545455 L 432.9090909090909 526.4545454545455 L 414 526.4545454545455 L 414 526.4545454545455 Z" fill-opacity="0.7"/><path fill="none" stroke="black" paint-order="fill stroke markers" d=" M 414 526.4545454545455 L 432.9090909090909 526.4545454545455 L 432.9090909090909 526.4545454545455 L 414 526.4545454545455 L 414 526.4545454545455 Z" stroke-linejoin="bevel" stroke-miterlimit="10"/><path fill="mediumslateblue" stroke="none" paint-order="stroke fill markers" d=" M 432.9090909090909 500.29292929292933 L 451.8181818181818 500.29292929292933 L 451.8181818181818 526.4545454545455 L 432.9090909090909 526.4545454545455 L 432.9090909090909 500.29292929292933 Z" fill-opacity="0.7"/><path fill="none" stroke="black" paint-order="fill stroke markers" d=" M 432.9090909090909 500.29292929292933 L 451.8181818181818 500.29292929292933 L 451.8181818181818 526.4545454545455 L 432.9090909090909 526.4545454545455 L 432.9090909090909 500.29292929292933 Z" stroke-linejoin="bevel" stroke-miterlimit="10"/><path fill="mediumslateblue" stroke="none" paint-order="stroke fill markers" d=" M 451.8181818181818 526.4545454545455 L 470.7272727272727 526.4545454545455 L 470.7272727272727 526.4545454545455 L 451.8181818181818 526.4545454545455 L 451.8181818181818 526.4545454545455 Z" fill-opacity="0.7"/><path fill="none" stroke="black" paint-order="fill stroke markers" d=" M 451.8181818181818 526.4545454545455 L 470.7272727272727 526.4545454545455 L 470.7272727272727 526.4545454545455 L 451.8181818181818 526.4545454545455 L 451.8181818181818 526.4545454545455 Z" stroke-linejoin="bevel" stroke-miterlimit="10"/><path fill="mediumslateblue" stroke="none" paint-order="stroke fill markers" d=" M 470.7272727272727 526.4545454545455 L 489.6363636363636 526.4545454545455 L 489.6363636363636 526.4545454545455 L 470.7272727272727 526.4545454545455 L 470.7272727272727 526.4545454545455 Z" fill-opacity="0.7"/><path fill="none" stroke="black" paint-order="fill stroke markers" d=" M 470.7272727272727 526.4545454545455 L 489.6363636363636 526.4545454545455 L 489.6363636363636 526.4545454545455 L 470.7272727272727 526.4545454545455 L 470.7272727272727 526.4545454545455 Z" stroke-linejoin="bevel" stroke-miterlimit="10"/><path fill="mediumslateblue" stroke="none" paint-order="stroke fill markers" d=" M 489.6363636363636 500.29292929292933 L 508.54545454545456 500.29292929292933 L 508.54545454545456 526.4545454545455 L 489.6363636363636 526.4545454545455 L 489.6363636363636 500.29292929292933 Z" fill-opacity="0.7"/><path fill="none" stroke="black" paint-order="fill stroke markers" d=" M 489.6363636363636 500.29292929292933 L 508.54545454545456 500.29292929292933 L 508.54545454545456 526.4545454545455 L 489.6363636363636 526.4545454545455 L 489.6363636363636 500.29292929292933 Z" stroke-linejoin="bevel" stroke-miterlimit="10"/><path fill="mediumslateblue" stroke="none" paint-order="stroke fill markers" d=" M 508.54545454545456 526.4545454545455 L 527.4545454545454 526.4545454545455 L 527.4545454545454 526.4545454545455 L 508.54545454545456 526.4545454545455 L 508.54545454545456 526.4545454545455 Z" fill-opacity="0.7"/><path fill="none" stroke="black" paint-order="fill stroke markers" d=" M 508.54545454545456 526.4545454545455 L 527.4545454545454 526.4545454545455 L 527.4545454545454 526.4545454545455 L 508.54545454545456 526.4545454545455 L 508.54545454545456 526.4545454545455 Z" stroke-linejoin="bevel" stroke-miterlimit="10"/><path fill="mediumslateblue" stroke="none" paint-order="stroke fill markers" d=" M 527.4545454545454 500.29292929292933 L 546.3636363636364 500.29292929292933 L 546.3636363636364 526.4545454545455 L 527.4545454545454 526.4545454545455 L 527.4545454545454 500.29292929292933 Z" fill-opacity="0.7"/><path fill="none" stroke="black" paint-order="fill stroke markers" d=" M 527.4545454545454 500.29292929292933 L 546.3636363636364 500.29292929292933 L 546.3636363636364 526.4545454545455 L 527.4545454545454 526.4545454545455 L 527.4545454545454 500.29292929292933 Z" stroke-linejoin="bevel" stroke-miterlimit="10"/></g></g></g><g><g fill="#444444"><path fill="none" stroke="black" paint-order="fill stroke markers" d=" M 50 550 L 570 550" stroke-linejoin="bevel" stroke-miterlimit="10"/><path fill="none" stroke="black" paint-order="fill stroke markers" d=" M 73 556 L 73 548" stroke-linejoin="bevel" stroke-miterlimit="10"/><path fill="none" stroke="black" paint-order="fill stroke markers" d=" M 155 556 L 155 548" stroke-linejoin="bevel" stroke-miterlimit="10"/><path fill="none" stroke="black" paint-order="fill stroke markers" d=" M 236 556 L 236 548" stroke-linejoin="bevel" stroke-miterlimit="10"/><path fill="none" stroke="black" paint-order="fill stroke markers" d=" M 318 556 L 318 548" stroke-linejoin="bevel" stroke-miterlimit="10"/><path fill="none" stroke="black" paint-order="fill stroke markers" d=" M 400 556 L 400 548" stroke-linejoin="bevel" stroke-miterlimit="10"/><path fill="none" stroke="black" paint-order="fill stroke markers" d=" M 482 556 L 482 548" stroke-linejoin="bevel" stroke-miterlimit="10"/><path fill="none" stroke="black" paint-order="fill stroke markers" d=" M 564 556 L 564 548" stroke-linejoin="bevel" stroke-miterlimit="10"/><path fill="none" stroke="black" paint-order="fill stroke markers" d=" M 56 554 L 56 550" stroke-linejoin="bevel" stroke-miterlimit="10"/><path fill="none" stroke="black" paint-order="fill stroke markers" d=" M 73 554 L 73 550" stroke-linejoin="bevel" stroke-miterlimit="10"/><path fill="none" stroke="black" paint-order="fill stroke markers" d=" M 89 554 L 89 550" stroke-linejoin="bevel" stroke-miterlimit="10"/><path fill="none" stroke="black" paint-order="fill stroke markers" d=" M 105 554 L 105 550" stroke-linejoin="bevel" stroke-miterlimit="10"/><path fill="none" stroke="black" paint-order="fill stroke markers" d=" M 122 554 L 122 550" stroke-linejoin="bevel" stroke-miterlimit="10"/><path fill="none" stroke="black" paint-order="fill stroke markers" d=" M 138 554 L 138 550" stroke-linejoin="bevel" stroke-miterlimit="10"/><path fill="none" stroke="black" paint-order="fill stroke markers" d=" M 155 554 L 155 550" stroke-linejoin="bevel" stroke-miterlimit="10"/><path fill="none" stroke="black" paint-order="fill stroke markers" d=" M 171 554 L 171 550" stroke-linejoin="bevel" stroke-miterlimit="10"/><path fill="none" stroke="black" paint-order="fill stroke markers" d=" M 187 554 L 187 550" stroke-linejoin="bevel" stroke-miterlimit="10"/><path fill="none" stroke="black" paint-order="fill stroke markers" d=" M 204 554 L 204 550" stroke-linejoin="bevel" stroke-miterlimit="10"/><path fill="none" stroke="black" paint-order="fill stroke markers" d=" M 220 554 L 220 550" stroke-linejoin="bevel" stroke-miterlimit="10"/><path fill="none" stroke="black" paint-order="fill stroke markers" d=" M 236 554 L 236 550" stroke-linejoin="bevel" stroke-miterlimit="10"/><path fill="none" stroke="black" paint-order="fill stroke markers" d=" M 253 554 L 253 550" stroke-linejoin="bevel" stroke-miterlimit="10"/><path fill="none" stroke="black" paint-order="fill stroke markers" d=" M 269 554 L 269 550" stroke-linejoin="bevel" stroke-miterlimit="10"/><path fill="none" stroke="black" paint-order="fill stroke markers" d=" M 286 554 L 286 550" stroke-linejoin="bevel" stroke-miterlimit="10"/><path fill="none" stroke="black" paint-order="fill stroke markers" d=" M 302 554 L 302 550" stroke-linejoin="bevel" stroke-miterlimit="10"/><path fill="none" stroke="black" paint-order="fill stroke markers" d=" M 318 554 L 318 550" stroke-linejoin="bevel" stroke-miterlimit="10"/><path fill="none" stroke="black" paint-order="fill stroke markers" d=" M 335 554 L 335 550" stroke-linejoin="bevel" stroke-miterlimit="10"/><path fill="none" stroke="black" paint-order="fill stroke markers" d=" M 351 554 L 351 550" stroke-linejoin="bevel" stroke-miterlimit="10"/><path fill="none" stroke="black" paint-order="fill stroke markers" d=" M 367 554 L 367 550" stroke-linejoin="bevel" stroke-miterlimit="10"/><path fill="none" stroke="black" paint-order="fill stroke markers" d=" M 384 554 L 384 550" stroke-linejoin="bevel" stroke-miterlimit="10"/><path fill="none" stroke="black" paint-order="fill stroke markers" d=" M 400 554 L 400 550" stroke-linejoin="bevel" stroke-miterlimit="10"/><path fill="none" stroke="black" paint-order="fill stroke markers" d=" M 417 554 L 417 550" stroke-linejoin="bevel" stroke-miterlimit="10"/><path fill="none" stroke="black" paint-order="fill stroke markers" d=" M 433 554 L 433 550" stroke-linejoin="bevel" stroke-miterlimit="10"/><path fill="none" stroke="black" paint-order="fill stroke markers" d=" M 449 554 L 449 550" stroke-linejoin="bevel" stroke-miterlimit="10"/><path fill="none" stroke="black" paint-order="fill stroke markers" d=" M 466 554 L 466 550" stroke-linejoin="bevel" stroke-miterlimit="10"/><path fill="none" stroke="black" paint-order="fill stroke markers" d=" M 482 554 L 482 550" stroke-linejoin="bevel" stroke-miterlimit="10"/><path fill="none" stroke="black" paint-order="fill stroke markers" d=" M 498 554 L 498 550" stroke-linejoin="bevel" stroke-miterlimit="10"/><path fill="none" stroke="black" paint-order="fill stroke markers" d=" M 515 554 L 515 550" stroke-linejoin="bevel" stroke-miterlimit="10"/><path fill="none" stroke="black" paint-order="fill stroke markers" d=" M 531 554 L 531 550" stroke-linejoin="bevel" stroke-miterlimit="10"/><path fill="none" stroke="black" paint-order="fill stroke markers" d=" M 548 554 L 548 550" stroke-linejoin="bevel" stroke-miterlimit="10"/><path fill="" stroke="black" paint-order="fill stroke markers" d=" M 564 554 L 564 550" stroke-linejoin="bevel" stroke-miterlimit="10"/><g transform="translate(73,561) rotate(0,0,0)"><text fill="" stroke="none" font-family="helvetica" font-size="11px" font-style="normal" font-weight="normal" text-decoration="normal" x="0" y="0" text-anchor="middle" dominant-baseline="hanging">0</text><g transform="rotate(0,0,0) translate(-73,-561) translate(155,561)"><text fill="" stroke="none" font-family="helvetica" font-size="11px" font-style="normal" font-weight="normal" text-decoration="normal" x="0" y="0" text-anchor="middle" dominant-baseline="hanging">10000</text><g transform="rotate(0,0,0) translate(-155,-561) translate(236,561)"><text fill="" stroke="none" font-family="helvetica" font-size="11px" font-style="normal" font-weight="normal" text-decoration="normal" x="0" y="0" text-anchor="middle" dominant-baseline="hanging">20000</text><g transform="rotate(0,0,0) translate(-236,-561) translate(318,561)"><text fill="" stroke="none" font-family="helvetica" font-size="11px" font-style="normal" font-weight="normal" text-decoration="normal" x="0" y="0" text-anchor="middle" dominant-baseline="hanging">30000</text><g transform="rotate(0,0,0) translate(-318,-561) translate(400,561)"><text fill="" stroke="none" font-family="helvetica" font-size="11px" font-style="normal" font-weight="normal" text-decoration="normal" x="0" y="0" text-anchor="middle" dominant-baseline="hanging">40000</text><g transform="rotate(0,0,0) translate(-400,-561) translate(482,561)"><text fill="" stroke="none" font-family="helvetica" font-size="11px" font-style="normal" font-weight="normal" text-decoration="normal" x="0" y="0" text-anchor="middle" dominant-baseline="hanging">50000</text><g transform="rotate(0,0,0) translate(-482,-561) translate(564,561)"><text fill="" stroke="none" font-family="helvetica" font-size="11px" font-style="normal" font-weight="normal" text-decoration="normal" x="0" y="0" text-anchor="middle" dominant-baseline="hanging">60000</text><g transform="rotate(0,0,0) translate(-564,-561) translate(310,581)"><text fill="" stroke="none" font-family="helvetica" font-size="13px" font-style="italic" font-weight="normal" text-decoration="normal" x="0" y="0" text-anchor="middle" dominant-baseline="hanging">Readme and description length (# of characters)</text><g transform="rotate(0,0,0) translate(-310,-581)"/></g></g></g></g></g></g></g></g></g></g><g><g fill="#444444"><path fill="none" stroke="black" paint-order="fill stroke markers" d=" M 50 550 L 50 32" stroke-linejoin="bevel" stroke-miterlimit="10"/><path fill="none" stroke="black" paint-order="fill stroke markers" d=" M 44 526 L 52 526" stroke-linejoin="bevel" stroke-miterlimit="10"/><path fill="none" stroke="black" paint-order="fill stroke markers" d=" M 44 396 L 52 396" stroke-linejoin="bevel" stroke-miterlimit="10"/><path fill="none" stroke="black" paint-order="fill stroke markers" d=" M 44 265 L 52 265" stroke-linejoin="bevel" stroke-miterlimit="10"/><path fill="none" stroke="black" paint-order="fill stroke markers" d=" M 44 134 L 52 134" stroke-linejoin="bevel" stroke-miterlimit="10"/><path fill="none" stroke="black" paint-order="fill stroke markers" d=" M 46 526 L 50 526" stroke-linejoin="bevel" stroke-miterlimit="10"/><path fill="none" stroke="black" paint-order="fill stroke markers" d=" M 46 500 L 50 500" stroke-linejoin="bevel" stroke-miterlimit="10"/><path fill="none" stroke="black" paint-order="fill stroke markers" d=" M 46 474 L 50 474" stroke-linejoin="bevel" stroke-miterlimit="10"/><path fill="none" stroke="black" paint-order="fill stroke markers" d=" M 46 448 L 50 448" stroke-linejoin="bevel" stroke-miterlimit="10"/><path fill="none" stroke="black" paint-order="fill stroke markers" d=" M 46 422 L 50 422" stroke-linejoin="bevel" stroke-miterlimit="10"/><path fill="none" stroke="black" paint-order="fill stroke markers" d=" M 46 396 L 50 396" stroke-linejoin="bevel" stroke-miterlimit="10"/><path fill="none" stroke="black" paint-order="fill stroke markers" d=" M 46 369 L 50 369" stroke-linejoin="bevel" stroke-miterlimit="10"/><path fill="none" stroke="black" paint-order="fill stroke markers" d=" M 46 343 L 50 343" stroke-linejoin="bevel" stroke-miterlimit="10"/><path fill="none" stroke="black" paint-order="fill stroke markers" d=" M 46 317 L 50 317" stroke-linejoin="bevel" stroke-miterlimit="10"/><path fill="none" stroke="black" paint-order="fill stroke markers" d=" M 46 291 L 50 291" stroke-linejoin="bevel" stroke-miterlimit="10"/><path fill="none" stroke="black" paint-order="fill stroke markers" d=" M 46 265 L 50 265" stroke-linejoin="bevel" stroke-miterlimit="10"/><path fill="none" stroke="black" paint-order="fill stroke markers" d=" M 46 239 L 50 239" stroke-linejoin="bevel" stroke-miterlimit="10"/><path fill="none" stroke="black" paint-order="fill stroke markers" d=" M 46 213 L 50 213" stroke-linejoin="bevel" stroke-miterlimit="10"/><path fill="none" stroke="black" paint-order="fill stroke markers" d=" M 46 186 L 50 186" stroke-linejoin="bevel" stroke-miterlimit="10"/><path fill="none" stroke="black" paint-order="fill stroke markers" d=" M 46 160 L 50 160" stroke-linejoin="bevel" stroke-miterlimit="10"/><path fill="none" stroke="black" paint-order="fill stroke markers" d=" M 46 134 L 50 134" stroke-linejoin="bevel" stroke-miterlimit="10"/><path fill="none" stroke="black" paint-order="fill stroke markers" d=" M 46 108 L 50 108" stroke-linejoin="bevel" stroke-miterlimit="10"/><path fill="none" stroke="black" paint-order="fill stroke markers" d=" M 46 82 L 50 82" stroke-linejoin="bevel" stroke-miterlimit="10"/><path fill="" stroke="black" paint-order="fill stroke markers" d=" M 46 56 L 50 56" stroke-linejoin="bevel" stroke-miterlimit="10"/><g transform="translate(39,526) rotate(0,0,0)"><text fill="" stroke="none" font-family="helvetica" font-size="11px" font-style="normal" font-weight="normal" text-decoration="normal" x="0" y="0" text-anchor="end" dominant-baseline="central">0</text><g transform="rotate(0,0,0) translate(-39,-526) translate(39,396)"><text fill="" stroke="none" font-family="helvetica" font-size="11px" font-style="normal" font-weight="normal" text-decoration="normal" x="0" y="0" text-anchor="end" dominant-baseline="central">5</text><g transform="rotate(0,0,0) translate(-39,-396) translate(39,265)"><text fill="" stroke="none" font-family="helvetica" font-size="11px" font-style="normal" font-weight="normal" text-decoration="normal" x="0" y="0" text-anchor="end" dominant-baseline="central">10</text><g transform="rotate(0,0,0) translate(-39,-265) translate(39,134)"><text fill="" stroke="none" font-family="helvetica" font-size="11px" font-style="normal" font-weight="normal" text-decoration="normal" x="0" y="0" text-anchor="end" dominant-baseline="central">15</text><g transform="rotate(0,0,0) translate(-39,-134) translate(19,291) rotate(-90,0,0)"><text fill="" stroke="none" font-family="helvetica" font-size="13px" font-style="italic" font-weight="normal" text-decoration="normal" x="0" y="0" text-anchor="middle" dominant-baseline="alphabetic">Number of repositories</text><g transform="rotate(90,0,0) translate(-19,-291)"/></g></g></g></g></g></g></g><g><g fill="#444444"><path fill="" stroke="none" d=""/><g transform="translate(50,27)"><path fill="none" stroke="none"/><text fill="" stroke="none" font-family="helvetica" font-size="13px" font-style="normal" font-weight="bold" text-decoration="normal" x="0" y="0" text-anchor="start" dominant-baseline="text-after-edge">Readme + Description length distribution</text></g></g></g><g/></g></svg>