<svg version="1.1" xmlns="http://www.w3.org/2000/svg" xmlns:xlink="http://www.w3.org/1999/xlink" width="600" height="600"><defs><clipPath id="FQLLDUUhKmbm"><path fill="none" stroke="none" d=" M 50 32 L 570 32 L 570 550 L 50 550 L 50 32 Z"/></clipPath><clipPath id="ULFWMPKtJBZh"><path fill="none" stroke="none" d=" M 50 32 L 570 32 L 570 550 L 50 550 L 50 32 Z"/></clipPath><clipPath id="NvOhVaSFotPz"><path fill="none" stroke="none" d=" M 50 32 L 570 32 L 570 550 L 50 550 L 50 32 Z"/></clipPath></defs><g transform="scale(1,1) translate(0.5,0.5)"><rect fill="#ffffff" stroke="none" x="0" y="0" width="600" height="600"/><rect fill="#FFFFFF" stroke="none" x="50" y="32" width="520" height="518"/><rect fill="#ffffff" stroke="none" x="50" y="32" width="520" height="518"/><g><rect fill="none" stroke="#e5e5e5" x="50" y="32" width="520" height="518" stroke-linejoin="bevel" stroke-miterlimit="10"/></g><g clip-path="url(#FQLLDUUhKmbm)"><g><g><path fill="none" stroke="#e5e5e5" paint-order="fill stroke markers" d=" M 73 550 L 73 32" stroke-linejoin="bevel" stroke-miterlimit="10"/><path fill="none" stroke="#e5e5e5" paint-order="fill stroke markers" d=" M 189 550 L 189 32" stroke-linejoin="bevel" stroke-miterlimit="10"/><path fill="none" stroke="#e5e5e5" paint-order="fill stroke markers" d=" M 305 550 L 305 32" stroke-linejoin="bevel" stroke-miterlimit="10"/><path fill="none" stroke="#e5e5e5" paint-order="fill stroke markers" d=" M 421 550 L 421 32" stroke-linejoin="bevel" stroke-miterlimit="10"/><path fill="none" stroke="#e5e5e5" paint-order="fill stroke markers" d=" M 537 550 L 537 32" stroke-linejoin="bevel" stroke-miterlimit="10"/></g></g></g><g clip-path="url(#ULFWMPKtJBZh)"><g><g><path fill="none" stroke="#e5e5e5" paint-order="fill stroke markers" d=" M 50 526 L 570 526" stroke-linejoin="bevel" stroke-miterlimit="10"/><path fill="none" stroke="#e5e5e5" paint-order="fill stroke markers" d=" M 50 409 L 570 409" stroke-linejoin="bevel" stroke-miterlimit="10"/><path fill="none" stroke="#e5e5e5" paint-order="fill stroke markers" d=" M 50 291 L 570 291" stroke-linejoin="bevel" stroke-miterlimit="10"/><path fill="none" stroke="#e5e5e5" paint-order="fill stroke markers" d=" M 50 173 L 570 173" stroke-linejoin="bevel" stroke-miterlimit="10"/><path fill="none" stroke="#e5e5e5" paint-order="fill stroke markers" d=" M 50 56 L 570 56" stroke-linejoin="bevel" stroke-miterlimit="10"/></g></g></g><g clip-path="url(#NvOhVaSFotPz)"><g><g><path fill="none" stroke="none"/><path fill="mediumslateblue" stroke="none" paint-order="stroke fill markers" d=" M 73.63636363636365 55.54545454545456 L 92.54545454545456 55.54545454545456 L 92.54545454545456 526.4545454545455 L 73.63636363636365 526.4545454545455 L 73.63636363636365 55.54545454545456 Z" fill-opacity="0.7"/><path fill="none" stroke="black" paint-order="fill stroke markers" d=" M 73.63636363636365 55.54545454545456 L 92.54545454545456 55.54545454545456 L 92.54545454545456 526.4545454545455 L 73.63636363636365 526.4545454545455 L 73.63636363636365 55.54545454545456 Z" stroke-linejoin="bevel" stroke-miterlimit="10"/><path fill="mediumslateblue" stroke="none" paint-order="stroke fill markers" d=" M 92.54545454545456 432.2727272727273 L 111.45454545454547 432.2727272727273 L 111.45454545454547 526.4545454545455 L 92.54545454545456 526.4545454545455 L 92.54545454545456 432.2727272727273 Z" fill-opacity="0.7"/><path fill="none" stroke="black" paint-order="fill stroke markers" d=" M 92.54545454545456 432.2727272727273 L 111.45454545454547 432.2727272727273 L 111.45454545454547 526.4545454545455 L 92.54545454545456 526.4545454545455 L 92.54545454545456 432.2727272727273 Z" stroke-linejoin="bevel" stroke-miterlimit="10"/><path fill="mediumslateblue" stroke="none" paint-order="stroke fill markers" d=" M 111.45454545454547 291 L 130.36363636363637 291 L 130.36363636363637 526.4545454545455 L 111.45454545454547 526.4545454545455 L 111.45454545454547 291 Z" fill-opacity="0.7"/><path fill="none" stroke="black" paint-order="fill stroke markers" d=" M 111.45454545454547 291 L 130.36363636363637 291 L 130.36363636363637 526.4545454545455 L 111.45454545454547 526.4545454545455 L 111.45454545454547 291 Z" stroke-linejoin="bevel" stroke-miterlimit="10"/><path fill="mediumslateblue" stroke="none" paint-order="stroke fill markers" d=" M 130.36363636363637 432.2727272727273 L 149.27272727272728 432.2727272727273 L 149.27272727272728 526.4545454545455 L 130.36363636363637 526.4545454545455 L 130.36363636363637 432.2727272727273 Z" fill-opacity="0.7"/><path fill="none" stroke="black" paint-order="fill stroke markers" d=" M 130.36363636363637 432.2727272727273 L 149.27272727272728 432.2727272727273 L 149.27272727272728 526.4545454545455 L 130.36363636363637 526.4545454545455 L 130.36363636363637 432.2727272727273 Z" stroke-linejoin="bevel" stroke-miterlimit="10"/><path fill="mediumslateblue" stroke="none" paint-order="stroke fill markers" d=" M 149.27272727272728 432.2727272727273 L 168.1818181818182 432.2727272727273 L 168.1818181818182 526.4545454545455 L 149.27272727272728 526.4545454545455 L 149.27272727272728 432.2727272727273 Z" fill-opacity="0.7"/><path fill="none" stroke="black" paint-order="fill stroke markers" d=" M 149.27272727272728 432.2727272727273 L 168.1818181818182 432.2727272727273 L 168.1818181818182 526.4545454545455 L 149.27272727272728 526.4545454545455 L 149.27272727272728 432.2727272727273 Z" stroke-linejoin="bevel" stroke-miterlimit="10"/><path fill="mediumslateblue" stroke="none" paint-order="stroke fill markers" d=" M 168.1818181818182 479.3636363636364 L 187.09090909090907 479.3636363636364 L 187.09090909090907 526.4545454545455 L 168.1818181818182 526.4545454545455 L 168.1818181818182 479.3636363636364 Z" fill-opacity="0.7"/><path fill="none" stroke="black" paint-order="fill stroke markers" d=" M 168.1818181818182 479.3636363636364 L 187.09090909090907 479.3636363636364 L 187.09090909090907 526.4545454545455 L 168.1818181818182 526.4545454545455 L 168.1818181818182 479.3636363636364 Z" stroke-linejoin="bevel" stroke-miterlimit="10"/><path fill="mediumslateblue" stroke="none" paint-order="stroke fill markers" d=" M 187.09090909090907 502.90909090909093 L 206 502.90909090909093 L 206 526.4545454545455 L 187.09090909090907 526.4545454545455 L 187.09090909090907 502.90909090909093 Z" fill-opacity="0.7"/><path fill="none" stroke="black" paint-order="fill stroke markers" d=" M 187.09090909090907 502.90909090909093 L 206 502.90909090909093 L 206 526.4545454545455 L 187.09090909090907 526.4545454545455 L 187.09090909090907 502.90909090909093 Z" stroke-linejoin="bevel" stroke-miterlimit="10"/><path fill="mediumslateblue" stroke="none" paint-order="stroke fill markers" d=" M 206 502.90909090909093 L 224.9090909090909 502.90909090909093 L 224.9090909090909 526.4545454545455 L 206 526.4545454545455 L 206 502.90909090909093 Z" fill-opacity="0.7"/><path fill="none" stroke="black" paint-order="fill stroke markers" d=" M 206 502.90909090909093 L 224.9090909090909 502.90909090909093 L 224.9090909090909 526.4545454545455 L 206 526.4545454545455 L 206 502.90909090909093 Z" stroke-linejoin="bevel" stroke-miterlimit="10"/><path fill="mediumslateblue" stroke="none" paint-order="stroke fill markers" d=" M 224.9090909090909 526.4545454545455 L 243.8181818181818 526.4545454545455 L 243.8181818181818 526.4545454545455 L 224.9090909090909 526.4545454545455 L 224.9090909090909 526.4545454545455 Z" fill-opacity="0.7"/><path fill="none" stroke="black" paint-order="fill stroke markers" d=" M 224.9090909090909 526.4545454545455 L 243.8181818181818 526.4545454545455 L 243.8181818181818 526.4545454545455 L 224.9090909090909 526.4545454545455 L 224.9090909090909 526.4545454545455 Z" stroke-linejoin="bevel" stroke-miterlimit="10"/><path fill="mediumslateblue" stroke="none" paint-order="stroke fill markers" d=" M 243.8181818181818 502.90909090909093 L 262.72727272727275 502.90909090909093 L 262.72727272727275 526.4545454545455 L 243.8181818181818 526.4545454545455 L 243.8181818181818 502.90909090909093 Z" fill-opacity="0.7"/><path fill="none" stroke="black" paint-order="fill stroke markers" d=" M 243.8181818181818 502.90909090909093 L 262.72727272727275 502.90909090909093 L 262.72727272727275 526.4545454545455 L 243.8181818181818 526.4545454545455 L 243.8181818181818 502.90909090909093 Z" stroke-linejoin="bevel" stroke-miterlimit="10"/><path fill="mediumslateblue" stroke="none" paint-order="stroke fill markers" d=" M 262.72727272727275 502.90909090909093 L 281.6363636363636 502.90909090909093 L 281.6363636363636 526.4545454545455 L 262.72727272727275 526.4545454545455 L 262.72727272727275 502.90909090909093 Z" fill-opacity="0.7"/><path fill="none" stroke="black" paint-order="fill stroke markers" d=" M 262.72727272727275 502.90909090909093 L 281.6363636363636 502.90909090909093 L 281.6363636363636 526.4545454545455 L 262.72727272727275 526.4545454545455 L 262.72727272727275 502.90909090909093 Z" stroke-linejoin="bevel" stroke-miterlimit="10"/><path fill="mediumslateblue" stroke="none" paint-order="stroke fill markers" d=" M 281.6363636363636 502.90909090909093 L 300.5454545454545 502.90909090909093 L 300.5454545454545 526.4545454545455 L 281.6363636363636 526.4545454545455 L 281.6363636363636 502.90909090909093 Z" fill-opacity="0.7"/><path fill="none" stroke="black" paint-order="fill stroke markers" d=" M 281.6363636363636 502.90909090909093 L 300.5454545454545 502.90909090909093 L 300.5454545454545 526.4545454545455 L 281.6363636363636 526.4545454545455 L 281.6363636363636 502.90909090909093 Z" stroke-linejoin="bevel" stroke-miterlimit="10"/><path fill="mediumslateblue" stroke="none" paint-order="stroke fill markers" d=" M 300.5454545454545 526.4545454545455 L 319.4545454545454 526.4545454545455 L 319.4545454545454 526.4545454545455 L 300.5454545454545 526.4545454545455 L 300.5454545454545 526.4545454545455 Z" fill-opacity="0.7"/><path fill="none" stroke="black" paint-order="fill stroke markers" d=" M 300.5454545454545 526.4545454545455 L 319.4545454545454 526.4545454545455 L 319.4545454545454 526.4545454545455 L 300.5454545454545 526.4545454545455 L 300.5454545454545 526.4545454545455 Z" stroke-linejoin="bevel" stroke-miterlimit="10"/><path fill="mediumslateblue" stroke="none" paint-order="stroke fill markers" d=" M 319.4545454545454 526.4545454545455 L 338.3636363636364 526.4545454545455 L 338.3636363636364 526.4545454545455 L 319.4545454545454 526.4545454545455 L 319.4545454545454 526.4545454545455 Z" fill-opacity="0.7"/><path fill="none" stroke="black" paint-order="fill stroke markers" d=" M 319.4545454545454 526.4545454545455 L 338.3636363636364 526.4545454545455 L 338.3636363636364 526.4545454545455 L 319.4545454545454 526.4545454545455 L 319.4545454545454 526.4545454545455 Z" stroke-linejoin="bevel" stroke-miterlimit="10"/><path fill="mediumslateblue" stroke="none" paint-order="stroke fill markers" d=" M 338.3636363636364 526.4545454545455 L 357.27272727272725 526.4545454545455 L 357.27272727272725 526.4545454545455 L 338.3636363636364 526.4545454545455 L 338.3636363636364 526.4545454545455 Z" fill-opacity="0.7"/><path fill="none" stroke="black" paint-order="fill stroke markers" d=" M 338.3636363636364 526.4545454545455 L 357.27272727272725 526.4545454545455 L 357.27272727272725 526.4545454545455 L 338.3636363636364 526.4545454545455 L 338.3636363636364 526.4545454545455 Z" stroke-linejoin="bevel" stroke-miterlimit="10"/><path fill="mediumslateblue" stroke="none" paint-order="stroke fill markers" d=" M 357.27272727272725 526.4545454545455 L 376.18181818181813 526.4545454545455 L 376.18181818181813 526.4545454545455 L 357.27272727272725 526.4545454545455 L 357.27272727272725 526.4545454545455 Z" fill-opacity="0.7"/><path fill="none" stroke="black" paint-order="fill stroke markers" d=" M 357.27272727272725 526.4545454545455 L 376.18181818181813 526.4545454545455 L 376.18181818181813 526.4545454545455 L 357.27272727272725 526.4545454545455 L 357.27272727272725 526.4545454545455 Z" stroke-linejoin="bevel" stroke-miterlimit="10"/><path fill="mediumslateblue" stroke="none" paint-order="stroke fill markers" d=" M 376.18181818181813 526.4545454545455 L 395.090909090909 526.4545454545455 L 395.090909090909 526.4545454545455 L 376.18181818181813 526.4545454545455 L 376.18181818181813 526.4545454545455 Z" fill-opacity="0.7"/><path fill="none" stroke="black" paint-order="fill stroke markers" d=" M 376.18181818181813 526.4545454545455 L 395.090909090909 526.4545454545455 L 395.090909090909 526.4545454545455 L 376.18181818181813 526.4545454545455 L 376.18181818181813 526.4545454545455 Z" stroke-linejoin="bevel" stroke-miterlimit="10"/><path fill="mediumslateblue" stroke="none" paint-order="stroke fill markers" d=" M 395.090909090909 526.4545454545455 L 414 526.4545454545455 L 414 526.4545454545455 L 395.090909090909 526.4545454545455 L 395.090909090909 526.4545454545455 Z" fill-opacity="0.7"/><path fill="none" stroke="black" paint-order="fill stroke markers" d=" M 395.090909090909 526.4545454545455 L 414 526.4545454545455 L 414 526.4545454545455 L 395.090909090909 526.4545454545455 L 395.090909090909 526.4545454545455 Z" stroke-linejoin="bevel" stroke-miterlimit="10"/><path fill="mediumslateblue" stroke="none" paint-order="stroke fill markers" d=" M 414 526.4545454545455 L 432.9090909090909 526.4545454545455 L 432.9090909090909 526.4545454545455 L 414 526.4545454545455 L 414 526.4545454545455 Z" fill-opacity="0.7"/><path fill="none" stroke="black" paint-order="fill stroke markers" d=" M 414 526.4545454545455 L 432.9090909090909 526.4545454545455 L 432.9090909090909 526.4545454545455 L 414 526.4545454545455 L 414 526.4545454545455 Z" stroke-linejoin="bevel" stroke-miterlimit="10"/><path fill="mediumslateblue" stroke="none" paint-order="stroke fill markers" d=" M 432.9090909090909 526.4545454545455 L 451.81818181818176 526.4545454545455 L 451.81818181818176 526.4545454545455 L 432.9090909090909 526.4545454545455 L 432.9090909090909 526.4545454545455 Z" fill-opacity="0.7"/><path fill="none" stroke="black" paint-order="fill stroke markers" d=" M 432.9090909090909 526.4545454545455 L 451.81818181818176 526.4545454545455 L 451.81818181818176 526.4545454545455 L 432.9090909090909 526.4545454545455 L 432.9090909090909 526.4545454545455 Z" stroke-linejoin="bevel" stroke-miterlimit="10"/><path fill="mediumslateblue" stroke="none" paint-order="stroke fill markers" d=" M 451.81818181818176 526.4545454545455 L 470.72727272727263 526.4545454545455 L 470.72727272727263 526.4545454545455 L 451.81818181818176 526.4545454545455 L 451.81818181818176 526.4545454545455 Z" fill-opacity="0.7"/><path fill="none" stroke="black" paint-order="fill stroke markers" d=" M 451.81818181818176 526.4545454545455 L 470.72727272727263 526.4545454545455 L 470.72727272727263 526.4545454545455 L 451.81818181818176 526.4545454545455 L 451.81818181818176 526.4545454545455 Z" stroke-linejoin="bevel" stroke-miterlimit="10"/><path fill="mediumslateblue" stroke="none" paint-order="stroke fill markers" d=" M 470.72727272727263 526.4545454545455 L 489.6363636363635 526.4545454545455 L 489.6363636363635 526.4545454545455 L 470.72727272727263 526.4545454545455 L 470.72727272727263 526.4545454545455 Z" fill-opacity="0.7"/><path fill="none" stroke="black" paint-order="fill stroke markers" d=" M 470.72727272727263 526.4545454545455 L 489.6363636363635 526.4545454545455 L 489.6363636363635 526.4545454545455 L 470.72727272727263 526.4545454545455 L 470.72727272727263 526.4545454545455 Z" stroke-linejoin="bevel" stroke-miterlimit="10"/><path fill="mediumslateblue" stroke="none" paint-order="stroke fill markers" d=" M 489.6363636363635 526.4545454545455 L 508.5454545454545 526.4545454545455 L 508.5454545454545 526.4545454545455 L 489.6363636363635 526.4545454545455 L 489.6363636363635 526.4545454545455 Z" fill-opacity="0.7"/><path fill="none" stroke="black" paint-order="fill stroke markers" d=" M 489.6363636363635 526.4545454545455 L 508.5454545454545 526.4545454545455 L 508.5454545454545 526.4545454545455 L 489.6363636363635 526.4545454545455 L 489.6363636363635 526.4545454545455 Z" stroke-linejoin="bevel" stroke-miterlimit="10"/><path fill="mediumslateblue" stroke="none" paint-order="stroke fill markers" d=" M 508.5454545454545 526.4545454545455 L 527.4545454545454 526.4545454545455 L 527.4545454545454 526.4545454545455 L 508.5454545454545 526.4545454545455 L 508.5454545454545 526.4545454545455 Z" fill-opacity="0.7"/><path fill="none" stroke="black" paint-order="fill stroke markers" d=" M 508.5454545454545 526.4545454545455 L 527.4545454545454 526.4545454545455 L 527.4545454545454 526.4545454545455 L 508.5454545454545 526.4545454545455 L 508.5454545454545 526.4545454545455 Z" stroke-linejoin="bevel" stroke-miterlimit="10"/><path fill="mediumslateblue" stroke="none" paint-order="stroke fill markers" d=" M 527.4545454545454 502.90909090909093 L 546.3636363636363 502.90909090909093 L 546.3636363636363 526.4545454545455 L 527.4545454545454 526.4545454545455 L 527.4545454545454 502.90909090909093 Z" fill-opacity="0.7"/><path fill="none" stroke="black" paint-order="fill stroke markers" d=" M 527.4545454545454 502.90909090909093 L 546.3636363636363 502.90909090909093 L 546.3636363636363 526.4545454545455 L 527.4545454545454 526.4545454545455 L 527.4545454545454 502.90909090909093 Z" stroke-linejoin="bevel" stroke-miterlimit="10"/></g></g></g><g><g fill="#444444"><path fill="none" stroke="black" paint-order="fill stroke markers" d=" M 50 550 L 570 550" stroke-linejoin="bevel" stroke-miterlimit="10"/><path fill="none" stroke="black" paint-order="fill stroke markers" d=" M 73 556 L 73 548" stroke-linejoin="bevel" stroke-miterlimit="10"/><path fill="none" stroke="black" paint-order="fill stroke markers" d=" M 189 556 L 189 548" stroke-linejoin="bevel" stroke-miterlimit="10"/><path fill="none" stroke="black" paint-order="fill stroke markers" d=" M 305 556 L 305 548" stroke-linejoin="bevel" stroke-miterlimit="10"/><path fill="none" stroke="black" paint-order="fill stroke markers" d=" M 421 556 L 421 548" stroke-linejoin="bevel" stroke-miterlimit="10"/><path fill="none" stroke="black" paint-order="fill stroke markers" d=" M 537 556 L 537 548" stroke-linejoin="bevel" stroke-miterlimit="10"/><path fill="none" stroke="black" paint-order="fill stroke markers" d=" M 50 554 L 50 550" stroke-linejoin="bevel" stroke-miterlimit="10"/><path fill="none" stroke="black" paint-order="fill stroke markers" d=" M 73 554 L 73 550" stroke-linejoin="bevel" stroke-miterlimit="10"/><path fill="none" stroke="black" paint-order="fill stroke markers" d=" M 97 554 L 97 550" stroke-linejoin="bevel" stroke-miterlimit="10"/><path fill="none" stroke="black" paint-order="fill stroke markers" d=" M 120 554 L 120 550" stroke-linejoin="bevel" stroke-miterlimit="10"/><path fill="none" stroke="black" paint-order="fill stroke markers" d=" M 143 554 L 143 550" stroke-linejoin="bevel" stroke-miterlimit="10"/><path fill="none" stroke="black" paint-order="fill stroke markers" d=" M 166 554 L 166 550" stroke-linejoin="bevel" stroke-miterlimit="10"/><path fill="none" stroke="black" paint-order="fill stroke markers" d=" M 189 554 L 189 550" stroke-linejoin="bevel" stroke-miterlimit="10"/><path fill="none" stroke="black" paint-order="fill stroke markers" d=" M 213 554 L 213 550" stroke-linejoin="bevel" stroke-miterlimit="10"/><path fill="none" stroke="black" paint-order="fill stroke markers" d=" M 236 554 L 236 550" stroke-linejoin="bevel" stroke-miterlimit="10"/><path fill="none" stroke="black" paint-order="fill stroke markers" d=" M 259 554 L 259 550" stroke-linejoin="bevel" stroke-miterlimit="10"/><path fill="none" stroke="black" paint-order="fill stroke markers" d=" M 282 554 L 282 550" stroke-linejoin="bevel" stroke-miterlimit="10"/><path fill="none" stroke="black" paint-order="fill stroke markers" d=" M 305 554 L 305 550" stroke-linejoin="bevel" stroke-miterlimit="10"/><path fill="none" stroke="black" paint-order="fill stroke markers" d=" M 329 554 L 329 550" stroke-linejoin="bevel" stroke-miterlimit="10"/><path fill="none" stroke="black" paint-order="fill stroke markers" d=" M 352 554 L 352 550" stroke-linejoin="bevel" stroke-miterlimit="10"/><path fill="none" stroke="black" paint-order="fill stroke markers" d=" M 375 554 L 375 550" stroke-linejoin="bevel" stroke-miterlimit="10"/><path fill="none" stroke="black" paint-order="fill stroke markers" d=" M 398 554 L 398 550" stroke-linejoin="bevel" stroke-miterlimit="10"/><path fill="none" stroke="black" paint-order="fill stroke markers" d=" M 421 554 L 421 550" stroke-linejoin="bevel" stroke-miterlimit="10"/><path fill="none" stroke="black" paint-order="fill stroke markers" d=" M 445 554 L 445 550" stroke-linejoin="bevel" stroke-miterlimit="10"/><path fill="none" stroke="black" paint-order="fill stroke markers" d=" M 468 554 L 468 550" stroke-linejoin="bevel" stroke-miterlimit="10"/><path fill="none" stroke="black" paint-order="fill stroke markers" d=" M 491 554 L 491 550" stroke-linejoin="bevel" stroke-miterlimit="10"/><path fill="none" stroke="black" paint-order="fill stroke markers" d=" M 514 554 L 514 550" stroke-linejoin="bevel" stroke-miterlimit="10"/><path fill="none" stroke="black" paint-order="fill stroke markers" d=" M 537 554 L 537 550" stroke-linejoin="bevel" stroke-miterlimit="10"/><path fill="" stroke="black" paint-order="fill stroke markers" d=" M 561 554 L 561 550" stroke-linejoin="bevel" stroke-miterlimit="10"/><g transform="translate(73,561) rotate(0,0,0)"><text fill="" stroke="none" font-family="helvetica" font-size="11px" font-style="normal" font-weight="normal" text-decoration="normal" x="0" y="0" text-anchor="middle" dominant-baseline="hanging">0</text><g transform="rotate(0,0,0) translate(-73,-561) translate(189,561)"><text fill="" stroke="none" font-family="helvetica" font-size="11px" font-style="normal" font-weight="normal" text-decoration="normal" x="0" y="0" text-anchor="middle" dominant-baseline="hanging">5000</text><g transform="rotate(0,0,0) translate(-189,-561) translate(305,561)"><text fill="" stroke="none" font-family="helvetica" font-size="11px" font-style="normal" font-weight="normal" text-decoration="normal" x="0" y="0" text-anchor="middle" dominant-baseline="hanging">10000</text><g transform="rotate(0,0,0) translate(-305,-561) translate(421,561)"><text fill="" stroke="none" font-family="helvetica" font-size="11px" font-style="normal" font-weight="normal" text-decoration="normal" x="0" y="0" text-anchor="middle" dominant-baseline="hanging">15000</text><g transform="rotate(0,0,0) translate(-421,-561) translate(537,561)"><text fill="" stroke="none" font-family="helvetica" font-size="11px" font-style="normal" font-weight="normal" text-decoration="normal" x="0" y="0" text-anchor="middle" dominant-baseline="hanging">20000</text><g transform="rotate(0,0,0) translate(-537,-561) translate(310,581)"><text fill="" stroke="none" font-family="helvetica" font-size="13px" font-style="italic" font-weight="normal" text-decoration="normal" x="0" y="0" text-anchor="middle" dominant-baseline="hanging">Readme and description length (# of characters)</text><g transform="rotate(0,0,0) translate(-310,-581)"/></g></g></g></g></g></g></g></g><g><g fill="#444444"><path fill="none" stroke="black" paint-order="fill stroke markers" d=" M 50 550 L 50 32" stroke-linejoin="bevel" stroke-miterlimit="10"/><path fill="none" stroke="black" paint-order="fill stroke markers" d=" M 44 526 L 52 526" stroke-linejoin="bevel" stroke-miterlimit="10"/><path fill="none" stroke="black" paint-order="fill stroke markers" d=" M 44 409 L 52 409" stroke-linejoin="bevel" stroke-miterlimit="10"/><path fill="none" stroke="black" paint-order="fill stroke markers" d=" M 44 291 L 52 291" stroke-linejoin="bevel" stroke-miterlimit="10"/><path fill="none" stroke="black" paint-order="fill stroke markers" d=" M 44 173 L 52 173" stroke-linejoin="bevel" stroke-miterlimit="10"/><path fill="none" stroke="black" paint-order="fill stroke markers" d=" M 44 56 L 52 56" stroke-linejoin="bevel" stroke-miterlimit="10"/><path fill="none" stroke="black" paint-order="fill stroke markers" d=" M 46 550 L 50 550" stroke-linejoin="bevel" stroke-miterlimit="10"/><path fill="none" stroke="black" paint-order="fill stroke markers" d=" M 46 526 L 50 526" stroke-linejoin="bevel" stroke-miterlimit="10"/><path fill="none" stroke="black" paint-order="fill stroke markers" d=" M 46 503 L 50 503" stroke-linejoin="bevel" stroke-miterlimit="10"/><path fill="none" stroke="black" paint-order="fill stroke markers" d=" M 46 479 L 50 479" stroke-linejoin="bevel" stroke-miterlimit="10"/><path fill="none" stroke="black" paint-order="fill stroke markers" d=" M 46 456 L 50 456" stroke-linejoin="bevel" stroke-miterlimit="10"/><path fill="none" stroke="black" paint-order="fill stroke markers" d=" M 46 432 L 50 432" stroke-linejoin="bevel" stroke-miterlimit="10"/><path fill="none" stroke="black" paint-order="fill stroke markers" d=" M 46 409 L 50 409" stroke-linejoin="bevel" stroke-miterlimit="10"/><path fill="none" stroke="black" paint-order="fill stroke markers" d=" M 46 385 L 50 385" stroke-linejoin="bevel" stroke-miterlimit="10"/><path fill="none" stroke="black" paint-order="fill stroke markers" d=" M 46 362 L 50 362" stroke-linejoin="bevel" stroke-miterlimit="10"/><path fill="none" stroke="black" paint-order="fill stroke markers" d=" M 46 338 L 50 338" stroke-linejoin="bevel" stroke-miterlimit="10"/><path fill="none" stroke="black" paint-order="fill stroke markers" d=" M 46 315 L 50 315" stroke-linejoin="bevel" stroke-miterlimit="10"/><path fill="none" stroke="black" paint-order="fill stroke markers" d=" M 46 291 L 50 291" stroke-linejoin="bevel" stroke-miterlimit="10"/><path fill="none" stroke="black" paint-order="fill stroke markers" d=" M 46 267 L 50 267" stroke-linejoin="bevel" stroke-miterlimit="10"/><path fill="none" stroke="black" paint-order="fill stroke markers" d=" M 46 244 L 50 244" stroke-linejoin="bevel" stroke-miterlimit="10"/><path fill="none" stroke="black" paint-order="fill stroke markers" d=" M 46 220 L 50 220" stroke-linejoin="bevel" stroke-miterlimit="10"/><path fill="none" stroke="black" paint-order="fill stroke markers" d=" M 46 197 L 50 197" stroke-linejoin="bevel" stroke-miterlimit="10"/><path fill="none" stroke="black" paint-order="fill stroke markers" d=" M 46 173 L 50 173" stroke-linejoin="bevel" stroke-miterlimit="10"/><path fill="none" stroke="black" paint-order="fill stroke markers" d=" M 46 150 L 50 150" stroke-linejoin="bevel" stroke-miterlimit="10"/><path fill="none" stroke="black" paint-order="fill stroke markers" d=" M 46 126 L 50 126" stroke-linejoin="bevel" stroke-miterlimit="10"/><path fill="none" stroke="black" paint-order="fill stroke markers" d=" M 46 103 L 50 103" stroke-linejoin="bevel" stroke-miterlimit="10"/><path fill="none" stroke="black" paint-order="fill stroke markers" d=" M 46 79 L 50 79" stroke-linejoin="bevel" stroke-miterlimit="10"/><path fill="none" stroke="black" paint-order="fill stroke markers" d=" M 46 56 L 50 56" stroke-linejoin="bevel" stroke-miterlimit="10"/><path fill="" stroke="black" paint-order="fill stroke markers" d=" M 46 32 L 50 32" stroke-linejoin="bevel" stroke-miterlimit="10"/><g transform="translate(39,526) rotate(0,0,0)"><text fill="" stroke="none" font-family="helvetica" font-size="11px" font-style="normal" font-weight="normal" text-decoration="normal" x="0" y="0" text-anchor="end" dominant-baseline="central">0</text><g transform="rotate(0,0,0) translate(-39,-526) translate(39,409)"><text fill="" stroke="none" font-family="helvetica" font-size="11px" font-style="normal" font-weight="normal" text-decoration="normal" x="0" y="0" text-anchor="end" dominant-baseline="central">5</text><g transform="rotate(0,0,0) translate(-39,-409) translate(39,291)"><text fill="" stroke="none" font-family="helvetica" font-size="11px" font-style="normal" font-weight="normal" text-decoration="normal" x="0" y="0" text-anchor="end" dominant-baseline="central">10</text><g transform="rotate(0,0,0) translate(-39,-291) translate(39,173)"><text fill="" stroke="none" font-family="helvetica" font-size="11px" font-style="normal" font-weight="normal" text-decoration="normal" x="0" y="0" text-anchor="end" dominant-baseline="central">15</text><g transform="rotate(0,0,0) translate(-39,-173) translate(39,56)"><text fill="" stroke="none" font-family="helvetica" font-size="11px" font-style="normal" font-weight="normal" text-decoration="normal" x="0" y="0" text-anchor="end" dominant-baseline="central">20</text><g transform="rotate(0,0,0) translate(-39,-56) translate(19,291) rotate(-90,0,0)"><text fill="" stroke="none" font-family="helvetica" font-size="13px" font-style="italic" font-weight="normal" text-decoration="normal" x="0" y="0" text-anchor="middle" dominant-baseline="alphabetic">Number of repositories</text><g transform="rotate(90,0,0) translate(-19,-291)"/></g></g></g></g></g></g></g></g><g><g fill="#444444"><path fill="" stroke="none" d=""/><g transform="translate(50,27)"><path fill="none" stroke="none"/><text fill="" stroke="none" font-family="helvetica" font-size="13px" font-style="normal" font-weight="bold" text-decoration="normal" x="0" y="0" text-anchor="start" dominant-baseline="text-after-edge">Readme + Description length distribution</text></g></g></g><g/></g></svg>