<svg version="1.1" xmlns="http://www.w3.org/2000/svg" xmlns:xlink="http://www.w3.org/1999/xlink" width="600" height="600"><defs><clipPath id="upRRvwbgDano"><path fill="none" stroke="none" d=" M 50 32 L 570 32 L 570 550 L 50 550 L 50 32 Z"/></clipPath><clipPath id="XnNcPHTvomya"><path fill="none" stroke="none" d=" M 50 32 L 570 32 L 570 550 L 50 550 L 50 32 Z"/></clipPath><clipPath id="SJomBfxBvTsp"><path fill="none" stroke="none" d=" M 50 32 L 570 32 L 570 550 L 50 550 L 50 32 Z"/></clipPath></defs><g transform="scale(1,1) translate(0.5,0.5)"><rect fill="#ffffff" stroke="none" x="0" y="0" width="600" height="600"/><rect fill="#FFFFFF" stroke="none" x="50" y="32" width="520" height="518"/><rect fill="#ffffff" stroke="none" x="50" y="32" width="520" height="518"/><g><rect fill="none" stroke="#e5e5e5" x="50" y="32" width="520" height="518" stroke-linejoin="bevel" stroke-miterlimit="10"/></g><g clip-path="url(#upRRvwbgDano)"><g><g><path fill="none" stroke="#e5e5e5" paint-order="fill stroke markers" d=" M 73 550 L 73 32" stroke-linejoin="bevel" stroke-miterlimit="10"/><path fill="none" stroke="#e5e5e5" paint-order="fill stroke markers" d=" M 196 550 L 196 32" stroke-linejoin="bevel" stroke-miterlimit="10"/><path fill="none" stroke="#e5e5e5" paint-order="fill stroke markers" d=" M 318 550 L 318 32" stroke-linejoin="bevel" stroke-miterlimit="10"/><path fill="none" stroke="#e5e5e5" paint-order="fill stroke markers" d=" M 441 550 L 441 32" stroke-linejoin="bevel" stroke-miterlimit="10"/><path fill="none" stroke="#e5e5e5" paint-order="fill stroke markers" d=" M 563 550 L 563 32" stroke-linejoin="bevel" stroke-miterlimit="10"/></g></g></g><g clip-path="url(#XnNcPHTvomya)"><g><g><path fill="none" stroke="#e5e5e5" paint-order="fill stroke markers" d=" M 50 526 L 570 526" stroke-linejoin="bevel" stroke-miterlimit="10"/><path fill="none" stroke="#e5e5e5" paint-order="fill stroke markers" d=" M 50 403 L 570 403" stroke-linejoin="bevel" stroke-miterlimit="10"/><path fill="none" stroke="#e5e5e5" paint-order="fill stroke markers" d=" M 50 279 L 570 279" stroke-linejoin="bevel" stroke-miterlimit="10"/><path fill="none" stroke="#e5e5e5" paint-order="fill stroke markers" d=" M 50 155 L 570 155" stroke-linejoin="bevel" stroke-miterlimit="10"/></g></g></g><g clip-path="url(#SJomBfxBvTsp)"><g><g><path fill="none" stroke="none"/><path fill="mediumslateblue" stroke="none" paint-order="stroke fill markers" d=" M 73.63636363636364 55.54545454545462 L 92.54545454545455 55.54545454545462 L 92.54545454545455 526.4545454545454 L 73.63636363636364 526.4545454545454 L 73.63636363636364 55.54545454545462 Z" fill-opacity="0.7"/><path fill="none" stroke="black" paint-order="fill stroke markers" d=" M 73.63636363636364 55.54545454545462 L 92.54545454545455 55.54545454545462 L 92.54545454545455 526.4545454545454 L 73.63636363636364 526.4545454545454 L 73.63636363636364 55.54545454545462 Z" stroke-linejoin="bevel" stroke-miterlimit="10"/><path fill="mediumslateblue" stroke="none" paint-order="stroke fill markers" d=" M 92.54545454545455 402.53110047846883 L 111.45454545454547 402.53110047846883 L 111.45454545454547 526.4545454545454 L 92.54545454545455 526.4545454545454 L 92.54545454545455 402.53110047846883 Z" fill-opacity="0.7"/><path fill="none" stroke="black" paint-order="fill stroke markers" d=" M 92.54545454545455 402.53110047846883 L 111.45454545454547 402.53110047846883 L 111.45454545454547 526.4545454545454 L 92.54545454545455 526.4545454545454 L 92.54545454545455 402.53110047846883 Z" stroke-linejoin="bevel" stroke-miterlimit="10"/><path fill="mediumslateblue" stroke="none" paint-order="stroke fill markers" d=" M 111.45454545454547 278.60765550239233 L 130.36363636363637 278.60765550239233 L 130.36363636363637 526.4545454545454 L 111.45454545454547 526.4545454545454 L 111.45454545454547 278.60765550239233 Z" fill-opacity="0.7"/><path fill="none" stroke="black" paint-order="fill stroke markers" d=" M 111.45454545454547 278.60765550239233 L 130.36363636363637 278.60765550239233 L 130.36363636363637 526.4545454545454 L 111.45454545454547 526.4545454545454 L 111.45454545454547 278.60765550239233 Z" stroke-linejoin="bevel" stroke-miterlimit="10"/><path fill="mediumslateblue" stroke="none" paint-order="stroke fill markers" d=" M 130.36363636363637 427.31578947368416 L 149.27272727272728 427.31578947368416 L 149.27272727272728 526.4545454545454 L 130.36363636363637 526.4545454545454 L 130.36363636363637 427.31578947368416 Z" fill-opacity="0.7"/><path fill="none" stroke="black" paint-order="fill stroke markers" d=" M 130.36363636363637 427.31578947368416 L 149.27272727272728 427.31578947368416 L 149.27272727272728 526.4545454545454 L 130.36363636363637 526.4545454545454 L 130.36363636363637 427.31578947368416 Z" stroke-linejoin="bevel" stroke-miterlimit="10"/><path fill="mediumslateblue" stroke="none" paint-order="stroke fill markers" d=" M 149.27272727272728 402.53110047846883 L 168.1818181818182 402.53110047846883 L 168.1818181818182 526.4545454545454 L 149.27272727272728 526.4545454545454 L 149.27272727272728 402.53110047846883 Z" fill-opacity="0.7"/><path fill="none" stroke="black" paint-order="fill stroke markers" d=" M 149.27272727272728 402.53110047846883 L 168.1818181818182 402.53110047846883 L 168.1818181818182 526.4545454545454 L 149.27272727272728 526.4545454545454 L 149.27272727272728 402.53110047846883 Z" stroke-linejoin="bevel" stroke-miterlimit="10"/><path fill="mediumslateblue" stroke="none" paint-order="stroke fill markers" d=" M 168.1818181818182 501.66985645933005 L 187.09090909090912 501.66985645933005 L 187.09090909090912 526.4545454545454 L 168.1818181818182 526.4545454545454 L 168.1818181818182 501.66985645933005 Z" fill-opacity="0.7"/><path fill="none" stroke="black" paint-order="fill stroke markers" d=" M 168.1818181818182 501.66985645933005 L 187.09090909090912 501.66985645933005 L 187.09090909090912 526.4545454545454 L 168.1818181818182 526.4545454545454 L 168.1818181818182 501.66985645933005 Z" stroke-linejoin="bevel" stroke-miterlimit="10"/><path fill="mediumslateblue" stroke="none" paint-order="stroke fill markers" d=" M 187.09090909090912 476.8851674641148 L 206 476.8851674641148 L 206 526.4545454545454 L 187.09090909090912 526.4545454545454 L 187.09090909090912 476.8851674641148 Z" fill-opacity="0.7"/><path fill="none" stroke="black" paint-order="fill stroke markers" d=" M 187.09090909090912 476.8851674641148 L 206 476.8851674641148 L 206 526.4545454545454 L 187.09090909090912 526.4545454545454 L 187.09090909090912 476.8851674641148 Z" stroke-linejoin="bevel" stroke-miterlimit="10"/><path fill="mediumslateblue" stroke="none" paint-order="stroke fill markers" d=" M 206 526.4545454545454 L 224.90909090909093 526.4545454545454 L 224.90909090909093 526.4545454545454 L 206 526.4545454545454 L 206 526.4545454545454 Z" fill-opacity="0.7"/><path fill="none" stroke="black" paint-order="fill stroke markers" d=" M 206 526.4545454545454 L 224.90909090909093 526.4545454545454 L 224.90909090909093 526.4545454545454 L 206 526.4545454545454 L 206 526.4545454545454 Z" stroke-linejoin="bevel" stroke-miterlimit="10"/><path fill="mediumslateblue" stroke="none" paint-order="stroke fill markers" d=" M 224.90909090909093 501.66985645933005 L 243.8181818181818 501.66985645933005 L 243.8181818181818 526.4545454545454 L 224.90909090909093 526.4545454545454 L 224.90909090909093 501.66985645933005 Z" fill-opacity="0.7"/><path fill="none" stroke="black" paint-order="fill stroke markers" d=" M 224.90909090909093 501.66985645933005 L 243.8181818181818 501.66985645933005 L 243.8181818181818 526.4545454545454 L 224.90909090909093 526.4545454545454 L 224.90909090909093 501.66985645933005 Z" stroke-linejoin="bevel" stroke-miterlimit="10"/><path fill="mediumslateblue" stroke="none" paint-order="stroke fill markers" d=" M 243.8181818181818 526.4545454545454 L 262.72727272727275 526.4545454545454 L 262.72727272727275 526.4545454545454 L 243.8181818181818 526.4545454545454 L 243.8181818181818 526.4545454545454 Z" fill-opacity="0.7"/><path fill="none" stroke="black" paint-order="fill stroke markers" d=" M 243.8181818181818 526.4545454545454 L 262.72727272727275 526.4545454545454 L 262.72727272727275 526.4545454545454 L 243.8181818181818 526.4545454545454 L 243.8181818181818 526.4545454545454 Z" stroke-linejoin="bevel" stroke-miterlimit="10"/><path fill="mediumslateblue" stroke="none" paint-order="stroke fill markers" d=" M 262.72727272727275 526.4545454545454 L 281.6363636363637 526.4545454545454 L 281.6363636363637 526.4545454545454 L 262.72727272727275 526.4545454545454 L 262.72727272727275 526.4545454545454 Z" fill-opacity="0.7"/><path fill="none" stroke="black" paint-order="fill stroke markers" d=" M 262.72727272727275 526.4545454545454 L 281.6363636363637 526.4545454545454 L 281.6363636363637 526.4545454545454 L 262.72727272727275 526.4545454545454 L 262.72727272727275 526.4545454545454 Z" stroke-linejoin="bevel" stroke-miterlimit="10"/><path fill="mediumslateblue" stroke="none" paint-order="stroke fill markers" d=" M 281.6363636363637 476.8851674641148 L 300.5454545454546 476.8851674641148 L 300.5454545454546 526.4545454545454 L 281.6363636363637 526.4545454545454 L 281.6363636363637 476.8851674641148 Z" fill-opacity="0.7"/><path fill="none" stroke="black" paint-order="fill stroke markers" d=" M 281.6363636363637 476.8851674641148 L 300.5454545454546 476.8851674641148 L 300.5454545454546 526.4545454545454 L 281.6363636363637 526.4545454545454 L 281.6363636363637 476.8851674641148 Z" stroke-linejoin="bevel" stroke-miterlimit="10"/><path fill="mediumslateblue" stroke="none" paint-order="stroke fill markers" d=" M 300.5454545454546 526.4545454545454 L 319.4545454545455 526.4545454545454 L 319.4545454545455 526.4545454545454 L 300.5454545454546 526.4545454545454 L 300.5454545454546 526.4545454545454 Z" fill-opacity="0.7"/><path fill="none" stroke="black" paint-order="fill stroke markers" d=" M 300.5454545454546 526.4545454545454 L 319.4545454545455 526.4545454545454 L 319.4545454545455 526.4545454545454 L 300.5454545454546 526.4545454545454 L 300.5454545454546 526.4545454545454 Z" stroke-linejoin="bevel" stroke-miterlimit="10"/><path fill="mediumslateblue" stroke="none" paint-order="stroke fill markers" d=" M 319.4545454545455 526.4545454545454 L 338.36363636363643 526.4545454545454 L 338.36363636363643 526.4545454545454 L 319.4545454545455 526.4545454545454 L 319.4545454545455 526.4545454545454 Z" fill-opacity="0.7"/><path fill="none" stroke="black" paint-order="fill stroke markers" d=" M 319.4545454545455 526.4545454545454 L 338.36363636363643 526.4545454545454 L 338.36363636363643 526.4545454545454 L 319.4545454545455 526.4545454545454 L 319.4545454545455 526.4545454545454 Z" stroke-linejoin="bevel" stroke-miterlimit="10"/><path fill="mediumslateblue" stroke="none" paint-order="stroke fill markers" d=" M 338.36363636363643 526.4545454545454 L 357.2727272727273 526.4545454545454 L 357.2727272727273 526.4545454545454 L 338.36363636363643 526.4545454545454 L 338.36363636363643 526.4545454545454 Z" fill-opacity="0.7"/><path fill="none" stroke="black" paint-order="fill stroke markers" d=" M 338.36363636363643 526.4545454545454 L 357.2727272727273 526.4545454545454 L 357.2727272727273 526.4545454545454 L 338.36363636363643 526.4545454545454 L 338.36363636363643 526.4545454545454 Z" stroke-linejoin="bevel" stroke-miterlimit="10"/><path fill="mediumslateblue" stroke="none" paint-order="stroke fill markers" d=" M 357.2727272727273 526.4545454545454 L 376.18181818181824 526.4545454545454 L 376.18181818181824 526.4545454545454 L 357.2727272727273 526.4545454545454 L 357.2727272727273 526.4545454545454 Z" fill-opacity="0.7"/><path fill="none" stroke="black" paint-order="fill stroke markers" d=" M 357.2727272727273 526.4545454545454 L 376.18181818181824 526.4545454545454 L 376.18181818181824 526.4545454545454 L 357.2727272727273 526.4545454545454 L 357.2727272727273 526.4545454545454 Z" stroke-linejoin="bevel" stroke-miterlimit="10"/><path fill="mediumslateblue" stroke="none" paint-order="stroke fill markers" d=" M 376.18181818181824 526.4545454545454 L 395.0909090909092 526.4545454545454 L 395.0909090909092 526.4545454545454 L 376.18181818181824 526.4545454545454 L 376.18181818181824 526.4545454545454 Z" fill-opacity="0.7"/><path fill="none" stroke="black" paint-order="fill stroke markers" d=" M 376.18181818181824 526.4545454545454 L 395.0909090909092 526.4545454545454 L 395.0909090909092 526.4545454545454 L 376.18181818181824 526.4545454545454 L 376.18181818181824 526.4545454545454 Z" stroke-linejoin="bevel" stroke-miterlimit="10"/><path fill="mediumslateblue" stroke="none" paint-order="stroke fill markers" d=" M 395.0909090909092 526.4545454545454 L 414.00000000000006 526.4545454545454 L 414.00000000000006 526.4545454545454 L 395.0909090909092 526.4545454545454 L 395.0909090909092 526.4545454545454 Z" fill-opacity="0.7"/><path fill="none" stroke="black" paint-order="fill stroke markers" d=" M 395.0909090909092 526.4545454545454 L 414.00000000000006 526.4545454545454 L 414.00000000000006 526.4545454545454 L 395.0909090909092 526.4545454545454 L 395.0909090909092 526.4545454545454 Z" stroke-linejoin="bevel" stroke-miterlimit="10"/><path fill="mediumslateblue" stroke="none" paint-order="stroke fill markers" d=" M 414.00000000000006 526.4545454545454 L 432.909090909091 526.4545454545454 L 432.909090909091 526.4545454545454 L 414.00000000000006 526.4545454545454 L 414.00000000000006 526.4545454545454 Z" fill-opacity="0.7"/><path fill="none" stroke="black" paint-order="fill stroke markers" d=" M 414.00000000000006 526.4545454545454 L 432.909090909091 526.4545454545454 L 432.909090909091 526.4545454545454 L 414.00000000000006 526.4545454545454 L 414.00000000000006 526.4545454545454 Z" stroke-linejoin="bevel" stroke-miterlimit="10"/><path fill="mediumslateblue" stroke="none" paint-order="stroke fill markers" d=" M 432.909090909091 526.4545454545454 L 451.81818181818187 526.4545454545454 L 451.81818181818187 526.4545454545454 L 432.909090909091 526.4545454545454 L 432.909090909091 526.4545454545454 Z" fill-opacity="0.7"/><path fill="none" stroke="black" paint-order="fill stroke markers" d=" M 432.909090909091 526.4545454545454 L 451.81818181818187 526.4545454545454 L 451.81818181818187 526.4545454545454 L 432.909090909091 526.4545454545454 L 432.909090909091 526.4545454545454 Z" stroke-linejoin="bevel" stroke-miterlimit="10"/><path fill="mediumslateblue" stroke="none" paint-order="stroke fill markers" d=" M 451.81818181818187 526.4545454545454 L 470.7272727272728 526.4545454545454 L 470.7272727272728 526.4545454545454 L 451.81818181818187 526.4545454545454 L 451.81818181818187 526.4545454545454 Z" fill-opacity="0.7"/><path fill="none" stroke="black" paint-order="fill stroke markers" d=" M 451.81818181818187 526.4545454545454 L 470.7272727272728 526.4545454545454 L 470.7272727272728 526.4545454545454 L 451.81818181818187 526.4545454545454 L 451.81818181818187 526.4545454545454 Z" stroke-linejoin="bevel" stroke-miterlimit="10"/><path fill="mediumslateblue" stroke="none" paint-order="stroke fill markers" d=" M 470.7272727272728 526.4545454545454 L 489.63636363636374 526.4545454545454 L 489.63636363636374 526.4545454545454 L 470.7272727272728 526.4545454545454 L 470.7272727272728 526.4545454545454 Z" fill-opacity="0.7"/><path fill="none" stroke="black" paint-order="fill stroke markers" d=" M 470.7272727272728 526.4545454545454 L 489.63636363636374 526.4545454545454 L 489.63636363636374 526.4545454545454 L 470.7272727272728 526.4545454545454 L 470.7272727272728 526.4545454545454 Z" stroke-linejoin="bevel" stroke-miterlimit="10"/><path fill="mediumslateblue" stroke="none" paint-order="stroke fill markers" d=" M 489.63636363636374 526.4545454545454 L 508.5454545454546 526.4545454545454 L 508.5454545454546 526.4545454545454 L 489.63636363636374 526.4545454545454 L 489.63636363636374 526.4545454545454 Z" fill-opacity="0.7"/><path fill="none" stroke="black" paint-order="fill stroke markers" d=" M 489.63636363636374 526.4545454545454 L 508.5454545454546 526.4545454545454 L 508.5454545454546 526.4545454545454 L 489.63636363636374 526.4545454545454 L 489.63636363636374 526.4545454545454 Z" stroke-linejoin="bevel" stroke-miterlimit="10"/><path fill="mediumslateblue" stroke="none" paint-order="stroke fill markers" d=" M 508.5454545454546 526.4545454545454 L 527.4545454545455 526.4545454545454 L 527.4545454545455 526.4545454545454 L 508.5454545454546 526.4545454545454 L 508.5454545454546 526.4545454545454 Z" fill-opacity="0.7"/><path fill="none" stroke="black" paint-order="fill stroke markers" d=" M 508.5454545454546 526.4545454545454 L 527.4545454545455 526.4545454545454 L 527.4545454545455 526.4545454545454 L 508.5454545454546 526.4545454545454 L 508.5454545454546 526.4545454545454 Z" stroke-linejoin="bevel" stroke-miterlimit="10"/><path fill="mediumslateblue" stroke="none" paint-order="stroke fill markers" d=" M 527.4545454545455 501.66985645933005 L 546.3636363636364 501.66985645933005 L 546.3636363636364 526.4545454545454 L 527.4545454545455 526.4545454545454 L 527.4545454545455 501.66985645933005 Z" fill-opacity="0.7"/><path fill="none" stroke="black" paint-order="fill stroke markers" d=" M 527.4545454545455 501.66985645933005 L 546.3636363636364 501.66985645933005 L 546.3636363636364 526.4545454545454 L 527.4545454545455 526.4545454545454 L 527.4545454545455 501.66985645933005 Z" stroke-linejoin="bevel" stroke-miterlimit="10"/></g></g></g><g><g fill="#444444"><path fill="none" stroke="black" paint-order="fill stroke markers" d=" M 50 550 L 570 550" stroke-linejoin="bevel" stroke-miterlimit="10"/><path fill="none" stroke="black" paint-order="fill stroke markers" d=" M 73 556 L 73 548" stroke-linejoin="bevel" stroke-miterlimit="10"/><path fill="none" stroke="black" paint-order="fill stroke markers" d=" M 196 556 L 196 548" stroke-linejoin="bevel" stroke-miterlimit="10"/><path fill="none" stroke="black" paint-order="fill stroke markers" d=" M 318 556 L 318 548" stroke-linejoin="bevel" stroke-miterlimit="10"/><path fill="none" stroke="black" paint-order="fill stroke markers" d=" M 441 556 L 441 548" stroke-linejoin="bevel" stroke-miterlimit="10"/><path fill="none" stroke="black" paint-order="fill stroke markers" d=" M 563 556 L 563 548" stroke-linejoin="bevel" stroke-miterlimit="10"/><path fill="none" stroke="black" paint-order="fill stroke markers" d=" M 73 554 L 73 550" stroke-linejoin="bevel" stroke-miterlimit="10"/><path fill="none" stroke="black" paint-order="fill stroke markers" d=" M 98 554 L 98 550" stroke-linejoin="bevel" stroke-miterlimit="10"/><path fill="none" stroke="black" paint-order="fill stroke markers" d=" M 122 554 L 122 550" stroke-linejoin="bevel" stroke-miterlimit="10"/><path fill="none" stroke="black" paint-order="fill stroke markers" d=" M 147 554 L 147 550" stroke-linejoin="bevel" stroke-miterlimit="10"/><path fill="none" stroke="black" paint-order="fill stroke markers" d=" M 171 554 L 171 550" stroke-linejoin="bevel" stroke-miterlimit="10"/><path fill="none" stroke="black" paint-order="fill stroke markers" d=" M 196 554 L 196 550" stroke-linejoin="bevel" stroke-miterlimit="10"/><path fill="none" stroke="black" paint-order="fill stroke markers" d=" M 220 554 L 220 550" stroke-linejoin="bevel" stroke-miterlimit="10"/><path fill="none" stroke="black" paint-order="fill stroke markers" d=" M 245 554 L 245 550" stroke-linejoin="bevel" stroke-miterlimit="10"/><path fill="none" stroke="black" paint-order="fill stroke markers" d=" M 269 554 L 269 550" stroke-linejoin="bevel" stroke-miterlimit="10"/><path fill="none" stroke="black" paint-order="fill stroke markers" d=" M 294 554 L 294 550" stroke-linejoin="bevel" stroke-miterlimit="10"/><path fill="none" stroke="black" paint-order="fill stroke markers" d=" M 318 554 L 318 550" stroke-linejoin="bevel" stroke-miterlimit="10"/><path fill="none" stroke="black" paint-order="fill stroke markers" d=" M 343 554 L 343 550" stroke-linejoin="bevel" stroke-miterlimit="10"/><path fill="none" stroke="black" paint-order="fill stroke markers" d=" M 367 554 L 367 550" stroke-linejoin="bevel" stroke-miterlimit="10"/><path fill="none" stroke="black" paint-order="fill stroke markers" d=" M 392 554 L 392 550" stroke-linejoin="bevel" stroke-miterlimit="10"/><path fill="none" stroke="black" paint-order="fill stroke markers" d=" M 416 554 L 416 550" stroke-linejoin="bevel" stroke-miterlimit="10"/><path fill="none" stroke="black" paint-order="fill stroke markers" d=" M 441 554 L 441 550" stroke-linejoin="bevel" stroke-miterlimit="10"/><path fill="none" stroke="black" paint-order="fill stroke markers" d=" M 465 554 L 465 550" stroke-linejoin="bevel" stroke-miterlimit="10"/><path fill="none" stroke="black" paint-order="fill stroke markers" d=" M 490 554 L 490 550" stroke-linejoin="bevel" stroke-miterlimit="10"/><path fill="none" stroke="black" paint-order="fill stroke markers" d=" M 514 554 L 514 550" stroke-linejoin="bevel" stroke-miterlimit="10"/><path fill="none" stroke="black" paint-order="fill stroke markers" d=" M 539 554 L 539 550" stroke-linejoin="bevel" stroke-miterlimit="10"/><path fill="" stroke="black" paint-order="fill stroke markers" d=" M 563 554 L 563 550" stroke-linejoin="bevel" stroke-miterlimit="10"/><g transform="translate(73,561) rotate(0,0,0)"><text fill="" stroke="none" font-family="helvetica" font-size="11px" font-style="normal" font-weight="normal" text-decoration="normal" x="0" y="0" text-anchor="middle" dominant-baseline="hanging">0</text><g transform="rotate(0,0,0) translate(-73,-561) translate(196,561)"><text fill="" stroke="none" font-family="helvetica" font-size="11px" font-style="normal" font-weight="normal" text-decoration="normal" x="0" y="0" text-anchor="middle" dominant-baseline="hanging">5000</text><g transform="rotate(0,0,0) translate(-196,-561) translate(318,561)"><text fill="" stroke="none" font-family="helvetica" font-size="11px" font-style="normal" font-weight="normal" text-decoration="normal" x="0" y="0" text-anchor="middle" dominant-baseline="hanging">10000</text><g transform="rotate(0,0,0) translate(-318,-561) translate(441,561)"><text fill="" stroke="none" font-family="helvetica" font-size="11px" font-style="normal" font-weight="normal" text-decoration="normal" x="0" y="0" text-anchor="middle" dominant-baseline="hanging">15000</text><g transform="rotate(0,0,0) translate(-441,-561) translate(563,561)"><text fill="" stroke="none" font-family="helvetica" font-size="11px" font-style="normal" font-weight="normal" text-decoration="normal" x="0" y="0" text-anchor="middle" dominant-baseline="hanging">20000</text><g transform="rotate(0,0,0) translate(-563,-561) translate(310,581)"><text fill="" stroke="none" font-family="helvetica" font-size="13px" font-style="italic" font-weight="normal" text-decoration="normal" x="0" y="0" text-anchor="middle" dominant-baseline="hanging">Readme and description length (# of characters)</text><g transform="rotate(0,0,0) translate(-310,-581)"/></g></g></g></g></g></g></g></g><g><g fill="#444444"><path fill="none" stroke="black" paint-order="fill stroke markers" d=" M 50 550 L 50 32" stroke-linejoin="bevel" stroke-miterlimit="10"/><path fill="none" stroke="black" paint-order="fill stroke markers" d=" M 44 526 L 52 526" stroke-linejoin="bevel" stroke-miterlimit="10"/><path fill="none" stroke="black" paint-order="fill stroke markers" d=" M 44 403 L 52 403" stroke-linejoin="bevel" stroke-miterlimit="10"/><path fill="none" stroke="black" paint-order="fill stroke markers" d=" M 44 279 L 52 279" stroke-linejoin="bevel" stroke-miterlimit="10"/><path fill="none" stroke="black" paint-order="fill stroke markers" d=" M 44 155 L 52 155" stroke-linejoin="bevel" stroke-miterlimit="10"/><path fill="none" stroke="black" paint-order="fill stroke markers" d=" M 46 526 L 50 526" stroke-linejoin="bevel" stroke-miterlimit="10"/><path fill="none" stroke="black" paint-order="fill stroke markers" d=" M 46 502 L 50 502" stroke-linejoin="bevel" stroke-miterlimit="10"/><path fill="none" stroke="black" paint-order="fill stroke markers" d=" M 46 477 L 50 477" stroke-linejoin="bevel" stroke-miterlimit="10"/><path fill="none" stroke="black" paint-order="fill stroke markers" d=" M 46 452 L 50 452" stroke-linejoin="bevel" stroke-miterlimit="10"/><path fill="none" stroke="black" paint-order="fill stroke markers" d=" M 46 427 L 50 427" stroke-linejoin="bevel" stroke-miterlimit="10"/><path fill="none" stroke="black" paint-order="fill stroke markers" d=" M 46 403 L 50 403" stroke-linejoin="bevel" stroke-miterlimit="10"/><path fill="none" stroke="black" paint-order="fill stroke markers" d=" M 46 378 L 50 378" stroke-linejoin="bevel" stroke-miterlimit="10"/><path fill="none" stroke="black" paint-order="fill stroke markers" d=" M 46 353 L 50 353" stroke-linejoin="bevel" stroke-miterlimit="10"/><path fill="none" stroke="black" paint-order="fill stroke markers" d=" M 46 328 L 50 328" stroke-linejoin="bevel" stroke-miterlimit="10"/><path fill="none" stroke="black" paint-order="fill stroke markers" d=" M 46 303 L 50 303" stroke-linejoin="bevel" stroke-miterlimit="10"/><path fill="none" stroke="black" paint-order="fill stroke markers" d=" M 46 279 L 50 279" stroke-linejoin="bevel" stroke-miterlimit="10"/><path fill="none" stroke="black" paint-order="fill stroke markers" d=" M 46 254 L 50 254" stroke-linejoin="bevel" stroke-miterlimit="10"/><path fill="none" stroke="black" paint-order="fill stroke markers" d=" M 46 229 L 50 229" stroke-linejoin="bevel" stroke-miterlimit="10"/><path fill="none" stroke="black" paint-order="fill stroke markers" d=" M 46 204 L 50 204" stroke-linejoin="bevel" stroke-miterlimit="10"/><path fill="none" stroke="black" paint-order="fill stroke markers" d=" M 46 179 L 50 179" stroke-linejoin="bevel" stroke-miterlimit="10"/><path fill="none" stroke="black" paint-order="fill stroke markers" d=" M 46 155 L 50 155" stroke-linejoin="bevel" stroke-miterlimit="10"/><path fill="none" stroke="black" paint-order="fill stroke markers" d=" M 46 130 L 50 130" stroke-linejoin="bevel" stroke-miterlimit="10"/><path fill="none" stroke="black" paint-order="fill stroke markers" d=" M 46 105 L 50 105" stroke-linejoin="bevel" stroke-miterlimit="10"/><path fill="none" stroke="black" paint-order="fill stroke markers" d=" M 46 80 L 50 80" stroke-linejoin="bevel" stroke-miterlimit="10"/><path fill="" stroke="black" paint-order="fill stroke markers" d=" M 46 56 L 50 56" stroke-linejoin="bevel" stroke-miterlimit="10"/><g transform="translate(39,526) rotate(0,0,0)"><text fill="" stroke="none" font-family="helvetica" font-size="11px" font-style="normal" font-weight="normal" text-decoration="normal" x="0" y="0" text-anchor="end" dominant-baseline="central">0</text><g transform="rotate(0,0,0) translate(-39,-526) translate(39,403)"><text fill="" stroke="none" font-family="helvetica" font-size="11px" font-style="normal" font-weight="normal" text-decoration="normal" x="0" y="0" text-anchor="end" dominant-baseline="central">5</text><g transform="rotate(0,0,0) translate(-39,-403) translate(39,279)"><text fill="" stroke="none" font-family="helvetica" font-size="11px" font-style="normal" font-weight="normal" text-decoration="normal" x="0" y="0" text-anchor="end" dominant-baseline="central">10</text><g transform="rotate(0,0,0) translate(-39,-279) translate(39,155)"><text fill="" stroke="none" font-family="helvetica" font-size="11px" font-style="normal" font-weight="normal" text-decoration="normal" x="0" y="0" text-anchor="end" dominant-baseline="central">15</text><g transform="rotate(0,0,0) translate(-39,-155) translate(19,291) rotate(-90,0,0)"><text fill="" stroke="none" font-family="helvetica" font-size="13px" font-style="italic" font-weight="normal" text-decoration="normal" x="0" y="0" text-anchor="middle" dominant-baseline="alphabetic">Number of repositories</text><g transform="rotate(90,0,0) translate(-19,-291)"/></g></g></g></g></g></g></g><g><g fill="#444444"><path fill="" stroke="none" d=""/><g transform="translate(50,27)"><path fill="none" stroke="none"/><text fill="" stroke="none" font-family="helvetica" font-size="13px" font-style="normal" font-weight="bold" text-decoration="normal" x="0" y="0" text-anchor="start" dominant-baseline="text-after-edge">Readme + Description length distribution</text></g></g></g><g/></g></svg>