<svg version="1.1" xmlns="http://www.w3.org/2000/svg" xmlns:xlink="http://www.w3.org/1999/xlink" width="600" height="600"><defs><clipPath id="bosNNTQEPWuW"><path fill="none" stroke="none" d=" M 50 32 L 570 32 L 570 550 L 50 550 L 50 32 Z"/></clipPath><clipPath id="qyLVQpJRRHSX"><path fill="none" stroke="none" d=" M 50 32 L 570 32 L 570 550 L 50 550 L 50 32 Z"/></clipPath><clipPath id="AnnILltBmggl"><path fill="none" stroke="none" d=" M 50 32 L 570 32 L 570 550 L 50 550 L 50 32 Z"/></clipPath></defs><g transform="scale(1,1) translate(0.5,0.5)"><rect fill="#ffffff" stroke="none" x="0" y="0" width="600" height="600"/><rect fill="#FFFFFF" stroke="none" x="50" y="32" width="520" height="518"/><rect fill="#ffffff" stroke="none" x="50" y="32" width="520" height="518"/><g><rect fill="none" stroke="#e5e5e5" x="50" y="32" width="520" height="518" stroke-linejoin="bevel" stroke-miterlimit="10"/></g><g clip-path="url(#bosNNTQEPWuW)"><g><g><path fill="none" stroke="#e5e5e5" paint-order="fill stroke markers" d=" M 74 550 L 74 32" stroke-linejoin="bevel" stroke-miterlimit="10"/><path fill="none" stroke="#e5e5e5" paint-order="fill stroke markers" d=" M 149 550 L 149 32" stroke-linejoin="bevel" stroke-miterlimit="10"/><path fill="none" stroke="#e5e5e5" paint-order="fill stroke markers" d=" M 224 550 L 224 32" stroke-linejoin="bevel" stroke-miterlimit="10"/><path fill="none" stroke="#e5e5e5" paint-order="fill stroke markers" d=" M 299 550 L 299 32" stroke-linejoin="bevel" stroke-miterlimit="10"/><path fill="none" stroke="#e5e5e5" paint-order="fill stroke markers" d=" M 374 550 L 374 32" stroke-linejoin="bevel" stroke-miterlimit="10"/><path fill="none" stroke="#e5e5e5" paint-order="fill stroke markers" d=" M 449 550 L 449 32" stroke-linejoin="bevel" stroke-miterlimit="10"/><path fill="none" stroke="#e5e5e5" paint-order="fill stroke markers" d=" M 524 550 L 524 32" stroke-linejoin="bevel" stroke-miterlimit="10"/></g></g></g><g clip-path="url(#qyLVQpJRRHSX)"><g><g><path fill="none" stroke="#e5e5e5" paint-order="fill stroke markers" d=" M 50 526 L 570 526" stroke-linejoin="bevel" stroke-miterlimit="10"/><path fill="none" stroke="#e5e5e5" paint-order="fill stroke markers" d=" M 50 422 L 570 422" stroke-linejoin="bevel" stroke-miterlimit="10"/><path fill="none" stroke="#e5e5e5" paint-order="fill stroke markers" d=" M 50 317 L 570 317" stroke-linejoin="bevel" stroke-miterlimit="10"/><path fill="none" stroke="#e5e5e5" paint-order="fill stroke markers" d=" M 50 213 L 570 213" stroke-linejoin="bevel" stroke-miterlimit="10"/><path fill="none" stroke="#e5e5e5" paint-order="fill stroke markers" d=" M 50 108 L 570 108" stroke-linejoin="bevel" stroke-miterlimit="10"/></g></g></g><g clip-path="url(#AnnILltBmggl)"><g><g><path fill="none" stroke="none"/><path fill="mediumslateblue" stroke="none" paint-order="stroke fill markers" d=" M 73.63636363636367 55.54545454545445 L 92.54545454545458 55.54545454545445 L 92.54545454545458 526.4545454545454 L 73.63636363636367 526.4545454545454 L 73.63636363636367 55.54545454545445 Z" fill-opacity="0.7"/><path fill="none" stroke="black" paint-order="fill stroke markers" d=" M 73.63636363636367 55.54545454545445 L 92.54545454545458 55.54545454545445 L 92.54545454545458 526.4545454545454 L 73.63636363636367 526.4545454545454 L 73.63636363636367 55.54545454545445 Z" stroke-linejoin="bevel" stroke-miterlimit="10"/><path fill="mediumslateblue" stroke="none" paint-order="stroke fill markers" d=" M 92.54545454545458 515.989898989899 L 111.4545454545455 515.989898989899 L 111.4545454545455 526.4545454545454 L 92.54545454545458 526.4545454545454 L 92.54545454545458 515.989898989899 Z" fill-opacity="0.7"/><path fill="none" stroke="black" paint-order="fill stroke markers" d=" M 92.54545454545458 515.989898989899 L 111.4545454545455 515.989898989899 L 111.4545454545455 526.4545454545454 L 92.54545454545458 526.4545454545454 L 92.54545454545458 515.989898989899 Z" stroke-linejoin="bevel" stroke-miterlimit="10"/><path fill="mediumslateblue" stroke="none" paint-order="stroke fill markers" d=" M 111.4545454545455 526.4545454545454 L 130.3636363636364 526.4545454545454 L 130.3636363636364 526.4545454545454 L 111.4545454545455 526.4545454545454 L 111.4545454545455 526.4545454545454 Z" fill-opacity="0.7"/><path fill="none" stroke="black" paint-order="fill stroke markers" d=" M 111.4545454545455 526.4545454545454 L 130.3636363636364 526.4545454545454 L 130.3636363636364 526.4545454545454 L 111.4545454545455 526.4545454545454 L 111.4545454545455 526.4545454545454 Z" stroke-linejoin="bevel" stroke-miterlimit="10"/><path fill="mediumslateblue" stroke="none" paint-order="stroke fill markers" d=" M 130.3636363636364 515.989898989899 L 149.2727272727273 515.989898989899 L 149.2727272727273 526.4545454545454 L 130.3636363636364 526.4545454545454 L 130.3636363636364 515.989898989899 Z" fill-opacity="0.7"/><path fill="none" stroke="black" paint-order="fill stroke markers" d=" M 130.3636363636364 515.989898989899 L 149.2727272727273 515.989898989899 L 149.2727272727273 526.4545454545454 L 130.3636363636364 526.4545454545454 L 130.3636363636364 515.989898989899 Z" stroke-linejoin="bevel" stroke-miterlimit="10"/><path fill="mediumslateblue" stroke="none" paint-order="stroke fill markers" d=" M 149.2727272727273 526.4545454545454 L 168.18181818181822 526.4545454545454 L 168.18181818181822 526.4545454545454 L 149.2727272727273 526.4545454545454 L 149.2727272727273 526.4545454545454 Z" fill-opacity="0.7"/><path fill="none" stroke="black" paint-order="fill stroke markers" d=" M 149.2727272727273 526.4545454545454 L 168.18181818181822 526.4545454545454 L 168.18181818181822 526.4545454545454 L 149.2727272727273 526.4545454545454 L 149.2727272727273 526.4545454545454 Z" stroke-linejoin="bevel" stroke-miterlimit="10"/><path fill="mediumslateblue" stroke="none" paint-order="stroke fill markers" d=" M 168.18181818181822 515.989898989899 L 187.09090909090912 515.989898989899 L 187.09090909090912 526.4545454545454 L 168.18181818181822 526.4545454545454 L 168.18181818181822 515.989898989899 Z" fill-opacity="0.7"/><path fill="none" stroke="black" paint-order="fill stroke markers" d=" M 168.18181818181822 515.989898989899 L 187.09090909090912 515.989898989899 L 187.09090909090912 526.4545454545454 L 168.18181818181822 526.4545454545454 L 168.18181818181822 515.989898989899 Z" stroke-linejoin="bevel" stroke-miterlimit="10"/><path fill="mediumslateblue" stroke="none" paint-order="stroke fill markers" d=" M 187.09090909090912 526.4545454545454 L 206 526.4545454545454 L 206 526.4545454545454 L 187.09090909090912 526.4545454545454 L 187.09090909090912 526.4545454545454 Z" fill-opacity="0.7"/><path fill="none" stroke="black" paint-order="fill stroke markers" d=" M 187.09090909090912 526.4545454545454 L 206 526.4545454545454 L 206 526.4545454545454 L 187.09090909090912 526.4545454545454 L 187.09090909090912 526.4545454545454 Z" stroke-linejoin="bevel" stroke-miterlimit="10"/><path fill="mediumslateblue" stroke="none" paint-order="stroke fill markers" d=" M 206 526.4545454545454 L 224.90909090909093 526.4545454545454 L 224.90909090909093 526.4545454545454 L 206 526.4545454545454 L 206 526.4545454545454 Z" fill-opacity="0.7"/><path fill="none" stroke="black" paint-order="fill stroke markers" d=" M 206 526.4545454545454 L 224.90909090909093 526.4545454545454 L 224.90909090909093 526.4545454545454 L 206 526.4545454545454 L 206 526.4545454545454 Z" stroke-linejoin="bevel" stroke-miterlimit="10"/><path fill="mediumslateblue" stroke="none" paint-order="stroke fill markers" d=" M 224.90909090909093 515.989898989899 L 243.8181818181818 515.989898989899 L 243.8181818181818 526.4545454545454 L 224.90909090909093 526.4545454545454 L 224.90909090909093 515.989898989899 Z" fill-opacity="0.7"/><path fill="none" stroke="black" paint-order="fill stroke markers" d=" M 224.90909090909093 515.989898989899 L 243.8181818181818 515.989898989899 L 243.8181818181818 526.4545454545454 L 224.90909090909093 526.4545454545454 L 224.90909090909093 515.989898989899 Z" stroke-linejoin="bevel" stroke-miterlimit="10"/><path fill="mediumslateblue" stroke="none" paint-order="stroke fill markers" d=" M 243.8181818181818 526.4545454545454 L 262.72727272727275 526.4545454545454 L 262.72727272727275 526.4545454545454 L 243.8181818181818 526.4545454545454 L 243.8181818181818 526.4545454545454 Z" fill-opacity="0.7"/><path fill="none" stroke="black" paint-order="fill stroke markers" d=" M 243.8181818181818 526.4545454545454 L 262.72727272727275 526.4545454545454 L 262.72727272727275 526.4545454545454 L 243.8181818181818 526.4545454545454 L 243.8181818181818 526.4545454545454 Z" stroke-linejoin="bevel" stroke-miterlimit="10"/><path fill="mediumslateblue" stroke="none" paint-order="stroke fill markers" d=" M 262.72727272727275 526.4545454545454 L 281.6363636363637 526.4545454545454 L 281.6363636363637 526.4545454545454 L 262.72727272727275 526.4545454545454 L 262.72727272727275 526.4545454545454 Z" fill-opacity="0.7"/><path fill="none" stroke="black" paint-order="fill stroke markers" d=" M 262.72727272727275 526.4545454545454 L 281.6363636363637 526.4545454545454 L 281.6363636363637 526.4545454545454 L 262.72727272727275 526.4545454545454 L 262.72727272727275 526.4545454545454 Z" stroke-linejoin="bevel" stroke-miterlimit="10"/><path fill="mediumslateblue" stroke="none" paint-order="stroke fill markers" d=" M 281.6363636363637 526.4545454545454 L 300.54545454545456 526.4545454545454 L 300.54545454545456 526.4545454545454 L 281.6363636363637 526.4545454545454 L 281.6363636363637 526.4545454545454 Z" fill-opacity="0.7"/><path fill="none" stroke="black" paint-order="fill stroke markers" d=" M 281.6363636363637 526.4545454545454 L 300.54545454545456 526.4545454545454 L 300.54545454545456 526.4545454545454 L 281.6363636363637 526.4545454545454 L 281.6363636363637 526.4545454545454 Z" stroke-linejoin="bevel" stroke-miterlimit="10"/><path fill="mediumslateblue" stroke="none" paint-order="stroke fill markers" d=" M 300.54545454545456 526.4545454545454 L 319.4545454545455 526.4545454545454 L 319.4545454545455 526.4545454545454 L 300.54545454545456 526.4545454545454 L 300.54545454545456 526.4545454545454 Z" fill-opacity="0.7"/><path fill="none" stroke="black" paint-order="fill stroke markers" d=" M 300.54545454545456 526.4545454545454 L 319.4545454545455 526.4545454545454 L 319.4545454545455 526.4545454545454 L 300.54545454545456 526.4545454545454 L 300.54545454545456 526.4545454545454 Z" stroke-linejoin="bevel" stroke-miterlimit="10"/><path fill="mediumslateblue" stroke="none" paint-order="stroke fill markers" d=" M 319.4545454545455 526.4545454545454 L 338.3636363636364 526.4545454545454 L 338.3636363636364 526.4545454545454 L 319.4545454545455 526.4545454545454 L 319.4545454545455 526.4545454545454 Z" fill-opacity="0.7"/><path fill="none" stroke="black" paint-order="fill stroke markers" d=" M 319.4545454545455 526.4545454545454 L 338.3636363636364 526.4545454545454 L 338.3636363636364 526.4545454545454 L 319.4545454545455 526.4545454545454 L 319.4545454545455 526.4545454545454 Z" stroke-linejoin="bevel" stroke-miterlimit="10"/><path fill="mediumslateblue" stroke="none" paint-order="stroke fill markers" d=" M 338.3636363636364 526.4545454545454 L 357.2727272727273 526.4545454545454 L 357.2727272727273 526.4545454545454 L 338.3636363636364 526.4545454545454 L 338.3636363636364 526.4545454545454 Z" fill-opacity="0.7"/><path fill="none" stroke="black" paint-order="fill stroke markers" d=" M 338.3636363636364 526.4545454545454 L 357.2727272727273 526.4545454545454 L 357.2727272727273 526.4545454545454 L 338.3636363636364 526.4545454545454 L 338.3636363636364 526.4545454545454 Z" stroke-linejoin="bevel" stroke-miterlimit="10"/><path fill="mediumslateblue" stroke="none" paint-order="stroke fill markers" d=" M 357.2727272727273 526.4545454545454 L 376.18181818181824 526.4545454545454 L 376.18181818181824 526.4545454545454 L 357.2727272727273 526.4545454545454 L 357.2727272727273 526.4545454545454 Z" fill-opacity="0.7"/><path fill="none" stroke="black" paint-order="fill stroke markers" d=" M 357.2727272727273 526.4545454545454 L 376.18181818181824 526.4545454545454 L 376.18181818181824 526.4545454545454 L 357.2727272727273 526.4545454545454 L 357.2727272727273 526.4545454545454 Z" stroke-linejoin="bevel" stroke-miterlimit="10"/><path fill="mediumslateblue" stroke="none" paint-order="stroke fill markers" d=" M 376.18181818181824 526.4545454545454 L 395.0909090909091 526.4545454545454 L 395.0909090909091 526.4545454545454 L 376.18181818181824 526.4545454545454 L 376.18181818181824 526.4545454545454 Z" fill-opacity="0.7"/><path fill="none" stroke="black" paint-order="fill stroke markers" d=" M 376.18181818181824 526.4545454545454 L 395.0909090909091 526.4545454545454 L 395.0909090909091 526.4545454545454 L 376.18181818181824 526.4545454545454 L 376.18181818181824 526.4545454545454 Z" stroke-linejoin="bevel" stroke-miterlimit="10"/><path fill="mediumslateblue" stroke="none" paint-order="stroke fill markers" d=" M 395.0909090909091 526.4545454545454 L 414 526.4545454545454 L 414 526.4545454545454 L 395.0909090909091 526.4545454545454 L 395.0909090909091 526.4545454545454 Z" fill-opacity="0.7"/><path fill="none" stroke="black" paint-order="fill stroke markers" d=" M 395.0909090909091 526.4545454545454 L 414 526.4545454545454 L 414 526.4545454545454 L 395.0909090909091 526.4545454545454 L 395.0909090909091 526.4545454545454 Z" stroke-linejoin="bevel" stroke-miterlimit="10"/><path fill="mediumslateblue" stroke="none" paint-order="stroke fill markers" d=" M 414 526.4545454545454 L 432.90909090909093 526.4545454545454 L 432.90909090909093 526.4545454545454 L 414 526.4545454545454 L 414 526.4545454545454 Z" fill-opacity="0.7"/><path fill="none" stroke="black" paint-order="fill stroke markers" d=" M 414 526.4545454545454 L 432.90909090909093 526.4545454545454 L 432.90909090909093 526.4545454545454 L 414 526.4545454545454 L 414 526.4545454545454 Z" stroke-linejoin="bevel" stroke-miterlimit="10"/><path fill="mediumslateblue" stroke="none" paint-order="stroke fill markers" d=" M 432.90909090909093 526.4545454545454 L 451.81818181818187 526.4545454545454 L 451.81818181818187 526.4545454545454 L 432.90909090909093 526.4545454545454 L 432.90909090909093 526.4545454545454 Z" fill-opacity="0.7"/><path fill="none" stroke="black" paint-order="fill stroke markers" d=" M 432.90909090909093 526.4545454545454 L 451.81818181818187 526.4545454545454 L 451.81818181818187 526.4545454545454 L 432.90909090909093 526.4545454545454 L 432.90909090909093 526.4545454545454 Z" stroke-linejoin="bevel" stroke-miterlimit="10"/><path fill="mediumslateblue" stroke="none" paint-order="stroke fill markers" d=" M 451.81818181818187 526.4545454545454 L 470.7272727272728 526.4545454545454 L 470.7272727272728 526.4545454545454 L 451.81818181818187 526.4545454545454 L 451.81818181818187 526.4545454545454 Z" fill-opacity="0.7"/><path fill="none" stroke="black" paint-order="fill stroke markers" d=" M 451.81818181818187 526.4545454545454 L 470.7272727272728 526.4545454545454 L 470.7272727272728 526.4545454545454 L 451.81818181818187 526.4545454545454 L 451.81818181818187 526.4545454545454 Z" stroke-linejoin="bevel" stroke-miterlimit="10"/><path fill="mediumslateblue" stroke="none" paint-order="stroke fill markers" d=" M 470.7272727272728 526.4545454545454 L 489.6363636363637 526.4545454545454 L 489.6363636363637 526.4545454545454 L 470.7272727272728 526.4545454545454 L 470.7272727272728 526.4545454545454 Z" fill-opacity="0.7"/><path fill="none" stroke="black" paint-order="fill stroke markers" d=" M 470.7272727272728 526.4545454545454 L 489.6363636363637 526.4545454545454 L 489.6363636363637 526.4545454545454 L 470.7272727272728 526.4545454545454 L 470.7272727272728 526.4545454545454 Z" stroke-linejoin="bevel" stroke-miterlimit="10"/><path fill="mediumslateblue" stroke="none" paint-order="stroke fill markers" d=" M 489.6363636363637 526.4545454545454 L 508.54545454545456 526.4545454545454 L 508.54545454545456 526.4545454545454 L 489.6363636363637 526.4545454545454 L 489.6363636363637 526.4545454545454 Z" fill-opacity="0.7"/><path fill="none" stroke="black" paint-order="fill stroke markers" d=" M 489.6363636363637 526.4545454545454 L 508.54545454545456 526.4545454545454 L 508.54545454545456 526.4545454545454 L 489.6363636363637 526.4545454545454 L 489.6363636363637 526.4545454545454 Z" stroke-linejoin="bevel" stroke-miterlimit="10"/><path fill="mediumslateblue" stroke="none" paint-order="stroke fill markers" d=" M 508.54545454545456 526.4545454545454 L 527.4545454545455 526.4545454545454 L 527.4545454545455 526.4545454545454 L 508.54545454545456 526.4545454545454 L 508.54545454545456 526.4545454545454 Z" fill-opacity="0.7"/><path fill="none" stroke="black" paint-order="fill stroke markers" d=" M 508.54545454545456 526.4545454545454 L 527.4545454545455 526.4545454545454 L 527.4545454545455 526.4545454545454 L 508.54545454545456 526.4545454545454 L 508.54545454545456 526.4545454545454 Z" stroke-linejoin="bevel" stroke-miterlimit="10"/><path fill="mediumslateblue" stroke="none" paint-order="stroke fill markers" d=" M 527.4545454545455 515.989898989899 L 546.3636363636364 515.989898989899 L 546.3636363636364 526.4545454545454 L 527.4545454545455 526.4545454545454 L 527.4545454545455 515.989898989899 Z" fill-opacity="0.7"/><path fill="none" stroke="black" paint-order="fill stroke markers" d=" M 527.4545454545455 515.989898989899 L 546.3636363636364 515.989898989899 L 546.3636363636364 526.4545454545454 L 527.4545454545455 526.4545454545454 L 527.4545454545455 515.989898989899 Z" stroke-linejoin="bevel" stroke-miterlimit="10"/></g></g></g><g><g fill="#444444"><path fill="none" stroke="black" paint-order="fill stroke markers" d=" M 50 550 L 570 550" stroke-linejoin="bevel" stroke-miterlimit="10"/><path fill="none" stroke="black" paint-order="fill stroke markers" d=" M 74 556 L 74 548" stroke-linejoin="bevel" stroke-miterlimit="10"/><path fill="none" stroke="black" paint-order="fill stroke markers" d=" M 149 556 L 149 548" stroke-linejoin="bevel" stroke-miterlimit="10"/><path fill="none" stroke="black" paint-order="fill stroke markers" d=" M 224 556 L 224 548" stroke-linejoin="bevel" stroke-miterlimit="10"/><path fill="none" stroke="black" paint-order="fill stroke markers" d=" M 299 556 L 299 548" stroke-linejoin="bevel" stroke-miterlimit="10"/><path fill="none" stroke="black" paint-order="fill stroke markers" d=" M 374 556 L 374 548" stroke-linejoin="bevel" stroke-miterlimit="10"/><path fill="none" stroke="black" paint-order="fill stroke markers" d=" M 449 556 L 449 548" stroke-linejoin="bevel" stroke-miterlimit="10"/><path fill="none" stroke="black" paint-order="fill stroke markers" d=" M 524 556 L 524 548" stroke-linejoin="bevel" stroke-miterlimit="10"/><path fill="none" stroke="black" paint-order="fill stroke markers" d=" M 59 554 L 59 550" stroke-linejoin="bevel" stroke-miterlimit="10"/><path fill="none" stroke="black" paint-order="fill stroke markers" d=" M 74 554 L 74 550" stroke-linejoin="bevel" stroke-miterlimit="10"/><path fill="none" stroke="black" paint-order="fill stroke markers" d=" M 89 554 L 89 550" stroke-linejoin="bevel" stroke-miterlimit="10"/><path fill="none" stroke="black" paint-order="fill stroke markers" d=" M 104 554 L 104 550" stroke-linejoin="bevel" stroke-miterlimit="10"/><path fill="none" stroke="black" paint-order="fill stroke markers" d=" M 119 554 L 119 550" stroke-linejoin="bevel" stroke-miterlimit="10"/><path fill="none" stroke="black" paint-order="fill stroke markers" d=" M 134 554 L 134 550" stroke-linejoin="bevel" stroke-miterlimit="10"/><path fill="none" stroke="black" paint-order="fill stroke markers" d=" M 149 554 L 149 550" stroke-linejoin="bevel" stroke-miterlimit="10"/><path fill="none" stroke="black" paint-order="fill stroke markers" d=" M 164 554 L 164 550" stroke-linejoin="bevel" stroke-miterlimit="10"/><path fill="none" stroke="black" paint-order="fill stroke markers" d=" M 179 554 L 179 550" stroke-linejoin="bevel" stroke-miterlimit="10"/><path fill="none" stroke="black" paint-order="fill stroke markers" d=" M 194 554 L 194 550" stroke-linejoin="bevel" stroke-miterlimit="10"/><path fill="none" stroke="black" paint-order="fill stroke markers" d=" M 209 554 L 209 550" stroke-linejoin="bevel" stroke-miterlimit="10"/><path fill="none" stroke="black" paint-order="fill stroke markers" d=" M 224 554 L 224 550" stroke-linejoin="bevel" stroke-miterlimit="10"/><path fill="none" stroke="black" paint-order="fill stroke markers" d=" M 239 554 L 239 550" stroke-linejoin="bevel" stroke-miterlimit="10"/><path fill="none" stroke="black" paint-order="fill stroke markers" d=" M 254 554 L 254 550" stroke-linejoin="bevel" stroke-miterlimit="10"/><path fill="none" stroke="black" paint-order="fill stroke markers" d=" M 269 554 L 269 550" stroke-linejoin="bevel" stroke-miterlimit="10"/><path fill="none" stroke="black" paint-order="fill stroke markers" d=" M 284 554 L 284 550" stroke-linejoin="bevel" stroke-miterlimit="10"/><path fill="none" stroke="black" paint-order="fill stroke markers" d=" M 299 554 L 299 550" stroke-linejoin="bevel" stroke-miterlimit="10"/><path fill="none" stroke="black" paint-order="fill stroke markers" d=" M 314 554 L 314 550" stroke-linejoin="bevel" stroke-miterlimit="10"/><path fill="none" stroke="black" paint-order="fill stroke markers" d=" M 329 554 L 329 550" stroke-linejoin="bevel" stroke-miterlimit="10"/><path fill="none" stroke="black" paint-order="fill stroke markers" d=" M 344 554 L 344 550" stroke-linejoin="bevel" stroke-miterlimit="10"/><path fill="none" stroke="black" paint-order="fill stroke markers" d=" M 359 554 L 359 550" stroke-linejoin="bevel" stroke-miterlimit="10"/><path fill="none" stroke="black" paint-order="fill stroke markers" d=" M 374 554 L 374 550" stroke-linejoin="bevel" stroke-miterlimit="10"/><path fill="none" stroke="black" paint-order="fill stroke markers" d=" M 389 554 L 389 550" stroke-linejoin="bevel" stroke-miterlimit="10"/><path fill="none" stroke="black" paint-order="fill stroke markers" d=" M 404 554 L 404 550" stroke-linejoin="bevel" stroke-miterlimit="10"/><path fill="none" stroke="black" paint-order="fill stroke markers" d=" M 419 554 L 419 550" stroke-linejoin="bevel" stroke-miterlimit="10"/><path fill="none" stroke="black" paint-order="fill stroke markers" d=" M 434 554 L 434 550" stroke-linejoin="bevel" stroke-miterlimit="10"/><path fill="none" stroke="black" paint-order="fill stroke markers" d=" M 449 554 L 449 550" stroke-linejoin="bevel" stroke-miterlimit="10"/><path fill="none" stroke="black" paint-order="fill stroke markers" d=" M 464 554 L 464 550" stroke-linejoin="bevel" stroke-miterlimit="10"/><path fill="none" stroke="black" paint-order="fill stroke markers" d=" M 479 554 L 479 550" stroke-linejoin="bevel" stroke-miterlimit="10"/><path fill="none" stroke="black" paint-order="fill stroke markers" d=" M 494 554 L 494 550" stroke-linejoin="bevel" stroke-miterlimit="10"/><path fill="none" stroke="black" paint-order="fill stroke markers" d=" M 509 554 L 509 550" stroke-linejoin="bevel" stroke-miterlimit="10"/><path fill="none" stroke="black" paint-order="fill stroke markers" d=" M 524 554 L 524 550" stroke-linejoin="bevel" stroke-miterlimit="10"/><path fill="none" stroke="black" paint-order="fill stroke markers" d=" M 539 554 L 539 550" stroke-linejoin="bevel" stroke-miterlimit="10"/><path fill="none" stroke="black" paint-order="fill stroke markers" d=" M 554 554 L 554 550" stroke-linejoin="bevel" stroke-miterlimit="10"/><path fill="" stroke="black" paint-order="fill stroke markers" d=" M 569 554 L 569 550" stroke-linejoin="bevel" stroke-miterlimit="10"/><g transform="translate(74,561) rotate(0,0,0)"><text fill="" stroke="none" font-family="helvetica" font-size="11px" font-style="normal" font-weight="normal" text-decoration="normal" x="0" y="0" text-anchor="middle" dominant-baseline="hanging">0.000e+0</text><g transform="rotate(0,0,0) translate(-74,-561) translate(149,561)"><text fill="" stroke="none" font-family="helvetica" font-size="11px" font-style="normal" font-weight="normal" text-decoration="normal" x="0" y="0" text-anchor="middle" dominant-baseline="hanging">5.000e+5</text><g transform="rotate(0,0,0) translate(-149,-561) translate(224,561)"><text fill="" stroke="none" font-family="helvetica" font-size="11px" font-style="normal" font-weight="normal" text-decoration="normal" x="0" y="0" text-anchor="middle" dominant-baseline="hanging">1.000e+6</text><g transform="rotate(0,0,0) translate(-224,-561) translate(299,561)"><text fill="" stroke="none" font-family="helvetica" font-size="11px" font-style="normal" font-weight="normal" text-decoration="normal" x="0" y="0" text-anchor="middle" dominant-baseline="hanging">1.500e+6</text><g transform="rotate(0,0,0) translate(-299,-561) translate(374,561)"><text fill="" stroke="none" font-family="helvetica" font-size="11px" font-style="normal" font-weight="normal" text-decoration="normal" x="0" y="0" text-anchor="middle" dominant-baseline="hanging">2.000e+6</text><g transform="rotate(0,0,0) translate(-374,-561) translate(449,561)"><text fill="" stroke="none" font-family="helvetica" font-size="11px" font-style="normal" font-weight="normal" text-decoration="normal" x="0" y="0" text-anchor="middle" dominant-baseline="hanging">2.500e+6</text><g transform="rotate(0,0,0) translate(-449,-561) translate(524,561)"><text fill="" stroke="none" font-family="helvetica" font-size="11px" font-style="normal" font-weight="normal" text-decoration="normal" x="0" y="0" text-anchor="middle" dominant-baseline="hanging">3.000e+6</text><g transform="rotate(0,0,0) translate(-524,-561) translate(310,581)"><text fill="" stroke="none" font-family="helvetica" font-size="13px" font-style="italic" font-weight="normal" text-decoration="normal" x="0" y="0" text-anchor="middle" dominant-baseline="hanging">Readme and description length (# of characters)</text><g transform="rotate(0,0,0) translate(-310,-581)"/></g></g></g></g></g></g></g></g></g></g><g><g fill="#444444"><path fill="none" stroke="black" paint-order="fill stroke markers" d=" M 50 550 L 50 32" stroke-linejoin="bevel" stroke-miterlimit="10"/><path fill="none" stroke="black" paint-order="fill stroke markers" d=" M 44 526 L 52 526" stroke-linejoin="bevel" stroke-miterlimit="10"/><path fill="none" stroke="black" paint-order="fill stroke markers" d=" M 44 422 L 52 422" stroke-linejoin="bevel" stroke-miterlimit="10"/><path fill="none" stroke="black" paint-order="fill stroke markers" d=" M 44 317 L 52 317" stroke-linejoin="bevel" stroke-miterlimit="10"/><path fill="none" stroke="black" paint-order="fill stroke markers" d=" M 44 213 L 52 213" stroke-linejoin="bevel" stroke-miterlimit="10"/><path fill="none" stroke="black" paint-order="fill stroke markers" d=" M 44 108 L 52 108" stroke-linejoin="bevel" stroke-miterlimit="10"/><path fill="none" stroke="black" paint-order="fill stroke markers" d=" M 46 547 L 50 547" stroke-linejoin="bevel" stroke-miterlimit="10"/><path fill="none" stroke="black" paint-order="fill stroke markers" d=" M 46 526 L 50 526" stroke-linejoin="bevel" stroke-miterlimit="10"/><path fill="none" stroke="black" paint-order="fill stroke markers" d=" M 46 506 L 50 506" stroke-linejoin="bevel" stroke-miterlimit="10"/><path fill="none" stroke="black" paint-order="fill stroke markers" d=" M 46 485 L 50 485" stroke-linejoin="bevel" stroke-miterlimit="10"/><path fill="none" stroke="black" paint-order="fill stroke markers" d=" M 46 464 L 50 464" stroke-linejoin="bevel" stroke-miterlimit="10"/><path fill="none" stroke="black" paint-order="fill stroke markers" d=" M 46 443 L 50 443" stroke-linejoin="bevel" stroke-miterlimit="10"/><path fill="none" stroke="black" paint-order="fill stroke markers" d=" M 46 422 L 50 422" stroke-linejoin="bevel" stroke-miterlimit="10"/><path fill="none" stroke="black" paint-order="fill stroke markers" d=" M 46 401 L 50 401" stroke-linejoin="bevel" stroke-miterlimit="10"/><path fill="none" stroke="black" paint-order="fill stroke markers" d=" M 46 380 L 50 380" stroke-linejoin="bevel" stroke-miterlimit="10"/><path fill="none" stroke="black" paint-order="fill stroke markers" d=" M 46 359 L 50 359" stroke-linejoin="bevel" stroke-miterlimit="10"/><path fill="none" stroke="black" paint-order="fill stroke markers" d=" M 46 338 L 50 338" stroke-linejoin="bevel" stroke-miterlimit="10"/><path fill="none" stroke="black" paint-order="fill stroke markers" d=" M 46 317 L 50 317" stroke-linejoin="bevel" stroke-miterlimit="10"/><path fill="none" stroke="black" paint-order="fill stroke markers" d=" M 46 296 L 50 296" stroke-linejoin="bevel" stroke-miterlimit="10"/><path fill="none" stroke="black" paint-order="fill stroke markers" d=" M 46 275 L 50 275" stroke-linejoin="bevel" stroke-miterlimit="10"/><path fill="none" stroke="black" paint-order="fill stroke markers" d=" M 46 254 L 50 254" stroke-linejoin="bevel" stroke-miterlimit="10"/><path fill="none" stroke="black" paint-order="fill stroke markers" d=" M 46 233 L 50 233" stroke-linejoin="bevel" stroke-miterlimit="10"/><path fill="none" stroke="black" paint-order="fill stroke markers" d=" M 46 213 L 50 213" stroke-linejoin="bevel" stroke-miterlimit="10"/><path fill="none" stroke="black" paint-order="fill stroke markers" d=" M 46 192 L 50 192" stroke-linejoin="bevel" stroke-miterlimit="10"/><path fill="none" stroke="black" paint-order="fill stroke markers" d=" M 46 171 L 50 171" stroke-linejoin="bevel" stroke-miterlimit="10"/><path fill="none" stroke="black" paint-order="fill stroke markers" d=" M 46 150 L 50 150" stroke-linejoin="bevel" stroke-miterlimit="10"/><path fill="none" stroke="black" paint-order="fill stroke markers" d=" M 46 129 L 50 129" stroke-linejoin="bevel" stroke-miterlimit="10"/><path fill="none" stroke="black" paint-order="fill stroke markers" d=" M 46 108 L 50 108" stroke-linejoin="bevel" stroke-miterlimit="10"/><path fill="none" stroke="black" paint-order="fill stroke markers" d=" M 46 87 L 50 87" stroke-linejoin="bevel" stroke-miterlimit="10"/><path fill="none" stroke="black" paint-order="fill stroke markers" d=" M 46 66 L 50 66" stroke-linejoin="bevel" stroke-miterlimit="10"/><path fill="" stroke="black" paint-order="fill stroke markers" d=" M 46 45 L 50 45" stroke-linejoin="bevel" stroke-miterlimit="10"/><g transform="translate(39,526) rotate(0,0,0)"><text fill="" stroke="none" font-family="helvetica" font-size="11px" font-style="normal" font-weight="normal" text-decoration="normal" x="0" y="0" text-anchor="end" dominant-baseline="central">0</text><g transform="rotate(0,0,0) translate(-39,-526) translate(39,422)"><text fill="" stroke="none" font-family="helvetica" font-size="11px" font-style="normal" font-weight="normal" text-decoration="normal" x="0" y="0" text-anchor="end" dominant-baseline="central">10</text><g transform="rotate(0,0,0) translate(-39,-422) translate(39,317)"><text fill="" stroke="none" font-family="helvetica" font-size="11px" font-style="normal" font-weight="normal" text-decoration="normal" x="0" y="0" text-anchor="end" dominant-baseline="central">20</text><g transform="rotate(0,0,0) translate(-39,-317) translate(39,213)"><text fill="" stroke="none" font-family="helvetica" font-size="11px" font-style="normal" font-weight="normal" text-decoration="normal" x="0" y="0" text-anchor="end" dominant-baseline="central">30</text><g transform="rotate(0,0,0) translate(-39,-213) translate(39,108)"><text fill="" stroke="none" font-family="helvetica" font-size="11px" font-style="normal" font-weight="normal" text-decoration="normal" x="0" y="0" text-anchor="end" dominant-baseline="central">40</text><g transform="rotate(0,0,0) translate(-39,-108) translate(19,291) rotate(-90,0,0)"><text fill="" stroke="none" font-family="helvetica" font-size="13px" font-style="italic" font-weight="normal" text-decoration="normal" x="0" y="0" text-anchor="middle" dominant-baseline="alphabetic">Number of repositories</text><g transform="rotate(90,0,0) translate(-19,-291)"/></g></g></g></g></g></g></g></g><g><g fill="#444444"><path fill="" stroke="none" d=""/><g transform="translate(50,27)"><path fill="none" stroke="none"/><text fill="" stroke="none" font-family="helvetica" font-size="13px" font-style="normal" font-weight="bold" text-decoration="normal" x="0" y="0" text-anchor="start" dominant-baseline="text-after-edge">Readme + Description length distribution</text></g></g></g><g/></g></svg>