<svg version="1.1" xmlns="http://www.w3.org/2000/svg" xmlns:xlink="http://www.w3.org/1999/xlink" width="600" height="600"><defs><clipPath id="KnGatVBVOnDc"><path fill="none" stroke="none" d=" M 50 32 L 570 32 L 570 550 L 50 550 L 50 32 Z"/></clipPath><clipPath id="RxfmvCTLsTCo"><path fill="none" stroke="none" d=" M 50 32 L 570 32 L 570 550 L 50 550 L 50 32 Z"/></clipPath><clipPath id="wMNUgbQyoVTl"><path fill="none" stroke="none" d=" M 50 32 L 570 32 L 570 550 L 50 550 L 50 32 Z"/></clipPath></defs><g transform="scale(1,1) translate(0.5,0.5)"><rect fill="#ffffff" stroke="none" x="0" y="0" width="600" height="600"/><rect fill="#FFFFFF" stroke="none" x="50" y="32" width="520" height="518"/><rect fill="#ffffff" stroke="none" x="50" y="32" width="520" height="518"/><g><rect fill="none" stroke="#e5e5e5" x="50" y="32" width="520" height="518" stroke-linejoin="bevel" stroke-miterlimit="10"/></g><g clip-path="url(#KnGatVBVOnDc)"><g><g><path fill="none" stroke="#e5e5e5" paint-order="fill stroke markers" d=" M 74 550 L 74 32" stroke-linejoin="bevel" stroke-miterlimit="10"/><path fill="none" stroke="#e5e5e5" paint-order="fill stroke markers" d=" M 189 550 L 189 32" stroke-linejoin="bevel" stroke-miterlimit="10"/><path fill="none" stroke="#e5e5e5" paint-order="fill stroke markers" d=" M 305 550 L 305 32" stroke-linejoin="bevel" stroke-miterlimit="10"/><path fill="none" stroke="#e5e5e5" paint-order="fill stroke markers" d=" M 421 550 L 421 32" stroke-linejoin="bevel" stroke-miterlimit="10"/><path fill="none" stroke="#e5e5e5" paint-order="fill stroke markers" d=" M 537 550 L 537 32" stroke-linejoin="bevel" stroke-miterlimit="10"/></g></g></g><g clip-path="url(#RxfmvCTLsTCo)"><g><g><path fill="none" stroke="#e5e5e5" paint-order="fill stroke markers" d=" M 50 526 L 570 526" stroke-linejoin="bevel" stroke-miterlimit="10"/><path fill="none" stroke="#e5e5e5" paint-order="fill stroke markers" d=" M 50 406 L 570 406" stroke-linejoin="bevel" stroke-miterlimit="10"/><path fill="none" stroke="#e5e5e5" paint-order="fill stroke markers" d=" M 50 285 L 570 285" stroke-linejoin="bevel" stroke-miterlimit="10"/><path fill="none" stroke="#e5e5e5" paint-order="fill stroke markers" d=" M 50 164 L 570 164" stroke-linejoin="bevel" stroke-miterlimit="10"/><path fill="none" stroke="#e5e5e5" paint-order="fill stroke markers" d=" M 50 43 L 570 43" stroke-linejoin="bevel" stroke-miterlimit="10"/></g></g></g><g clip-path="url(#wMNUgbQyoVTl)"><g><g><path fill="none" stroke="none"/><path fill="mediumslateblue" stroke="none" paint-order="stroke fill markers" d=" M 73.63636363636365 55.545454545454504 L 92.54545454545456 55.545454545454504 L 92.54545454545456 526.4545454545454 L 73.63636363636365 526.4545454545454 L 73.63636363636365 55.545454545454504 Z" fill-opacity="0.7"/><path fill="none" stroke="black" paint-order="fill stroke markers" d=" M 73.63636363636365 55.545454545454504 L 92.54545454545456 55.545454545454504 L 92.54545454545456 526.4545454545454 L 73.63636363636365 526.4545454545454 L 73.63636363636365 55.545454545454504 Z" stroke-linejoin="bevel" stroke-miterlimit="10"/><path fill="mediumslateblue" stroke="none" paint-order="stroke fill markers" d=" M 92.54545454545456 478.1561771561771 L 111.45454545454547 478.1561771561771 L 111.45454545454547 526.4545454545454 L 92.54545454545456 526.4545454545454 L 92.54545454545456 478.1561771561771 Z" fill-opacity="0.7"/><path fill="none" stroke="black" paint-order="fill stroke markers" d=" M 92.54545454545456 478.1561771561771 L 111.45454545454547 478.1561771561771 L 111.45454545454547 526.4545454545454 L 92.54545454545456 526.4545454545454 L 92.54545454545456 478.1561771561771 Z" stroke-linejoin="bevel" stroke-miterlimit="10"/><path fill="mediumslateblue" stroke="none" paint-order="stroke fill markers" d=" M 111.45454545454547 490.23076923076917 L 130.36363636363637 490.23076923076917 L 130.36363636363637 526.4545454545454 L 111.45454545454547 526.4545454545454 L 111.45454545454547 490.23076923076917 Z" fill-opacity="0.7"/><path fill="none" stroke="black" paint-order="fill stroke markers" d=" M 111.45454545454547 490.23076923076917 L 130.36363636363637 490.23076923076917 L 130.36363636363637 526.4545454545454 L 111.45454545454547 526.4545454545454 L 111.45454545454547 490.23076923076917 Z" stroke-linejoin="bevel" stroke-miterlimit="10"/><path fill="mediumslateblue" stroke="none" paint-order="stroke fill markers" d=" M 130.36363636363637 514.3799533799533 L 149.27272727272725 514.3799533799533 L 149.27272727272725 526.4545454545454 L 130.36363636363637 526.4545454545454 L 130.36363636363637 514.3799533799533 Z" fill-opacity="0.7"/><path fill="none" stroke="black" paint-order="fill stroke markers" d=" M 130.36363636363637 514.3799533799533 L 149.27272727272725 514.3799533799533 L 149.27272727272725 526.4545454545454 L 130.36363636363637 526.4545454545454 L 130.36363636363637 514.3799533799533 Z" stroke-linejoin="bevel" stroke-miterlimit="10"/><path fill="mediumslateblue" stroke="none" paint-order="stroke fill markers" d=" M 149.27272727272725 514.3799533799533 L 168.18181818181816 514.3799533799533 L 168.18181818181816 526.4545454545454 L 149.27272727272725 526.4545454545454 L 149.27272727272725 514.3799533799533 Z" fill-opacity="0.7"/><path fill="none" stroke="black" paint-order="fill stroke markers" d=" M 149.27272727272725 514.3799533799533 L 168.18181818181816 514.3799533799533 L 168.18181818181816 526.4545454545454 L 149.27272727272725 526.4545454545454 L 149.27272727272725 514.3799533799533 Z" stroke-linejoin="bevel" stroke-miterlimit="10"/><path fill="mediumslateblue" stroke="none" paint-order="stroke fill markers" d=" M 168.18181818181816 514.3799533799533 L 187.09090909090907 514.3799533799533 L 187.09090909090907 526.4545454545454 L 168.18181818181816 526.4545454545454 L 168.18181818181816 514.3799533799533 Z" fill-opacity="0.7"/><path fill="none" stroke="black" paint-order="fill stroke markers" d=" M 168.18181818181816 514.3799533799533 L 187.09090909090907 514.3799533799533 L 187.09090909090907 526.4545454545454 L 168.18181818181816 526.4545454545454 L 168.18181818181816 514.3799533799533 Z" stroke-linejoin="bevel" stroke-miterlimit="10"/><path fill="mediumslateblue" stroke="none" paint-order="stroke fill markers" d=" M 187.09090909090907 526.4545454545454 L 206 526.4545454545454 L 206 526.4545454545454 L 187.09090909090907 526.4545454545454 L 187.09090909090907 526.4545454545454 Z" fill-opacity="0.7"/><path fill="none" stroke="black" paint-order="fill stroke markers" d=" M 187.09090909090907 526.4545454545454 L 206 526.4545454545454 L 206 526.4545454545454 L 187.09090909090907 526.4545454545454 L 187.09090909090907 526.4545454545454 Z" stroke-linejoin="bevel" stroke-miterlimit="10"/><path fill="mediumslateblue" stroke="none" paint-order="stroke fill markers" d=" M 206 526.4545454545454 L 224.90909090909088 526.4545454545454 L 224.90909090909088 526.4545454545454 L 206 526.4545454545454 L 206 526.4545454545454 Z" fill-opacity="0.7"/><path fill="none" stroke="black" paint-order="fill stroke markers" d=" M 206 526.4545454545454 L 224.90909090909088 526.4545454545454 L 224.90909090909088 526.4545454545454 L 206 526.4545454545454 L 206 526.4545454545454 Z" stroke-linejoin="bevel" stroke-miterlimit="10"/><path fill="mediumslateblue" stroke="none" paint-order="stroke fill markers" d=" M 224.90909090909088 526.4545454545454 L 243.81818181818176 526.4545454545454 L 243.81818181818176 526.4545454545454 L 224.90909090909088 526.4545454545454 L 224.90909090909088 526.4545454545454 Z" fill-opacity="0.7"/><path fill="none" stroke="black" paint-order="fill stroke markers" d=" M 224.90909090909088 526.4545454545454 L 243.81818181818176 526.4545454545454 L 243.81818181818176 526.4545454545454 L 224.90909090909088 526.4545454545454 L 224.90909090909088 526.4545454545454 Z" stroke-linejoin="bevel" stroke-miterlimit="10"/><path fill="mediumslateblue" stroke="none" paint-order="stroke fill markers" d=" M 243.81818181818176 526.4545454545454 L 262.7272727272727 526.4545454545454 L 262.7272727272727 526.4545454545454 L 243.81818181818176 526.4545454545454 L 243.81818181818176 526.4545454545454 Z" fill-opacity="0.7"/><path fill="none" stroke="black" paint-order="fill stroke markers" d=" M 243.81818181818176 526.4545454545454 L 262.7272727272727 526.4545454545454 L 262.7272727272727 526.4545454545454 L 243.81818181818176 526.4545454545454 L 243.81818181818176 526.4545454545454 Z" stroke-linejoin="bevel" stroke-miterlimit="10"/><path fill="mediumslateblue" stroke="none" paint-order="stroke fill markers" d=" M 262.7272727272727 526.4545454545454 L 281.63636363636357 526.4545454545454 L 281.63636363636357 526.4545454545454 L 262.7272727272727 526.4545454545454 L 262.7272727272727 526.4545454545454 Z" fill-opacity="0.7"/><path fill="none" stroke="black" paint-order="fill stroke markers" d=" M 262.7272727272727 526.4545454545454 L 281.63636363636357 526.4545454545454 L 281.63636363636357 526.4545454545454 L 262.7272727272727 526.4545454545454 L 262.7272727272727 526.4545454545454 Z" stroke-linejoin="bevel" stroke-miterlimit="10"/><path fill="mediumslateblue" stroke="none" paint-order="stroke fill markers" d=" M 281.63636363636357 526.4545454545454 L 300.5454545454545 526.4545454545454 L 300.5454545454545 526.4545454545454 L 281.63636363636357 526.4545454545454 L 281.63636363636357 526.4545454545454 Z" fill-opacity="0.7"/><path fill="none" stroke="black" paint-order="fill stroke markers" d=" M 281.63636363636357 526.4545454545454 L 300.5454545454545 526.4545454545454 L 300.5454545454545 526.4545454545454 L 281.63636363636357 526.4545454545454 L 281.63636363636357 526.4545454545454 Z" stroke-linejoin="bevel" stroke-miterlimit="10"/><path fill="mediumslateblue" stroke="none" paint-order="stroke fill markers" d=" M 300.5454545454545 526.4545454545454 L 319.4545454545454 526.4545454545454 L 319.4545454545454 526.4545454545454 L 300.5454545454545 526.4545454545454 L 300.5454545454545 526.4545454545454 Z" fill-opacity="0.7"/><path fill="none" stroke="black" paint-order="fill stroke markers" d=" M 300.5454545454545 526.4545454545454 L 319.4545454545454 526.4545454545454 L 319.4545454545454 526.4545454545454 L 300.5454545454545 526.4545454545454 L 300.5454545454545 526.4545454545454 Z" stroke-linejoin="bevel" stroke-miterlimit="10"/><path fill="mediumslateblue" stroke="none" paint-order="stroke fill markers" d=" M 319.4545454545454 526.4545454545454 L 338.3636363636363 526.4545454545454 L 338.3636363636363 526.4545454545454 L 319.4545454545454 526.4545454545454 L 319.4545454545454 526.4545454545454 Z" fill-opacity="0.7"/><path fill="none" stroke="black" paint-order="fill stroke markers" d=" M 319.4545454545454 526.4545454545454 L 338.3636363636363 526.4545454545454 L 338.3636363636363 526.4545454545454 L 319.4545454545454 526.4545454545454 L 319.4545454545454 526.4545454545454 Z" stroke-linejoin="bevel" stroke-miterlimit="10"/><path fill="mediumslateblue" stroke="none" paint-order="stroke fill markers" d=" M 338.3636363636363 526.4545454545454 L 357.2727272727272 526.4545454545454 L 357.2727272727272 526.4545454545454 L 338.3636363636363 526.4545454545454 L 338.3636363636363 526.4545454545454 Z" fill-opacity="0.7"/><path fill="none" stroke="black" paint-order="fill stroke markers" d=" M 338.3636363636363 526.4545454545454 L 357.2727272727272 526.4545454545454 L 357.2727272727272 526.4545454545454 L 338.3636363636363 526.4545454545454 L 338.3636363636363 526.4545454545454 Z" stroke-linejoin="bevel" stroke-miterlimit="10"/><path fill="mediumslateblue" stroke="none" paint-order="stroke fill markers" d=" M 357.2727272727272 526.4545454545454 L 376.18181818181813 526.4545454545454 L 376.18181818181813 526.4545454545454 L 357.2727272727272 526.4545454545454 L 357.2727272727272 526.4545454545454 Z" fill-opacity="0.7"/><path fill="none" stroke="black" paint-order="fill stroke markers" d=" M 357.2727272727272 526.4545454545454 L 376.18181818181813 526.4545454545454 L 376.18181818181813 526.4545454545454 L 357.2727272727272 526.4545454545454 L 357.2727272727272 526.4545454545454 Z" stroke-linejoin="bevel" stroke-miterlimit="10"/><path fill="mediumslateblue" stroke="none" paint-order="stroke fill markers" d=" M 376.18181818181813 526.4545454545454 L 395.090909090909 526.4545454545454 L 395.090909090909 526.4545454545454 L 376.18181818181813 526.4545454545454 L 376.18181818181813 526.4545454545454 Z" fill-opacity="0.7"/><path fill="none" stroke="black" paint-order="fill stroke markers" d=" M 376.18181818181813 526.4545454545454 L 395.090909090909 526.4545454545454 L 395.090909090909 526.4545454545454 L 376.18181818181813 526.4545454545454 L 376.18181818181813 526.4545454545454 Z" stroke-linejoin="bevel" stroke-miterlimit="10"/><path fill="mediumslateblue" stroke="none" paint-order="stroke fill markers" d=" M 395.090909090909 526.4545454545454 L 413.9999999999999 526.4545454545454 L 413.9999999999999 526.4545454545454 L 395.090909090909 526.4545454545454 L 395.090909090909 526.4545454545454 Z" fill-opacity="0.7"/><path fill="none" stroke="black" paint-order="fill stroke markers" d=" M 395.090909090909 526.4545454545454 L 413.9999999999999 526.4545454545454 L 413.9999999999999 526.4545454545454 L 395.090909090909 526.4545454545454 L 395.090909090909 526.4545454545454 Z" stroke-linejoin="bevel" stroke-miterlimit="10"/><path fill="mediumslateblue" stroke="none" paint-order="stroke fill markers" d=" M 413.9999999999999 526.4545454545454 L 432.9090909090908 526.4545454545454 L 432.9090909090908 526.4545454545454 L 413.9999999999999 526.4545454545454 L 413.9999999999999 526.4545454545454 Z" fill-opacity="0.7"/><path fill="none" stroke="black" paint-order="fill stroke markers" d=" M 413.9999999999999 526.4545454545454 L 432.9090909090908 526.4545454545454 L 432.9090909090908 526.4545454545454 L 413.9999999999999 526.4545454545454 L 413.9999999999999 526.4545454545454 Z" stroke-linejoin="bevel" stroke-miterlimit="10"/><path fill="mediumslateblue" stroke="none" paint-order="stroke fill markers" d=" M 432.9090909090908 526.4545454545454 L 451.8181818181817 526.4545454545454 L 451.8181818181817 526.4545454545454 L 432.9090909090908 526.4545454545454 L 432.9090909090908 526.4545454545454 Z" fill-opacity="0.7"/><path fill="none" stroke="black" paint-order="fill stroke markers" d=" M 432.9090909090908 526.4545454545454 L 451.8181818181817 526.4545454545454 L 451.8181818181817 526.4545454545454 L 432.9090909090908 526.4545454545454 L 432.9090909090908 526.4545454545454 Z" stroke-linejoin="bevel" stroke-miterlimit="10"/><path fill="mediumslateblue" stroke="none" paint-order="stroke fill markers" d=" M 451.8181818181817 526.4545454545454 L 470.72727272727263 526.4545454545454 L 470.72727272727263 526.4545454545454 L 451.8181818181817 526.4545454545454 L 451.8181818181817 526.4545454545454 Z" fill-opacity="0.7"/><path fill="none" stroke="black" paint-order="fill stroke markers" d=" M 451.8181818181817 526.4545454545454 L 470.72727272727263 526.4545454545454 L 470.72727272727263 526.4545454545454 L 451.8181818181817 526.4545454545454 L 451.8181818181817 526.4545454545454 Z" stroke-linejoin="bevel" stroke-miterlimit="10"/><path fill="mediumslateblue" stroke="none" paint-order="stroke fill markers" d=" M 470.72727272727263 526.4545454545454 L 489.6363636363635 526.4545454545454 L 489.6363636363635 526.4545454545454 L 470.72727272727263 526.4545454545454 L 470.72727272727263 526.4545454545454 Z" fill-opacity="0.7"/><path fill="none" stroke="black" paint-order="fill stroke markers" d=" M 470.72727272727263 526.4545454545454 L 489.6363636363635 526.4545454545454 L 489.6363636363635 526.4545454545454 L 470.72727272727263 526.4545454545454 L 470.72727272727263 526.4545454545454 Z" stroke-linejoin="bevel" stroke-miterlimit="10"/><path fill="mediumslateblue" stroke="none" paint-order="stroke fill markers" d=" M 489.6363636363635 526.4545454545454 L 508.54545454545445 526.4545454545454 L 508.54545454545445 526.4545454545454 L 489.6363636363635 526.4545454545454 L 489.6363636363635 526.4545454545454 Z" fill-opacity="0.7"/><path fill="none" stroke="black" paint-order="fill stroke markers" d=" M 489.6363636363635 526.4545454545454 L 508.54545454545445 526.4545454545454 L 508.54545454545445 526.4545454545454 L 489.6363636363635 526.4545454545454 L 489.6363636363635 526.4545454545454 Z" stroke-linejoin="bevel" stroke-miterlimit="10"/><path fill="mediumslateblue" stroke="none" paint-order="stroke fill markers" d=" M 508.54545454545445 526.4545454545454 L 527.4545454545453 526.4545454545454 L 527.4545454545453 526.4545454545454 L 508.54545454545445 526.4545454545454 L 508.54545454545445 526.4545454545454 Z" fill-opacity="0.7"/><path fill="none" stroke="black" paint-order="fill stroke markers" d=" M 508.54545454545445 526.4545454545454 L 527.4545454545453 526.4545454545454 L 527.4545454545453 526.4545454545454 L 508.54545454545445 526.4545454545454 L 508.54545454545445 526.4545454545454 Z" stroke-linejoin="bevel" stroke-miterlimit="10"/><path fill="mediumslateblue" stroke="none" paint-order="stroke fill markers" d=" M 527.4545454545453 514.3799533799533 L 546.3636363636361 514.3799533799533 L 546.3636363636361 526.4545454545454 L 527.4545454545453 526.4545454545454 L 527.4545454545453 514.3799533799533 Z" fill-opacity="0.7"/><path fill="none" stroke="black" paint-order="fill stroke markers" d=" M 527.4545454545453 514.3799533799533 L 546.3636363636361 514.3799533799533 L 546.3636363636361 526.4545454545454 L 527.4545454545453 526.4545454545454 L 527.4545454545453 514.3799533799533 Z" stroke-linejoin="bevel" stroke-miterlimit="10"/></g></g></g><g><g fill="#444444"><path fill="none" stroke="black" paint-order="fill stroke markers" d=" M 50 550 L 570 550" stroke-linejoin="bevel" stroke-miterlimit="10"/><path fill="none" stroke="black" paint-order="fill stroke markers" d=" M 74 556 L 74 548" stroke-linejoin="bevel" stroke-miterlimit="10"/><path fill="none" stroke="black" paint-order="fill stroke markers" d=" M 189 556 L 189 548" stroke-linejoin="bevel" stroke-miterlimit="10"/><path fill="none" stroke="black" paint-order="fill stroke markers" d=" M 305 556 L 305 548" stroke-linejoin="bevel" stroke-miterlimit="10"/><path fill="none" stroke="black" paint-order="fill stroke markers" d=" M 421 556 L 421 548" stroke-linejoin="bevel" stroke-miterlimit="10"/><path fill="none" stroke="black" paint-order="fill stroke markers" d=" M 537 556 L 537 548" stroke-linejoin="bevel" stroke-miterlimit="10"/><path fill="none" stroke="black" paint-order="fill stroke markers" d=" M 50 554 L 50 550" stroke-linejoin="bevel" stroke-miterlimit="10"/><path fill="none" stroke="black" paint-order="fill stroke markers" d=" M 74 554 L 74 550" stroke-linejoin="bevel" stroke-miterlimit="10"/><path fill="none" stroke="black" paint-order="fill stroke markers" d=" M 97 554 L 97 550" stroke-linejoin="bevel" stroke-miterlimit="10"/><path fill="none" stroke="black" paint-order="fill stroke markers" d=" M 120 554 L 120 550" stroke-linejoin="bevel" stroke-miterlimit="10"/><path fill="none" stroke="black" paint-order="fill stroke markers" d=" M 143 554 L 143 550" stroke-linejoin="bevel" stroke-miterlimit="10"/><path fill="none" stroke="black" paint-order="fill stroke markers" d=" M 166 554 L 166 550" stroke-linejoin="bevel" stroke-miterlimit="10"/><path fill="none" stroke="black" paint-order="fill stroke markers" d=" M 189 554 L 189 550" stroke-linejoin="bevel" stroke-miterlimit="10"/><path fill="none" stroke="black" paint-order="fill stroke markers" d=" M 213 554 L 213 550" stroke-linejoin="bevel" stroke-miterlimit="10"/><path fill="none" stroke="black" paint-order="fill stroke markers" d=" M 236 554 L 236 550" stroke-linejoin="bevel" stroke-miterlimit="10"/><path fill="none" stroke="black" paint-order="fill stroke markers" d=" M 259 554 L 259 550" stroke-linejoin="bevel" stroke-miterlimit="10"/><path fill="none" stroke="black" paint-order="fill stroke markers" d=" M 282 554 L 282 550" stroke-linejoin="bevel" stroke-miterlimit="10"/><path fill="none" stroke="black" paint-order="fill stroke markers" d=" M 305 554 L 305 550" stroke-linejoin="bevel" stroke-miterlimit="10"/><path fill="none" stroke="black" paint-order="fill stroke markers" d=" M 329 554 L 329 550" stroke-linejoin="bevel" stroke-miterlimit="10"/><path fill="none" stroke="black" paint-order="fill stroke markers" d=" M 352 554 L 352 550" stroke-linejoin="bevel" stroke-miterlimit="10"/><path fill="none" stroke="black" paint-order="fill stroke markers" d=" M 375 554 L 375 550" stroke-linejoin="bevel" stroke-miterlimit="10"/><path fill="none" stroke="black" paint-order="fill stroke markers" d=" M 398 554 L 398 550" stroke-linejoin="bevel" stroke-miterlimit="10"/><path fill="none" stroke="black" paint-order="fill stroke markers" d=" M 421 554 L 421 550" stroke-linejoin="bevel" stroke-miterlimit="10"/><path fill="none" stroke="black" paint-order="fill stroke markers" d=" M 444 554 L 444 550" stroke-linejoin="bevel" stroke-miterlimit="10"/><path fill="none" stroke="black" paint-order="fill stroke markers" d=" M 468 554 L 468 550" stroke-linejoin="bevel" stroke-miterlimit="10"/><path fill="none" stroke="black" paint-order="fill stroke markers" d=" M 491 554 L 491 550" stroke-linejoin="bevel" stroke-miterlimit="10"/><path fill="none" stroke="black" paint-order="fill stroke markers" d=" M 514 554 L 514 550" stroke-linejoin="bevel" stroke-miterlimit="10"/><path fill="none" stroke="black" paint-order="fill stroke markers" d=" M 537 554 L 537 550" stroke-linejoin="bevel" stroke-miterlimit="10"/><path fill="" stroke="black" paint-order="fill stroke markers" d=" M 560 554 L 560 550" stroke-linejoin="bevel" stroke-miterlimit="10"/><g transform="translate(74,561) rotate(0,0,0)"><text fill="" stroke="none" font-family="helvetica" font-size="11px" font-style="normal" font-weight="normal" text-decoration="normal" x="0" y="0" text-anchor="middle" dominant-baseline="hanging">0.000e+0</text><g transform="rotate(0,0,0) translate(-74,-561) translate(189,561)"><text fill="" stroke="none" font-family="helvetica" font-size="11px" font-style="normal" font-weight="normal" text-decoration="normal" x="0" y="0" text-anchor="middle" dominant-baseline="hanging">5.000e+5</text><g transform="rotate(0,0,0) translate(-189,-561) translate(305,561)"><text fill="" stroke="none" font-family="helvetica" font-size="11px" font-style="normal" font-weight="normal" text-decoration="normal" x="0" y="0" text-anchor="middle" dominant-baseline="hanging">1.000e+6</text><g transform="rotate(0,0,0) translate(-305,-561) translate(421,561)"><text fill="" stroke="none" font-family="helvetica" font-size="11px" font-style="normal" font-weight="normal" text-decoration="normal" x="0" y="0" text-anchor="middle" dominant-baseline="hanging">1.500e+6</text><g transform="rotate(0,0,0) translate(-421,-561) translate(537,561)"><text fill="" stroke="none" font-family="helvetica" font-size="11px" font-style="normal" font-weight="normal" text-decoration="normal" x="0" y="0" text-anchor="middle" dominant-baseline="hanging">2.000e+6</text><g transform="rotate(0,0,0) translate(-537,-561) translate(310,581)"><text fill="" stroke="none" font-family="helvetica" font-size="13px" font-style="italic" font-weight="normal" text-decoration="normal" x="0" y="0" text-anchor="middle" dominant-baseline="hanging">Readme and description length (# of characters)</text><g transform="rotate(0,0,0) translate(-310,-581)"/></g></g></g></g></g></g></g></g><g><g fill="#444444"><path fill="none" stroke="black" paint-order="fill stroke markers" d=" M 50 550 L 50 32" stroke-linejoin="bevel" stroke-miterlimit="10"/><path fill="none" stroke="black" paint-order="fill stroke markers" d=" M 44 526 L 52 526" stroke-linejoin="bevel" stroke-miterlimit="10"/><path fill="none" stroke="black" paint-order="fill stroke markers" d=" M 44 406 L 52 406" stroke-linejoin="bevel" stroke-miterlimit="10"/><path fill="none" stroke="black" paint-order="fill stroke markers" d=" M 44 285 L 52 285" stroke-linejoin="bevel" stroke-miterlimit="10"/><path fill="none" stroke="black" paint-order="fill stroke markers" d=" M 44 164 L 52 164" stroke-linejoin="bevel" stroke-miterlimit="10"/><path fill="none" stroke="black" paint-order="fill stroke markers" d=" M 44 43 L 52 43" stroke-linejoin="bevel" stroke-miterlimit="10"/><path fill="none" stroke="black" paint-order="fill stroke markers" d=" M 46 526 L 50 526" stroke-linejoin="bevel" stroke-miterlimit="10"/><path fill="none" stroke="black" paint-order="fill stroke markers" d=" M 46 502 L 50 502" stroke-linejoin="bevel" stroke-miterlimit="10"/><path fill="none" stroke="black" paint-order="fill stroke markers" d=" M 46 478 L 50 478" stroke-linejoin="bevel" stroke-miterlimit="10"/><path fill="none" stroke="black" paint-order="fill stroke markers" d=" M 46 454 L 50 454" stroke-linejoin="bevel" stroke-miterlimit="10"/><path fill="none" stroke="black" paint-order="fill stroke markers" d=" M 46 430 L 50 430" stroke-linejoin="bevel" stroke-miterlimit="10"/><path fill="none" stroke="black" paint-order="fill stroke markers" d=" M 46 406 L 50 406" stroke-linejoin="bevel" stroke-miterlimit="10"/><path fill="none" stroke="black" paint-order="fill stroke markers" d=" M 46 382 L 50 382" stroke-linejoin="bevel" stroke-miterlimit="10"/><path fill="none" stroke="black" paint-order="fill stroke markers" d=" M 46 357 L 50 357" stroke-linejoin="bevel" stroke-miterlimit="10"/><path fill="none" stroke="black" paint-order="fill stroke markers" d=" M 46 333 L 50 333" stroke-linejoin="bevel" stroke-miterlimit="10"/><path fill="none" stroke="black" paint-order="fill stroke markers" d=" M 46 309 L 50 309" stroke-linejoin="bevel" stroke-miterlimit="10"/><path fill="none" stroke="black" paint-order="fill stroke markers" d=" M 46 285 L 50 285" stroke-linejoin="bevel" stroke-miterlimit="10"/><path fill="none" stroke="black" paint-order="fill stroke markers" d=" M 46 261 L 50 261" stroke-linejoin="bevel" stroke-miterlimit="10"/><path fill="none" stroke="black" paint-order="fill stroke markers" d=" M 46 237 L 50 237" stroke-linejoin="bevel" stroke-miterlimit="10"/><path fill="none" stroke="black" paint-order="fill stroke markers" d=" M 46 213 L 50 213" stroke-linejoin="bevel" stroke-miterlimit="10"/><path fill="none" stroke="black" paint-order="fill stroke markers" d=" M 46 188 L 50 188" stroke-linejoin="bevel" stroke-miterlimit="10"/><path fill="none" stroke="black" paint-order="fill stroke markers" d=" M 46 164 L 50 164" stroke-linejoin="bevel" stroke-miterlimit="10"/><path fill="none" stroke="black" paint-order="fill stroke markers" d=" M 46 140 L 50 140" stroke-linejoin="bevel" stroke-miterlimit="10"/><path fill="none" stroke="black" paint-order="fill stroke markers" d=" M 46 116 L 50 116" stroke-linejoin="bevel" stroke-miterlimit="10"/><path fill="none" stroke="black" paint-order="fill stroke markers" d=" M 46 92 L 50 92" stroke-linejoin="bevel" stroke-miterlimit="10"/><path fill="none" stroke="black" paint-order="fill stroke markers" d=" M 46 68 L 50 68" stroke-linejoin="bevel" stroke-miterlimit="10"/><path fill="" stroke="black" paint-order="fill stroke markers" d=" M 46 43 L 50 43" stroke-linejoin="bevel" stroke-miterlimit="10"/><g transform="translate(39,526) rotate(0,0,0)"><text fill="" stroke="none" font-family="helvetica" font-size="11px" font-style="normal" font-weight="normal" text-decoration="normal" x="0" y="0" text-anchor="end" dominant-baseline="central">0</text><g transform="rotate(0,0,0) translate(-39,-526) translate(39,406)"><text fill="" stroke="none" font-family="helvetica" font-size="11px" font-style="normal" font-weight="normal" text-decoration="normal" x="0" y="0" text-anchor="end" dominant-baseline="central">10</text><g transform="rotate(0,0,0) translate(-39,-406) translate(39,285)"><text fill="" stroke="none" font-family="helvetica" font-size="11px" font-style="normal" font-weight="normal" text-decoration="normal" x="0" y="0" text-anchor="end" dominant-baseline="central">20</text><g transform="rotate(0,0,0) translate(-39,-285) translate(39,164)"><text fill="" stroke="none" font-family="helvetica" font-size="11px" font-style="normal" font-weight="normal" text-decoration="normal" x="0" y="0" text-anchor="end" dominant-baseline="central">30</text><g transform="rotate(0,0,0) translate(-39,-164) translate(39,43)"><text fill="" stroke="none" font-family="helvetica" font-size="11px" font-style="normal" font-weight="normal" text-decoration="normal" x="0" y="0" text-anchor="end" dominant-baseline="central">40</text><g transform="rotate(0,0,0) translate(-39,-43) translate(19,291) rotate(-90,0,0)"><text fill="" stroke="none" font-family="helvetica" font-size="13px" font-style="italic" font-weight="normal" text-decoration="normal" x="0" y="0" text-anchor="middle" dominant-baseline="alphabetic">Number of repositories</text><g transform="rotate(90,0,0) translate(-19,-291)"/></g></g></g></g></g></g></g></g><g><g fill="#444444"><path fill="" stroke="none" d=""/><g transform="translate(50,27)"><path fill="none" stroke="none"/><text fill="" stroke="none" font-family="helvetica" font-size="13px" font-style="normal" font-weight="bold" text-decoration="normal" x="0" y="0" text-anchor="start" dominant-baseline="text-after-edge">Readme + Description length distribution</text></g></g></g><g/></g></svg>