<svg version="1.1" xmlns="http://www.w3.org/2000/svg" xmlns:xlink="http://www.w3.org/1999/xlink" width="600" height="600"><defs><clipPath id="rfUBIftlTRJS"><path fill="none" stroke="none" d=" M 50 32 L 570 32 L 570 550 L 50 550 L 50 32 Z"/></clipPath><clipPath id="NrMvIZcqUFmp"><path fill="none" stroke="none" d=" M 50 32 L 570 32 L 570 550 L 50 550 L 50 32 Z"/></clipPath><clipPath id="ptTusbGVxgLM"><path fill="none" stroke="none" d=" M 50 32 L 570 32 L 570 550 L 50 550 L 50 32 Z"/></clipPath></defs><g transform="scale(1,1) translate(0.5,0.5)"><rect fill="#ffffff" stroke="none" x="0" y="0" width="600" height="600"/><rect fill="#FFFFFF" stroke="none" x="50" y="32" width="520" height="518"/><rect fill="#ffffff" stroke="none" x="50" y="32" width="520" height="518"/><g><rect fill="none" stroke="#e5e5e5" x="50" y="32" width="520" height="518" stroke-linejoin="bevel" stroke-miterlimit="10"/></g><g clip-path="url(#rfUBIftlTRJS)"><g><g><path fill="none" stroke="#e5e5e5" paint-order="fill stroke markers" d=" M 74 550 L 74 32" stroke-linejoin="bevel" stroke-miterlimit="10"/><path fill="none" stroke="#e5e5e5" paint-order="fill stroke markers" d=" M 190 550 L 190 32" stroke-linejoin="bevel" stroke-miterlimit="10"/><path fill="none" stroke="#e5e5e5" paint-order="fill stroke markers" d=" M 306 550 L 306 32" stroke-linejoin="bevel" stroke-miterlimit="10"/><path fill="none" stroke="#e5e5e5" paint-order="fill stroke markers" d=" M 422 550 L 422 32" stroke-linejoin="bevel" stroke-miterlimit="10"/><path fill="none" stroke="#e5e5e5" paint-order="fill stroke markers" d=" M 538 550 L 538 32" stroke-linejoin="bevel" stroke-miterlimit="10"/></g></g></g><g clip-path="url(#NrMvIZcqUFmp)"><g><g><path fill="none" stroke="#e5e5e5" paint-order="fill stroke markers" d=" M 50 526 L 570 526" stroke-linejoin="bevel" stroke-miterlimit="10"/><path fill="none" stroke="#e5e5e5" paint-order="fill stroke markers" d=" M 50 414 L 570 414" stroke-linejoin="bevel" stroke-miterlimit="10"/><path fill="none" stroke="#e5e5e5" paint-order="fill stroke markers" d=" M 50 302 L 570 302" stroke-linejoin="bevel" stroke-miterlimit="10"/><path fill="none" stroke="#e5e5e5" paint-order="fill stroke markers" d=" M 50 190 L 570 190" stroke-linejoin="bevel" stroke-miterlimit="10"/><path fill="none" stroke="#e5e5e5" paint-order="fill stroke markers" d=" M 50 78 L 570 78" stroke-linejoin="bevel" stroke-miterlimit="10"/></g></g></g><g clip-path="url(#ptTusbGVxgLM)"><g><g><path fill="none" stroke="none"/><path fill="mediumslateblue" stroke="none" paint-order="stroke fill markers" d=" M 73.63636363636365 55.54545454545462 L 92.54545454545456 55.54545454545462 L 92.54545454545456 526.4545454545455 L 73.63636363636365 526.4545454545455 L 73.63636363636365 55.54545454545462 Z" fill-opacity="0.7"/><path fill="none" stroke="black" paint-order="fill stroke markers" d=" M 73.63636363636365 55.54545454545462 L 92.54545454545456 55.54545454545462 L 92.54545454545456 526.4545454545455 L 73.63636363636365 526.4545454545455 L 73.63636363636365 55.54545454545462 Z" stroke-linejoin="bevel" stroke-miterlimit="10"/><path fill="mediumslateblue" stroke="none" paint-order="stroke fill markers" d=" M 92.54545454545456 459.18181818181824 L 111.45454545454547 459.18181818181824 L 111.45454545454547 526.4545454545455 L 92.54545454545456 526.4545454545455 L 92.54545454545456 459.18181818181824 Z" fill-opacity="0.7"/><path fill="none" stroke="black" paint-order="fill stroke markers" d=" M 92.54545454545456 459.18181818181824 L 111.45454545454547 459.18181818181824 L 111.45454545454547 526.4545454545455 L 92.54545454545456 526.4545454545455 L 92.54545454545456 459.18181818181824 Z" stroke-linejoin="bevel" stroke-miterlimit="10"/><path fill="mediumslateblue" stroke="none" paint-order="stroke fill markers" d=" M 111.45454545454547 302.21212121212125 L 130.36363636363637 302.21212121212125 L 130.36363636363637 526.4545454545455 L 111.45454545454547 526.4545454545455 L 111.45454545454547 302.21212121212125 Z" fill-opacity="0.7"/><path fill="none" stroke="black" paint-order="fill stroke markers" d=" M 111.45454545454547 302.21212121212125 L 130.36363636363637 302.21212121212125 L 130.36363636363637 526.4545454545455 L 111.45454545454547 526.4545454545455 L 111.45454545454547 302.21212121212125 Z" stroke-linejoin="bevel" stroke-miterlimit="10"/><path fill="mediumslateblue" stroke="none" paint-order="stroke fill markers" d=" M 130.36363636363637 436.7575757575758 L 149.27272727272725 436.7575757575758 L 149.27272727272725 526.4545454545455 L 130.36363636363637 526.4545454545455 L 130.36363636363637 436.7575757575758 Z" fill-opacity="0.7"/><path fill="none" stroke="black" paint-order="fill stroke markers" d=" M 130.36363636363637 436.7575757575758 L 149.27272727272725 436.7575757575758 L 149.27272727272725 526.4545454545455 L 130.36363636363637 526.4545454545455 L 130.36363636363637 436.7575757575758 Z" stroke-linejoin="bevel" stroke-miterlimit="10"/><path fill="mediumslateblue" stroke="none" paint-order="stroke fill markers" d=" M 149.27272727272725 436.7575757575758 L 168.1818181818182 436.7575757575758 L 168.1818181818182 526.4545454545455 L 149.27272727272725 526.4545454545455 L 149.27272727272725 436.7575757575758 Z" fill-opacity="0.7"/><path fill="none" stroke="black" paint-order="fill stroke markers" d=" M 149.27272727272725 436.7575757575758 L 168.1818181818182 436.7575757575758 L 168.1818181818182 526.4545454545455 L 149.27272727272725 526.4545454545455 L 149.27272727272725 436.7575757575758 Z" stroke-linejoin="bevel" stroke-miterlimit="10"/><path fill="mediumslateblue" stroke="none" paint-order="stroke fill markers" d=" M 168.1818181818182 481.6060606060606 L 187.0909090909091 481.6060606060606 L 187.0909090909091 526.4545454545455 L 168.1818181818182 526.4545454545455 L 168.1818181818182 481.6060606060606 Z" fill-opacity="0.7"/><path fill="none" stroke="black" paint-order="fill stroke markers" d=" M 168.1818181818182 481.6060606060606 L 187.0909090909091 481.6060606060606 L 187.0909090909091 526.4545454545455 L 168.1818181818182 526.4545454545455 L 168.1818181818182 481.6060606060606 Z" stroke-linejoin="bevel" stroke-miterlimit="10"/><path fill="mediumslateblue" stroke="none" paint-order="stroke fill markers" d=" M 187.0909090909091 504.03030303030306 L 206 504.03030303030306 L 206 526.4545454545455 L 187.0909090909091 526.4545454545455 L 187.0909090909091 504.03030303030306 Z" fill-opacity="0.7"/><path fill="none" stroke="black" paint-order="fill stroke markers" d=" M 187.0909090909091 504.03030303030306 L 206 504.03030303030306 L 206 526.4545454545455 L 187.0909090909091 526.4545454545455 L 187.0909090909091 504.03030303030306 Z" stroke-linejoin="bevel" stroke-miterlimit="10"/><path fill="mediumslateblue" stroke="none" paint-order="stroke fill markers" d=" M 206 504.03030303030306 L 224.90909090909088 504.03030303030306 L 224.90909090909088 526.4545454545455 L 206 526.4545454545455 L 206 504.03030303030306 Z" fill-opacity="0.7"/><path fill="none" stroke="black" paint-order="fill stroke markers" d=" M 206 504.03030303030306 L 224.90909090909088 504.03030303030306 L 224.90909090909088 526.4545454545455 L 206 526.4545454545455 L 206 504.03030303030306 Z" stroke-linejoin="bevel" stroke-miterlimit="10"/><path fill="mediumslateblue" stroke="none" paint-order="stroke fill markers" d=" M 224.90909090909088 526.4545454545455 L 243.81818181818176 526.4545454545455 L 243.81818181818176 526.4545454545455 L 224.90909090909088 526.4545454545455 L 224.90909090909088 526.4545454545455 Z" fill-opacity="0.7"/><path fill="none" stroke="black" paint-order="fill stroke markers" d=" M 224.90909090909088 526.4545454545455 L 243.81818181818176 526.4545454545455 L 243.81818181818176 526.4545454545455 L 224.90909090909088 526.4545454545455 L 224.90909090909088 526.4545454545455 Z" stroke-linejoin="bevel" stroke-miterlimit="10"/><path fill="mediumslateblue" stroke="none" paint-order="stroke fill markers" d=" M 243.81818181818176 504.03030303030306 L 262.7272727272727 504.03030303030306 L 262.7272727272727 526.4545454545455 L 243.81818181818176 526.4545454545455 L 243.81818181818176 504.03030303030306 Z" fill-opacity="0.7"/><path fill="none" stroke="black" paint-order="fill stroke markers" d=" M 243.81818181818176 504.03030303030306 L 262.7272727272727 504.03030303030306 L 262.7272727272727 526.4545454545455 L 243.81818181818176 526.4545454545455 L 243.81818181818176 504.03030303030306 Z" stroke-linejoin="bevel" stroke-miterlimit="10"/><path fill="mediumslateblue" stroke="none" paint-order="stroke fill markers" d=" M 262.7272727272727 504.03030303030306 L 281.63636363636357 504.03030303030306 L 281.63636363636357 526.4545454545455 L 262.7272727272727 526.4545454545455 L 262.7272727272727 504.03030303030306 Z" fill-opacity="0.7"/><path fill="none" stroke="black" paint-order="fill stroke markers" d=" M 262.7272727272727 504.03030303030306 L 281.63636363636357 504.03030303030306 L 281.63636363636357 526.4545454545455 L 262.7272727272727 526.4545454545455 L 262.7272727272727 504.03030303030306 Z" stroke-linejoin="bevel" stroke-miterlimit="10"/><path fill="mediumslateblue" stroke="none" paint-order="stroke fill markers" d=" M 281.63636363636357 504.03030303030306 L 300.5454545454545 504.03030303030306 L 300.5454545454545 526.4545454545455 L 281.63636363636357 526.4545454545455 L 281.63636363636357 504.03030303030306 Z" fill-opacity="0.7"/><path fill="none" stroke="black" paint-order="fill stroke markers" d=" M 281.63636363636357 504.03030303030306 L 300.5454545454545 504.03030303030306 L 300.5454545454545 526.4545454545455 L 281.63636363636357 526.4545454545455 L 281.63636363636357 504.03030303030306 Z" stroke-linejoin="bevel" stroke-miterlimit="10"/><path fill="mediumslateblue" stroke="none" paint-order="stroke fill markers" d=" M 300.5454545454545 526.4545454545455 L 319.45454545454544 526.4545454545455 L 319.45454545454544 526.4545454545455 L 300.5454545454545 526.4545454545455 L 300.5454545454545 526.4545454545455 Z" fill-opacity="0.7"/><path fill="none" stroke="black" paint-order="fill stroke markers" d=" M 300.5454545454545 526.4545454545455 L 319.45454545454544 526.4545454545455 L 319.45454545454544 526.4545454545455 L 300.5454545454545 526.4545454545455 L 300.5454545454545 526.4545454545455 Z" stroke-linejoin="bevel" stroke-miterlimit="10"/><path fill="mediumslateblue" stroke="none" paint-order="stroke fill markers" d=" M 319.45454545454544 526.4545454545455 L 338.3636363636363 526.4545454545455 L 338.3636363636363 526.4545454545455 L 319.45454545454544 526.4545454545455 L 319.45454545454544 526.4545454545455 Z" fill-opacity="0.7"/><path fill="none" stroke="black" paint-order="fill stroke markers" d=" M 319.45454545454544 526.4545454545455 L 338.3636363636363 526.4545454545455 L 338.3636363636363 526.4545454545455 L 319.45454545454544 526.4545454545455 L 319.45454545454544 526.4545454545455 Z" stroke-linejoin="bevel" stroke-miterlimit="10"/><path fill="mediumslateblue" stroke="none" paint-order="stroke fill markers" d=" M 338.3636363636363 526.4545454545455 L 357.2727272727272 526.4545454545455 L 357.2727272727272 526.4545454545455 L 338.3636363636363 526.4545454545455 L 338.3636363636363 526.4545454545455 Z" fill-opacity="0.7"/><path fill="none" stroke="black" paint-order="fill stroke markers" d=" M 338.3636363636363 526.4545454545455 L 357.2727272727272 526.4545454545455 L 357.2727272727272 526.4545454545455 L 338.3636363636363 526.4545454545455 L 338.3636363636363 526.4545454545455 Z" stroke-linejoin="bevel" stroke-miterlimit="10"/><path fill="mediumslateblue" stroke="none" paint-order="stroke fill markers" d=" M 357.2727272727272 526.4545454545455 L 376.1818181818181 526.4545454545455 L 376.1818181818181 526.4545454545455 L 357.2727272727272 526.4545454545455 L 357.2727272727272 526.4545454545455 Z" fill-opacity="0.7"/><path fill="none" stroke="black" paint-order="fill stroke markers" d=" M 357.2727272727272 526.4545454545455 L 376.1818181818181 526.4545454545455 L 376.1818181818181 526.4545454545455 L 357.2727272727272 526.4545454545455 L 357.2727272727272 526.4545454545455 Z" stroke-linejoin="bevel" stroke-miterlimit="10"/><path fill="mediumslateblue" stroke="none" paint-order="stroke fill markers" d=" M 376.1818181818181 526.4545454545455 L 395.090909090909 526.4545454545455 L 395.090909090909 526.4545454545455 L 376.1818181818181 526.4545454545455 L 376.1818181818181 526.4545454545455 Z" fill-opacity="0.7"/><path fill="none" stroke="black" paint-order="fill stroke markers" d=" M 376.1818181818181 526.4545454545455 L 395.090909090909 526.4545454545455 L 395.090909090909 526.4545454545455 L 376.1818181818181 526.4545454545455 L 376.1818181818181 526.4545454545455 Z" stroke-linejoin="bevel" stroke-miterlimit="10"/><path fill="mediumslateblue" stroke="none" paint-order="stroke fill markers" d=" M 395.090909090909 526.4545454545455 L 413.9999999999999 526.4545454545455 L 413.9999999999999 526.4545454545455 L 395.090909090909 526.4545454545455 L 395.090909090909 526.4545454545455 Z" fill-opacity="0.7"/><path fill="none" stroke="black" paint-order="fill stroke markers" d=" M 395.090909090909 526.4545454545455 L 413.9999999999999 526.4545454545455 L 413.9999999999999 526.4545454545455 L 395.090909090909 526.4545454545455 L 395.090909090909 526.4545454545455 Z" stroke-linejoin="bevel" stroke-miterlimit="10"/><path fill="mediumslateblue" stroke="none" paint-order="stroke fill markers" d=" M 413.9999999999999 526.4545454545455 L 432.90909090909076 526.4545454545455 L 432.90909090909076 526.4545454545455 L 413.9999999999999 526.4545454545455 L 413.9999999999999 526.4545454545455 Z" fill-opacity="0.7"/><path fill="none" stroke="black" paint-order="fill stroke markers" d=" M 413.9999999999999 526.4545454545455 L 432.90909090909076 526.4545454545455 L 432.90909090909076 526.4545454545455 L 413.9999999999999 526.4545454545455 L 413.9999999999999 526.4545454545455 Z" stroke-linejoin="bevel" stroke-miterlimit="10"/><path fill="mediumslateblue" stroke="none" paint-order="stroke fill markers" d=" M 432.90909090909076 526.4545454545455 L 451.8181818181817 526.4545454545455 L 451.8181818181817 526.4545454545455 L 432.90909090909076 526.4545454545455 L 432.90909090909076 526.4545454545455 Z" fill-opacity="0.7"/><path fill="none" stroke="black" paint-order="fill stroke markers" d=" M 432.90909090909076 526.4545454545455 L 451.8181818181817 526.4545454545455 L 451.8181818181817 526.4545454545455 L 432.90909090909076 526.4545454545455 L 432.90909090909076 526.4545454545455 Z" stroke-linejoin="bevel" stroke-miterlimit="10"/><path fill="mediumslateblue" stroke="none" paint-order="stroke fill markers" d=" M 451.8181818181817 526.4545454545455 L 470.72727272727263 526.4545454545455 L 470.72727272727263 526.4545454545455 L 451.8181818181817 526.4545454545455 L 451.8181818181817 526.4545454545455 Z" fill-opacity="0.7"/><path fill="none" stroke="black" paint-order="fill stroke markers" d=" M 451.8181818181817 526.4545454545455 L 470.72727272727263 526.4545454545455 L 470.72727272727263 526.4545454545455 L 451.8181818181817 526.4545454545455 L 451.8181818181817 526.4545454545455 Z" stroke-linejoin="bevel" stroke-miterlimit="10"/><path fill="mediumslateblue" stroke="none" paint-order="stroke fill markers" d=" M 470.72727272727263 526.4545454545455 L 489.6363636363635 526.4545454545455 L 489.6363636363635 526.4545454545455 L 470.72727272727263 526.4545454545455 L 470.72727272727263 526.4545454545455 Z" fill-opacity="0.7"/><path fill="none" stroke="black" paint-order="fill stroke markers" d=" M 470.72727272727263 526.4545454545455 L 489.6363636363635 526.4545454545455 L 489.6363636363635 526.4545454545455 L 470.72727272727263 526.4545454545455 L 470.72727272727263 526.4545454545455 Z" stroke-linejoin="bevel" stroke-miterlimit="10"/><path fill="mediumslateblue" stroke="none" paint-order="stroke fill markers" d=" M 489.6363636363635 526.4545454545455 L 508.54545454545445 526.4545454545455 L 508.54545454545445 526.4545454545455 L 489.6363636363635 526.4545454545455 L 489.6363636363635 526.4545454545455 Z" fill-opacity="0.7"/><path fill="none" stroke="black" paint-order="fill stroke markers" d=" M 489.6363636363635 526.4545454545455 L 508.54545454545445 526.4545454545455 L 508.54545454545445 526.4545454545455 L 489.6363636363635 526.4545454545455 L 489.6363636363635 526.4545454545455 Z" stroke-linejoin="bevel" stroke-miterlimit="10"/><path fill="mediumslateblue" stroke="none" paint-order="stroke fill markers" d=" M 508.54545454545445 526.4545454545455 L 527.4545454545454 526.4545454545455 L 527.4545454545454 526.4545454545455 L 508.54545454545445 526.4545454545455 L 508.54545454545445 526.4545454545455 Z" fill-opacity="0.7"/><path fill="none" stroke="black" paint-order="fill stroke markers" d=" M 508.54545454545445 526.4545454545455 L 527.4545454545454 526.4545454545455 L 527.4545454545454 526.4545454545455 L 508.54545454545445 526.4545454545455 L 508.54545454545445 526.4545454545455 Z" stroke-linejoin="bevel" stroke-miterlimit="10"/><path fill="mediumslateblue" stroke="none" paint-order="stroke fill markers" d=" M 527.4545454545454 504.03030303030306 L 546.3636363636363 504.03030303030306 L 546.3636363636363 526.4545454545455 L 527.4545454545454 526.4545454545455 L 527.4545454545454 504.03030303030306 Z" fill-opacity="0.7"/><path fill="none" stroke="black" paint-order="fill stroke markers" d=" M 527.4545454545454 504.03030303030306 L 546.3636363636363 504.03030303030306 L 546.3636363636363 526.4545454545455 L 527.4545454545454 526.4545454545455 L 527.4545454545454 504.03030303030306 Z" stroke-linejoin="bevel" stroke-miterlimit="10"/></g></g></g><g><g fill="#444444"><path fill="none" stroke="black" paint-order="fill stroke markers" d=" M 50 550 L 570 550" stroke-linejoin="bevel" stroke-miterlimit="10"/><path fill="none" stroke="black" paint-order="fill stroke markers" d=" M 74 556 L 74 548" stroke-linejoin="bevel" stroke-miterlimit="10"/><path fill="none" stroke="black" paint-order="fill stroke markers" d=" M 190 556 L 190 548" stroke-linejoin="bevel" stroke-miterlimit="10"/><path fill="none" stroke="black" paint-order="fill stroke markers" d=" M 306 556 L 306 548" stroke-linejoin="bevel" stroke-miterlimit="10"/><path fill="none" stroke="black" paint-order="fill stroke markers" d=" M 422 556 L 422 548" stroke-linejoin="bevel" stroke-miterlimit="10"/><path fill="none" stroke="black" paint-order="fill stroke markers" d=" M 538 556 L 538 548" stroke-linejoin="bevel" stroke-miterlimit="10"/><path fill="none" stroke="black" paint-order="fill stroke markers" d=" M 50 554 L 50 550" stroke-linejoin="bevel" stroke-miterlimit="10"/><path fill="none" stroke="black" paint-order="fill stroke markers" d=" M 74 554 L 74 550" stroke-linejoin="bevel" stroke-miterlimit="10"/><path fill="none" stroke="black" paint-order="fill stroke markers" d=" M 97 554 L 97 550" stroke-linejoin="bevel" stroke-miterlimit="10"/><path fill="none" stroke="black" paint-order="fill stroke markers" d=" M 120 554 L 120 550" stroke-linejoin="bevel" stroke-miterlimit="10"/><path fill="none" stroke="black" paint-order="fill stroke markers" d=" M 143 554 L 143 550" stroke-linejoin="bevel" stroke-miterlimit="10"/><path fill="none" stroke="black" paint-order="fill stroke markers" d=" M 166 554 L 166 550" stroke-linejoin="bevel" stroke-miterlimit="10"/><path fill="none" stroke="black" paint-order="fill stroke markers" d=" M 190 554 L 190 550" stroke-linejoin="bevel" stroke-miterlimit="10"/><path fill="none" stroke="black" paint-order="fill stroke markers" d=" M 213 554 L 213 550" stroke-linejoin="bevel" stroke-miterlimit="10"/><path fill="none" stroke="black" paint-order="fill stroke markers" d=" M 236 554 L 236 550" stroke-linejoin="bevel" stroke-miterlimit="10"/><path fill="none" stroke="black" paint-order="fill stroke markers" d=" M 259 554 L 259 550" stroke-linejoin="bevel" stroke-miterlimit="10"/><path fill="none" stroke="black" paint-order="fill stroke markers" d=" M 282 554 L 282 550" stroke-linejoin="bevel" stroke-miterlimit="10"/><path fill="none" stroke="black" paint-order="fill stroke markers" d=" M 306 554 L 306 550" stroke-linejoin="bevel" stroke-miterlimit="10"/><path fill="none" stroke="black" paint-order="fill stroke markers" d=" M 329 554 L 329 550" stroke-linejoin="bevel" stroke-miterlimit="10"/><path fill="none" stroke="black" paint-order="fill stroke markers" d=" M 352 554 L 352 550" stroke-linejoin="bevel" stroke-miterlimit="10"/><path fill="none" stroke="black" paint-order="fill stroke markers" d=" M 375 554 L 375 550" stroke-linejoin="bevel" stroke-miterlimit="10"/><path fill="none" stroke="black" paint-order="fill stroke markers" d=" M 398 554 L 398 550" stroke-linejoin="bevel" stroke-miterlimit="10"/><path fill="none" stroke="black" paint-order="fill stroke markers" d=" M 422 554 L 422 550" stroke-linejoin="bevel" stroke-miterlimit="10"/><path fill="none" stroke="black" paint-order="fill stroke markers" d=" M 445 554 L 445 550" stroke-linejoin="bevel" stroke-miterlimit="10"/><path fill="none" stroke="black" paint-order="fill stroke markers" d=" M 468 554 L 468 550" stroke-linejoin="bevel" stroke-miterlimit="10"/><path fill="none" stroke="black" paint-order="fill stroke markers" d=" M 491 554 L 491 550" stroke-linejoin="bevel" stroke-miterlimit="10"/><path fill="none" stroke="black" paint-order="fill stroke markers" d=" M 514 554 L 514 550" stroke-linejoin="bevel" stroke-miterlimit="10"/><path fill="none" stroke="black" paint-order="fill stroke markers" d=" M 538 554 L 538 550" stroke-linejoin="bevel" stroke-miterlimit="10"/><path fill="" stroke="black" paint-order="fill stroke markers" d=" M 561 554 L 561 550" stroke-linejoin="bevel" stroke-miterlimit="10"/><g transform="translate(74,561) rotate(0,0,0)"><text fill="" stroke="none" font-family="helvetica" font-size="11px" font-style="normal" font-weight="normal" text-decoration="normal" x="0" y="0" text-anchor="middle" dominant-baseline="hanging">0</text><g transform="rotate(0,0,0) translate(-74,-561) translate(190,561)"><text fill="" stroke="none" font-family="helvetica" font-size="11px" font-style="normal" font-weight="normal" text-decoration="normal" x="0" y="0" text-anchor="middle" dominant-baseline="hanging">5000</text><g transform="rotate(0,0,0) translate(-190,-561) translate(306,561)"><text fill="" stroke="none" font-family="helvetica" font-size="11px" font-style="normal" font-weight="normal" text-decoration="normal" x="0" y="0" text-anchor="middle" dominant-baseline="hanging">10000</text><g transform="rotate(0,0,0) translate(-306,-561) translate(422,561)"><text fill="" stroke="none" font-family="helvetica" font-size="11px" font-style="normal" font-weight="normal" text-decoration="normal" x="0" y="0" text-anchor="middle" dominant-baseline="hanging">15000</text><g transform="rotate(0,0,0) translate(-422,-561) translate(538,561)"><text fill="" stroke="none" font-family="helvetica" font-size="11px" font-style="normal" font-weight="normal" text-decoration="normal" x="0" y="0" text-anchor="middle" dominant-baseline="hanging">20000</text><g transform="rotate(0,0,0) translate(-538,-561) translate(310,581)"><text fill="" stroke="none" font-family="helvetica" font-size="13px" font-style="italic" font-weight="normal" text-decoration="normal" x="0" y="0" text-anchor="middle" dominant-baseline="hanging">Readme and description length (# of characters)</text><g transform="rotate(0,0,0) translate(-310,-581)"/></g></g></g></g></g></g></g></g><g><g fill="#444444"><path fill="none" stroke="black" paint-order="fill stroke markers" d=" M 50 550 L 50 32" stroke-linejoin="bevel" stroke-miterlimit="10"/><path fill="none" stroke="black" paint-order="fill stroke markers" d=" M 44 526 L 52 526" stroke-linejoin="bevel" stroke-miterlimit="10"/><path fill="none" stroke="black" paint-order="fill stroke markers" d=" M 44 414 L 52 414" stroke-linejoin="bevel" stroke-miterlimit="10"/><path fill="none" stroke="black" paint-order="fill stroke markers" d=" M 44 302 L 52 302" stroke-linejoin="bevel" stroke-miterlimit="10"/><path fill="none" stroke="black" paint-order="fill stroke markers" d=" M 44 190 L 52 190" stroke-linejoin="bevel" stroke-miterlimit="10"/><path fill="none" stroke="black" paint-order="fill stroke markers" d=" M 44 78 L 52 78" stroke-linejoin="bevel" stroke-miterlimit="10"/><path fill="none" stroke="black" paint-order="fill stroke markers" d=" M 46 549 L 50 549" stroke-linejoin="bevel" stroke-miterlimit="10"/><path fill="none" stroke="black" paint-order="fill stroke markers" d=" M 46 526 L 50 526" stroke-linejoin="bevel" stroke-miterlimit="10"/><path fill="none" stroke="black" paint-order="fill stroke markers" d=" M 46 504 L 50 504" stroke-linejoin="bevel" stroke-miterlimit="10"/><path fill="none" stroke="black" paint-order="fill stroke markers" d=" M 46 482 L 50 482" stroke-linejoin="bevel" stroke-miterlimit="10"/><path fill="none" stroke="black" paint-order="fill stroke markers" d=" M 46 459 L 50 459" stroke-linejoin="bevel" stroke-miterlimit="10"/><path fill="none" stroke="black" paint-order="fill stroke markers" d=" M 46 437 L 50 437" stroke-linejoin="bevel" stroke-miterlimit="10"/><path fill="none" stroke="black" paint-order="fill stroke markers" d=" M 46 414 L 50 414" stroke-linejoin="bevel" stroke-miterlimit="10"/><path fill="none" stroke="black" paint-order="fill stroke markers" d=" M 46 392 L 50 392" stroke-linejoin="bevel" stroke-miterlimit="10"/><path fill="none" stroke="black" paint-order="fill stroke markers" d=" M 46 369 L 50 369" stroke-linejoin="bevel" stroke-miterlimit="10"/><path fill="none" stroke="black" paint-order="fill stroke markers" d=" M 46 347 L 50 347" stroke-linejoin="bevel" stroke-miterlimit="10"/><path fill="none" stroke="black" paint-order="fill stroke markers" d=" M 46 325 L 50 325" stroke-linejoin="bevel" stroke-miterlimit="10"/><path fill="none" stroke="black" paint-order="fill stroke markers" d=" M 46 302 L 50 302" stroke-linejoin="bevel" stroke-miterlimit="10"/><path fill="none" stroke="black" paint-order="fill stroke markers" d=" M 46 280 L 50 280" stroke-linejoin="bevel" stroke-miterlimit="10"/><path fill="none" stroke="black" paint-order="fill stroke markers" d=" M 46 257 L 50 257" stroke-linejoin="bevel" stroke-miterlimit="10"/><path fill="none" stroke="black" paint-order="fill stroke markers" d=" M 46 235 L 50 235" stroke-linejoin="bevel" stroke-miterlimit="10"/><path fill="none" stroke="black" paint-order="fill stroke markers" d=" M 46 213 L 50 213" stroke-linejoin="bevel" stroke-miterlimit="10"/><path fill="none" stroke="black" paint-order="fill stroke markers" d=" M 46 190 L 50 190" stroke-linejoin="bevel" stroke-miterlimit="10"/><path fill="none" stroke="black" paint-order="fill stroke markers" d=" M 46 168 L 50 168" stroke-linejoin="bevel" stroke-miterlimit="10"/><path fill="none" stroke="black" paint-order="fill stroke markers" d=" M 46 145 L 50 145" stroke-linejoin="bevel" stroke-miterlimit="10"/><path fill="none" stroke="black" paint-order="fill stroke markers" d=" M 46 123 L 50 123" stroke-linejoin="bevel" stroke-miterlimit="10"/><path fill="none" stroke="black" paint-order="fill stroke markers" d=" M 46 100 L 50 100" stroke-linejoin="bevel" stroke-miterlimit="10"/><path fill="none" stroke="black" paint-order="fill stroke markers" d=" M 46 78 L 50 78" stroke-linejoin="bevel" stroke-miterlimit="10"/><path fill="none" stroke="black" paint-order="fill stroke markers" d=" M 46 56 L 50 56" stroke-linejoin="bevel" stroke-miterlimit="10"/><path fill="" stroke="black" paint-order="fill stroke markers" d=" M 46 33 L 50 33" stroke-linejoin="bevel" stroke-miterlimit="10"/><g transform="translate(39,526) rotate(0,0,0)"><text fill="" stroke="none" font-family="helvetica" font-size="11px" font-style="normal" font-weight="normal" text-decoration="normal" x="0" y="0" text-anchor="end" dominant-baseline="central">0</text><g transform="rotate(0,0,0) translate(-39,-526) translate(39,414)"><text fill="" stroke="none" font-family="helvetica" font-size="11px" font-style="normal" font-weight="normal" text-decoration="normal" x="0" y="0" text-anchor="end" dominant-baseline="central">5</text><g transform="rotate(0,0,0) translate(-39,-414) translate(39,302)"><text fill="" stroke="none" font-family="helvetica" font-size="11px" font-style="normal" font-weight="normal" text-decoration="normal" x="0" y="0" text-anchor="end" dominant-baseline="central">10</text><g transform="rotate(0,0,0) translate(-39,-302) translate(39,190)"><text fill="" stroke="none" font-family="helvetica" font-size="11px" font-style="normal" font-weight="normal" text-decoration="normal" x="0" y="0" text-anchor="end" dominant-baseline="central">15</text><g transform="rotate(0,0,0) translate(-39,-190) translate(39,78)"><text fill="" stroke="none" font-family="helvetica" font-size="11px" font-style="normal" font-weight="normal" text-decoration="normal" x="0" y="0" text-anchor="end" dominant-baseline="central">20</text><g transform="rotate(0,0,0) translate(-39,-78) translate(19,291) rotate(-90,0,0)"><text fill="" stroke="none" font-family="helvetica" font-size="13px" font-style="italic" font-weight="normal" text-decoration="normal" x="0" y="0" text-anchor="middle" dominant-baseline="alphabetic">Number of repositories</text><g transform="rotate(90,0,0) translate(-19,-291)"/></g></g></g></g></g></g></g></g><g><g fill="#444444"><path fill="" stroke="none" d=""/><g transform="translate(50,27)"><path fill="none" stroke="none"/><text fill="" stroke="none" font-family="helvetica" font-size="13px" font-style="normal" font-weight="bold" text-decoration="normal" x="0" y="0" text-anchor="start" dominant-baseline="text-after-edge">Readme + Description length distribution</text></g></g></g><g/></g></svg>